<svg width="32" height="32" viewBox="0 0 32 32" fill="none" xmlns="http://www.w3.org/2000/svg">
<path d="M22.0691 0H0V32H32V7.7792L22.0691 0ZM22.4681 1.8208L29.6756 7.46667H22.4681V1.8208ZM1.3617 30.9333V1.06667H21.1064V8.53333H30.6383V30.9333H1.3617Z" fill="black" fill-opacity="0.7"/>
<path d="M6.80854 9.06711H12.9362C13.312 9.06711 13.6171 8.82872 13.6171 8.5338C13.6171 8.23888 13.312 8.00049 12.9362 8.00049H6.80854C6.43271 8.00049 6.12769 8.23888 6.12769 8.5338C6.12769 8.82872 6.43271 9.06711 6.80854 9.06711Z" fill="black" fill-opacity="0.7"/>
<path d="M18.383 19.7334H6.80854C6.43271 19.7334 6.12769 19.9718 6.12769 20.2667C6.12769 20.5616 6.43271 20.8 6.80854 20.8H18.383C18.7588 20.8 19.0638 20.5616 19.0638 20.2667C19.0638 19.9718 18.7588 19.7334 18.383 19.7334Z" fill="black" fill-opacity="0.7"/>
<path d="M25.1915 15.9998H20.4255C20.0497 15.9998 19.7447 16.2382 19.7447 16.5331C19.7447 16.828 20.0497 17.0664 20.4255 17.0664H25.1915C25.5674 17.0664 25.8724 16.828 25.8724 16.5331C25.8724 16.2382 25.5674 15.9998 25.1915 15.9998Z" fill="black" fill-opacity="0.7"/>
<path d="M6.80853 13.3338H10.2128C10.5886 13.3338 10.8936 13.0954 10.8936 12.8004C10.8936 12.5055 10.5886 12.2671 10.2128 12.2671H6.80853C6.43271 12.2671 6.12769 12.5055 6.12769 12.8004C6.12769 13.0954 6.43271 13.3338 6.80853 13.3338Z" fill="black" fill-opacity="0.7"/>
<path d="M17.0213 13.3338H21.7873C22.1631 13.3338 22.4681 13.0954 22.4681 12.8004C22.4681 12.5055 22.1631 12.2671 21.7873 12.2671H17.0213C16.6455 12.2671 16.3405 12.5055 16.3405 12.8004C16.3405 13.0954 16.6455 13.3338 17.0213 13.3338Z" fill="black" fill-opacity="0.7"/>
<path d="M12.9362 12.7996C12.9362 12.9383 13.0111 13.077 13.1336 13.1783C13.263 13.2743 13.44 13.333 13.617 13.333C13.794 13.333 13.971 13.2743 14.1004 13.1783C14.223 13.077 14.2979 12.9383 14.2979 12.7996C14.2979 12.6604 14.223 12.5218 14.1004 12.421C13.8485 12.2236 13.3923 12.2236 13.1336 12.421C13.0111 12.5218 12.9362 12.6604 12.9362 12.7996Z" fill="black" fill-opacity="0.7"/>
<path d="M10.2128 15.9998C9.83694 15.9998 9.53192 16.2382 9.53192 16.5331C9.53192 16.828 9.83694 17.0664 10.2128 17.0664H17.0213C17.3971 17.0664 17.7021 16.828 17.7021 16.5331C17.7021 16.2382 17.3971 15.9998 17.0213 15.9998H10.2128Z" fill="black" fill-opacity="0.7"/>
<path d="M6.80853 17.0664C6.98555 17.0664 7.16257 17.0077 7.29193 16.9117C7.41449 16.8104 7.48938 16.6717 7.48938 16.533C7.48938 16.3938 7.41449 16.2551 7.29193 16.1543C7.04002 15.957 6.57704 15.957 6.32513 16.1543C6.20258 16.2551 6.12769 16.3885 6.12769 16.533C6.12769 16.6717 6.20258 16.8104 6.32513 16.9117C6.45449 17.0077 6.63151 17.0664 6.80853 17.0664Z" fill="black" fill-opacity="0.7"/>
<path d="M25.1915 23.4661H20.4255C20.0497 23.4661 19.7447 23.7045 19.7447 23.9994C19.7447 24.2943 20.0497 24.5327 20.4255 24.5327H25.1915C25.5674 24.5327 25.8724 24.2943 25.8724 23.9994C25.8724 23.7045 25.5674 23.4661 25.1915 23.4661Z" fill="black" fill-opacity="0.7"/>
<path d="M17.0213 23.4661H10.2128C9.83694 23.4661 9.53192 23.7045 9.53192 23.9994C9.53192 24.2943 9.83694 24.5327 10.2128 24.5327H17.0213C17.3971 24.5327 17.7021 24.2943 17.7021 23.9994C17.7021 23.7045 17.3971 23.4661 17.0213 23.4661Z" fill="black" fill-opacity="0.7"/>
<path d="M6.32513 23.621C6.20258 23.717 6.12769 23.8551 6.12769 23.9996C6.12769 24.1436 6.19577 24.2769 6.32513 24.3783C6.45449 24.4743 6.63151 24.5329 6.80853 24.5329C6.99236 24.5329 7.16257 24.4743 7.29193 24.3783C7.41449 24.2769 7.48938 24.1383 7.48938 23.9996C7.48938 23.8551 7.41449 23.7218 7.29193 23.6263C7.04002 23.4236 6.58385 23.4236 6.32513 23.621Z" fill="black" fill-opacity="0.7"/>
<path d="M24.7081 12.421C24.5855 12.5218 24.5106 12.6604 24.5106 12.7996C24.5106 12.9383 24.5855 13.077 24.7081 13.1783C24.8374 13.2743 25.0144 13.333 25.1915 13.333C25.3685 13.333 25.5455 13.2743 25.6749 13.1783C25.8042 13.077 25.8723 12.9383 25.8723 12.7996C25.8723 12.6604 25.8042 12.5218 25.6749 12.421C25.4161 12.2236 24.9668 12.2236 24.7081 12.421Z" fill="black" fill-opacity="0.7"/>
<path d="M22.2706 20.6454C22.3932 20.544 22.4681 20.4054 22.4681 20.2667C22.4681 20.1275 22.3932 19.9888 22.2706 19.888C22.0119 19.6907 21.5557 19.6907 21.3038 19.888C21.1813 19.9888 21.1064 20.1275 21.1064 20.2667C21.1064 20.4054 21.1813 20.544 21.3038 20.6454C21.4332 20.7462 21.6034 20.8001 21.7872 20.8001C21.9711 20.8001 22.1413 20.7414 22.2706 20.6454Z" fill="black" fill-opacity="0.7"/>
<path d="M24.7081 19.888C24.5855 19.9888 24.5106 20.1275 24.5106 20.2667C24.5106 20.4054 24.5855 20.544 24.7081 20.6454C24.8374 20.7414 25.0076 20.8001 25.1915 20.8001C25.3753 20.8001 25.5455 20.7414 25.6749 20.6454C25.7974 20.544 25.8723 20.4054 25.8723 20.2667C25.8723 20.1275 25.7974 19.9888 25.6749 19.888C25.423 19.6907 24.96 19.6907 24.7081 19.888Z" fill="black" fill-opacity="0.7"/>
</svg>
