<svg width="50" height="50" viewBox="0 0 50 50" fill="none" xmlns="http://www.w3.org/2000/svg">
<path d="M48.0859 21.6666L45.672 16.3386C44.8016 14.4462 42.9108 13.2322 40.8279 13.2291H6.19537C3.6377 13.2319 1.56525 15.3043 1.5625 17.8623V29.4401C1.5625 30.8423 2.69928 31.9791 4.10156 31.9791H7.89062C8.2605 33.8001 9.86084 35.1081 11.7188 35.1081C13.5767 35.1081 15.177 33.8001 15.5469 31.9791H34.4531C34.823 33.8001 36.4233 35.1081 38.2812 35.1081C40.1392 35.1081 41.7395 33.8001 42.1094 31.9791H46.2659C47.2305 31.9788 48.0798 31.3425 48.3517 30.4166C48.4082 30.2183 48.4369 30.0135 48.4375 29.8075V23.2841C48.4372 22.7259 48.3173 22.1744 48.0859 21.6666ZM5.46875 22.6041C5.03723 22.6041 4.6875 22.2544 4.6875 21.8229V15.5729C4.6875 15.1417 5.03723 14.7916 5.46875 14.7916H10.9375C11.369 14.7916 11.7188 15.1417 11.7188 15.5729V21.8229C11.7188 22.2544 11.369 22.6041 10.9375 22.6041H5.46875ZM11.7188 33.5416C10.4245 33.5416 9.375 32.4924 9.375 31.1979C9.375 29.9036 10.4245 28.8541 11.7188 28.8541C13.013 28.8541 14.0625 29.9036 14.0625 31.1979C14.0588 32.4909 13.0115 33.538 11.7188 33.5416ZM20.3125 21.8229C20.3125 22.2544 19.9628 22.6041 19.5312 22.6041H14.0625C13.631 22.6041 13.2812 22.2544 13.2812 21.8229V15.5729C13.2812 15.1417 13.631 14.7916 14.0625 14.7916H19.5312C19.9628 14.7916 20.3125 15.1417 20.3125 15.5729V21.8229ZM28.9062 21.8229C28.9062 22.2544 28.5565 22.6041 28.125 22.6041H22.6562C22.2247 22.6041 21.875 22.2544 21.875 21.8229V15.5729C21.875 15.1417 22.2247 14.7916 22.6562 14.7916H28.125C28.5565 14.7916 28.9062 15.1417 28.9062 15.5729V21.8229ZM31.25 22.6041C30.8185 22.6041 30.4688 22.2544 30.4688 21.8229V15.5729C30.4688 15.1417 30.8185 14.7916 31.25 14.7916H36.7188C37.1503 14.7916 37.5 15.1417 37.5 15.5729V21.8229C37.5 22.2544 37.1503 22.6041 36.7188 22.6041H31.25ZM38.2812 33.5416C36.987 33.5416 35.9375 32.4924 35.9375 31.1979C35.9375 29.9036 36.987 28.8541 38.2812 28.8541C39.5755 28.8541 40.625 29.9036 40.625 31.1979C40.6213 32.4909 39.574 33.538 38.2812 33.5416ZM39.7812 22.6041C39.3762 22.5681 39.0649 22.2297 39.0625 21.8229V15.5662C39.0625 15.1386 39.4092 14.7916 39.837 14.7916H40.8279C42.2986 14.7956 43.6337 15.6519 44.2502 16.9871L46.6641 22.3151C46.7902 22.5928 46.8594 22.8931 46.8674 23.1977L39.7812 22.6041Z" fill="white"/>
</svg>
