<svg width="15" height="15" viewBox="0 0 15 15" fill="none" xmlns="http://www.w3.org/2000/svg">
<g clip-path="url(#clip0)">
<path d="M6.78375 7.44947L0.14437 14.0888C-0.040083 14.2733 -0.040083 14.5721 0.14437 14.7566C0.23648 14.8489 0.357417 14.8949 0.47812 14.8949C0.599058 14.8949 0.719761 14.8489 0.81187 14.7566L7.50117 8.06729L14.1905 14.7566C14.2828 14.8489 14.4035 14.8949 14.5242 14.8949C14.6449 14.8949 14.7659 14.8489 14.858 14.7566C15.0424 14.5721 15.0424 14.2733 14.858 14.0888L8.21882 7.44947L14.8624 0.80541C15.0469 0.620957 15.0469 0.322129 14.8624 0.137676C14.678 -0.046543 14.3791 -0.046543 14.1949 0.137676L7.5014 6.83166L0.807183 0.13791C0.62273 -0.0463086 0.324136 -0.0463086 0.139683 0.13791C-0.0447705 0.322363 -0.0447705 0.621191 0.139683 0.805645L6.78375 7.44947Z" fill="black" fill-opacity="0.7"/>
</g>
<defs>
<clipPath id="clip0">
<rect width="15" height="15" fill="white"/>
</clipPath>
</defs>
</svg>
