<svg width="32" height="32" viewBox="0 0 32 32" fill="none" xmlns="http://www.w3.org/2000/svg">
<path d="M4.35124 29.4608C4.35124 29.4608 4.32281 30.1761 5.02155 30.1761C5.89083 30.1761 13.0879 30.1667 13.0879 30.1667L13.0997 23.557C13.0997 23.557 12.986 22.4675 14.0436 22.4675H17.3905C18.6411 22.4675 18.5641 23.557 18.5641 23.557L18.5499 30.1453C18.5499 30.1453 25.3739 30.1453 26.4457 30.1453C27.3327 30.1453 27.2925 29.2547 27.2925 29.2547V17.0694L16.1647 7.17096L4.35124 17.0694V29.4608Z" fill="white"/>
<path d="M0 16.148C0 16.148 1.00311 17.9967 3.19053 16.148L16.2629 5.08893L28.5193 16.0793C31.0514 17.9055 32 16.0793 32 16.0793L16.2629 1.82379L0 16.148Z" fill="white"/>
<path d="M28.222 5.06287H25.0693L25.0824 8.88581L28.222 11.5493V5.06287Z" fill="white"/>
</svg>
