<svg width="24" height="24" viewBox="0 0 24 24" fill="none" xmlns="http://www.w3.org/2000/svg">
<path d="M3 7.5H21C21.828 7.5 22.5 6.828 22.5 6C22.5 5.172 21.828 4.5 21 4.5H3C2.172 4.5 1.5 5.172 1.5 6C1.5 6.828 2.172 7.5 3 7.5ZM21 10.5H3C2.172 10.5 1.5 11.172 1.5 12C1.5 12.828 2.172 13.5 3 13.5H21C21.828 13.5 22.5 12.828 22.5 12C22.5 11.172 21.828 10.5 21 10.5ZM21 16.5H3C2.172 16.5 1.5 17.172 1.5 18C1.5 18.828 2.172 19.5 3 19.5H21C21.828 19.5 22.5 18.828 22.5 18C22.5 17.172 21.828 16.5 21 16.5Z" fill="black" fill-opacity="0.7"/>
</svg>
