<svg width="19" height="24" viewBox="0 0 19 24" fill="none" xmlns="http://www.w3.org/2000/svg">
<path fill-rule="evenodd" clip-rule="evenodd" d="M11.0932 1H3.17656C2.30573 1 1.59323 1.9 1.59323 3V21C1.59323 22.1 2.30573 23 3.17656 23H11.0932C11.9641 23 12.6766 22.1 12.6766 21V3C12.6766 1.9 11.9641 1 11.0932 1ZM15.1307 8.7L15.9224 7.7C17.9016 10.1 17.9016 13.9 15.9224 16.2L15.1307 15.2C16.5557 13.3 16.5557 10.5 15.1307 8.7ZM13.4682 10.8L14.2599 9.8C15.2099 11.1 15.2099 12.9 14.2599 14.1L13.4682 13.1C13.8641 12.4 13.8641 11.5 13.4682 10.8ZM3.17656 20H11.0932V4H3.17656V20Z" fill="#053C69"/>
</svg>
