<svg width="19" height="24" viewBox="0 0 19 24" fill="none" xmlns="http://www.w3.org/2000/svg">
<g clip-path="url(#clip0)">
<path d="M18.7987 8.39775L13.3701 1.54066C13.2357 1.37099 13.0767 1.28613 12.893 1.28613C12.7092 1.28613 12.5501 1.37099 12.4159 1.54066C12.2815 1.71043 12.2143 1.91134 12.2143 2.14344V5.57199H9.8393C4.79929 5.57199 1.70701 7.37114 0.561763 10.9694C0.187242 12.1656 0 13.6524 0 15.4292C0 16.9112 0.448868 18.9246 1.34653 21.4693C1.3677 21.5319 1.40469 21.6388 1.45779 21.7906C1.51086 21.9423 1.55851 22.0762 1.60092 22.1924C1.64347 22.3083 1.68945 22.4065 1.73888 22.4868C1.82362 22.6386 1.92263 22.7147 2.03575 22.7147C2.14177 22.7147 2.22485 22.6701 2.28497 22.5808C2.34494 22.4916 2.37499 22.3799 2.37499 22.2463C2.37499 22.1657 2.36615 22.0476 2.34844 21.8912C2.33076 21.7349 2.32188 21.6302 2.32188 21.5766C2.28649 20.9696 2.26881 20.4201 2.26881 19.9294C2.26881 19.0277 2.33076 18.2196 2.45435 17.5054C2.57812 16.791 2.74951 16.1728 2.96869 15.6504C3.18783 15.1279 3.47048 14.6773 3.81692 14.2978C4.16322 13.9183 4.53603 13.6081 4.9354 13.367C5.33484 13.1259 5.80487 12.9361 6.34562 12.7978C6.88632 12.6594 7.43056 12.5634 7.97843 12.5098C8.52631 12.4561 9.14656 12.4295 9.8393 12.4295H12.2143V15.8581C12.2143 16.0902 12.2814 16.2912 12.4156 16.4608C12.55 16.6303 12.709 16.7152 12.8927 16.7152C13.0765 16.7152 13.2355 16.6303 13.3701 16.4608L18.7986 9.60346C18.9329 9.43379 19 9.23297 19 9.00081C19 8.76871 18.9329 8.56775 18.7987 8.39775Z" fill="#006494"/>
</g>
<defs>
<clipPath id="clip0">
<rect width="19" height="24" fill="white"/>
</clipPath>
</defs>
</svg>
