<svg width="24" height="24" viewBox="0 0 24 24" fill="none" xmlns="http://www.w3.org/2000/svg">
<path d="M24 0H0V24H24V0Z" fill="#50ABF1"/>
<path d="M3.17971 17.7904C4.77697 18.8035 6.67167 19.3897 8.70271 19.3897C14.4087 19.3897 19.0341 14.7638 19.0341 9.05835C19.0341 8.91589 19.0311 8.77449 19.0256 8.63352C19.232 8.4711 20.5084 7.44803 20.8213 6.79032C20.8213 6.79032 19.7847 7.2211 18.7702 7.32259C18.7682 7.32259 18.7658 7.32306 18.7637 7.32306C18.7637 7.32306 18.7658 7.32206 18.7692 7.31958C18.8627 7.25713 20.1696 6.3675 20.3465 5.3075C20.3465 5.3075 19.6134 5.69884 18.5868 6.0412C18.4169 6.09765 18.239 6.15316 18.0555 6.20461C17.3938 5.4984 16.4533 5.05762 15.4092 5.05762C13.4066 5.05762 11.7839 6.67989 11.7839 8.68096C11.7839 8.96334 11.8164 9.23819 11.8778 9.50208C11.598 9.4906 7.33637 9.25167 4.43719 5.74076C4.43719 5.74076 2.70448 8.1062 5.46975 10.5386C5.46975 10.5386 4.62915 10.5051 3.90393 10.0718C3.90393 10.0718 3.63756 12.9375 6.76915 13.6702C6.76915 13.6702 6.15294 13.9036 5.16989 13.7372C5.16989 13.7372 5.71963 16.0526 8.5019 16.269C8.5019 16.269 6.30182 18.2565 3.17871 17.7902L3.17971 17.7904Z" fill="white"/>
</svg>
