<svg width="32" height="32" viewBox="0 0 32 32" fill="none" xmlns="http://www.w3.org/2000/svg">
<path d="M31.4667 27.7333H30.9333V8.53333C30.9333 7.35513 29.9782 6.4 28.8 6.4H19.7925C20.0943 5.7286 20.2557 5.00267 20.2667 4.26667C20.2667 1.91027 18.3564 0 16 0C13.6436 0 11.7333 1.91027 11.7333 4.26667C11.7443 5.00267 11.9057 5.7286 12.2075 6.4H3.2C2.0218 6.4 1.06667 7.35513 1.06667 8.53333V27.7333H0.533333C0.2388 27.7333 0 27.9721 0 28.2667V29.8667C0 31.0449 0.955133 32 2.13333 32H29.8667C31.0449 32 32 31.0449 32 29.8667V28.2667C32 27.9721 31.7612 27.7333 31.4667 27.7333ZM16 1.06667C17.7666 1.0684 19.1983 2.50007 19.2 4.26667C19.2 6.6336 16.8581 8.7584 16 9.4576C15.1419 8.7584 12.8 6.6336 12.8 4.26667C12.8017 2.50007 14.2334 1.0684 16 1.06667ZM2.13333 8.53333C2.13333 7.9442 2.61087 7.46667 3.2 7.46667H12.7701C13.5033 8.58467 14.4142 9.57547 15.4667 10.4V10.6667C15.4667 11.8449 16.4218 12.8 17.6 12.8H20.8C21.3891 12.8 21.8667 13.2775 21.8667 13.8667C21.8667 14.4558 21.3891 14.9333 20.8 14.9333H11.7333C10.5551 14.9333 9.6 15.8885 9.6 17.0667C9.6 18.2449 10.5551 19.2 11.7333 19.2H22.9333C23.5225 19.2 24 19.6775 24 20.2667C24 20.8558 23.5225 21.3333 22.9333 21.3333H9.6C8.4218 21.3333 7.46667 22.2885 7.46667 23.4667V24.5333H4.8V10.1333H13.3333V9.06667H4.26667C3.97213 9.06667 3.73333 9.30547 3.73333 9.6V25.0667C3.73333 25.3612 3.97213 25.6 4.26667 25.6H27.7333C28.0279 25.6 28.2667 25.3612 28.2667 25.0667V9.6C28.2667 9.30547 28.0279 9.06667 27.7333 9.06667H18.6667V10.1333H27.2V24.5333H8.53333V23.4667C8.53333 22.8775 9.01087 22.4 9.6 22.4H22.9333C24.1115 22.4 25.0667 21.4449 25.0667 20.2667C25.0667 19.0885 24.1115 18.1333 22.9333 18.1333H11.7333C11.1442 18.1333 10.6667 17.6558 10.6667 17.0667C10.6667 16.4775 11.1442 16 11.7333 16H20.8C21.9782 16 22.9333 15.0449 22.9333 13.8667C22.9333 12.6885 21.9782 11.7333 20.8 11.7333H17.6C17.0109 11.7333 16.5333 11.2558 16.5333 10.6667V10.4C17.5858 9.57547 18.4967 8.58467 19.2299 7.46667H28.8C29.3891 7.46667 29.8667 7.9442 29.8667 8.53333V27.7333H20.8C20.6585 27.7333 20.5229 27.7896 20.4229 27.8896L19.5125 28.8H12.4875L11.5771 27.8896C11.4771 27.7896 11.3415 27.7333 11.2 27.7333H2.13333V8.53333ZM30.9333 29.8667C30.9333 30.4558 30.4558 30.9333 29.8667 30.9333H2.13333C1.5442 30.9333 1.06667 30.4558 1.06667 29.8667V28.8H10.9792L11.8896 29.7104C11.9896 29.8104 12.1252 29.8667 12.2667 29.8667H19.7333C19.8748 29.8667 20.0104 29.8104 20.1104 29.7104L21.0208 28.8H30.9333V29.8667Z" fill="white"/>
</svg>
