<svg width="32" height="32" viewBox="0 0 32 32" fill="none" xmlns="http://www.w3.org/2000/svg">
<g clip-path="url(#clip0)">
<path d="M29.8667 6.3999C28.6901 6.3999 27.7334 7.35672 27.7334 8.53322C27.7334 9.70972 28.6902 10.6665 29.8667 10.6665C31.0432 10.6665 32 9.70978 32 8.53322C32 7.35672 31.0432 6.3999 29.8667 6.3999ZM29.8667 9.59991C29.2785 9.59991 28.8 9.12153 28.8 8.53322C28.8 7.94497 29.2784 7.46653 29.8667 7.46653C30.455 7.46653 30.9334 7.94491 30.9334 8.53322C30.9333 9.12153 30.455 9.59991 29.8667 9.59991Z" fill="black" fill-opacity="0.25"/>
<path d="M2.13331 24C0.956813 24 0 24.9568 0 26.1333C0 27.3098 0.956813 28.2666 2.13331 28.2666C3.30988 28.2666 4.26662 27.3098 4.26662 26.1333C4.26662 24.9568 3.30988 24 2.13331 24ZM2.13331 27.2C1.54506 27.2 1.06662 26.7216 1.06662 26.1333C1.06662 25.545 1.545 25.0666 2.13331 25.0666C2.72156 25.0666 3.2 25.545 3.2 26.1333C3.2 26.7216 2.72162 27.2 2.13331 27.2Z" fill="black" fill-opacity="0.25"/>
<path d="M28.8325 7.07397L24.2314 4.85265C23.9658 4.72409 23.6474 4.83609 23.5194 5.10121C23.3914 5.36628 23.5028 5.68521 23.768 5.81321L28.369 8.03453C28.4437 8.07078 28.5226 8.08784 28.6005 8.08784C28.7988 8.08784 28.9893 7.97691 29.081 7.78597C29.209 7.52091 29.0975 7.20197 28.8325 7.07397Z" fill="black" fill-opacity="0.25"/>
<path d="M24 27.7334C22.8234 27.7334 21.8667 28.6902 21.8667 29.8667C21.8667 31.0432 22.8234 32.0001 24 32.0001C25.1766 32.0001 26.1333 31.0433 26.1333 29.8668C26.1333 28.6903 25.1766 27.7334 24 27.7334ZM24 30.9334C23.4118 30.9334 22.9333 30.455 22.9333 29.8667C22.9333 29.2784 23.4118 28.8001 24 28.8001C24.5883 28.8001 25.0667 29.2785 25.0667 29.8668C25.0667 30.4551 24.5883 30.9334 24 30.9334Z" fill="black" fill-opacity="0.25"/>
<path d="M22.9658 28.4075L18.3647 26.1862C18.0991 26.0577 17.7807 26.1692 17.6527 26.4348C17.5247 26.6999 17.6361 27.0188 17.9013 27.1468L22.5023 29.3681C22.577 29.4044 22.656 29.4214 22.7338 29.4214C22.9321 29.4214 23.1226 29.3105 23.2143 29.1195C23.3423 28.8544 23.2308 28.5355 22.9658 28.4075Z" fill="black" fill-opacity="0.25"/>
<path d="M16 14.3999C14.8234 14.3999 13.8667 15.3567 13.8667 16.5332C13.8667 17.7098 14.8235 18.6665 16 18.6665C17.1766 18.6665 18.1333 17.7097 18.1333 16.5332C18.1333 15.3567 17.1766 14.3999 16 14.3999ZM16 17.5999C15.4118 17.5999 14.9333 17.1215 14.9333 16.5332C14.9333 15.945 15.4117 15.4665 16 15.4665C16.5883 15.4665 17.0667 15.9449 17.0667 16.5332C17.0667 17.1215 16.5883 17.5999 16 17.5999Z" fill="black" fill-opacity="0.25"/>
<path d="M15.0623 15.134L11.528 12.3793C11.2954 12.1995 10.9605 12.2395 10.7792 12.4721C10.5983 12.7047 10.6394 13.0395 10.872 13.2209L14.4063 15.9756C14.504 16.0513 14.6192 16.0882 14.7339 16.0882C14.8928 16.0882 15.0496 16.0178 15.1552 15.8828C15.336 15.6502 15.2949 15.3153 15.0623 15.134Z" fill="black" fill-opacity="0.25"/>
<path d="M25.6001 13.8667C22.3654 13.8667 19.7334 16.4987 19.7334 19.7334C19.7334 22.9681 22.3654 25.6001 25.6001 25.6001C28.8348 25.6001 31.4668 22.9681 31.4668 19.7334C31.4668 16.4987 28.8348 13.8667 25.6001 13.8667ZM25.6001 24.5333C22.9531 24.5333 20.8001 22.3803 20.8001 19.7333C20.8001 17.0864 22.9531 14.9333 25.6001 14.9333C28.247 14.9333 30.4001 17.0864 30.4001 19.7333C30.4001 22.3803 28.247 24.5333 25.6001 24.5333Z" fill="black" fill-opacity="0.25"/>
<path d="M25.6001 16C24.4235 16 23.4668 16.9568 23.4668 18.1333C23.4668 19.3099 24.4236 20.2666 25.6001 20.2666C26.7767 20.2666 27.7334 19.3098 27.7334 18.1333C27.7334 16.9568 26.7767 16 25.6001 16ZM25.6001 19.2C25.0119 19.2 24.5334 18.7216 24.5334 18.1333C24.5334 17.5451 25.0118 17.0666 25.6001 17.0666C26.1884 17.0666 26.6668 17.545 26.6668 18.1333C26.6668 18.7216 26.1884 19.2 25.6001 19.2Z" fill="black" fill-opacity="0.25"/>
<path d="M27.1471 21.3335H24.0527C23.1413 21.3335 22.3999 22.0551 22.3999 22.9415V24.3474C22.3999 24.5377 22.5012 24.7137 22.666 24.8092C23.5599 25.3266 24.5743 25.6002 25.5999 25.6002C26.6255 25.6002 27.6399 25.3266 28.5338 24.8092C28.6986 24.7143 28.7999 24.5377 28.7999 24.3479V22.9421C28.7999 22.0551 28.0586 21.3335 27.1471 21.3335ZM27.7332 24.0295C26.4058 24.6908 24.794 24.6908 23.4665 24.0295V22.9421C23.4665 22.6434 23.7295 22.4002 24.0527 22.4002H27.147C27.4702 22.4002 27.7332 22.6434 27.7332 22.9421V24.0295H27.7332Z" fill="black" fill-opacity="0.25"/>
<path d="M12.7998 20.2666C9.5651 20.2666 6.93311 22.8986 6.93311 26.1333C6.93311 29.368 9.5651 31.9999 12.7998 31.9999C16.0345 31.9999 18.6665 29.3679 18.6665 26.1332C18.6665 22.8985 16.0345 20.2666 12.7998 20.2666ZM12.7998 30.9332C10.1529 30.9332 7.99979 28.7802 7.99979 26.1332C7.99979 23.4863 10.1529 21.3332 12.7998 21.3332C15.4467 21.3332 17.5998 23.4863 17.5998 26.1332C17.5998 28.7802 15.4467 30.9332 12.7998 30.9332Z" fill="black" fill-opacity="0.25"/>
<path d="M12.7998 22.3999C11.6233 22.3999 10.6665 23.3567 10.6665 24.5332C10.6665 25.7098 11.6233 26.6665 12.7998 26.6665C13.9763 26.6665 14.9331 25.7097 14.9331 24.5332C14.9331 23.3567 13.9764 22.3999 12.7998 22.3999ZM12.7998 25.5999C12.2116 25.5999 11.7331 25.1215 11.7331 24.5332C11.7331 23.945 12.2115 23.4665 12.7998 23.4665C13.3881 23.4665 13.8665 23.9449 13.8665 24.5332C13.8665 25.1215 13.3881 25.5999 12.7998 25.5999Z" fill="black" fill-opacity="0.25"/>
<path d="M14.3473 27.7334H11.2529C10.3415 27.7334 9.6001 28.455 9.6001 29.3414V30.7473C9.6001 30.9377 9.70141 31.1137 9.86622 31.2092C10.7601 31.7265 11.7745 32.0001 12.8001 32.0001C13.8257 32.0001 14.8401 31.7265 15.734 31.2092C15.8988 31.1142 16.0001 30.9377 16.0001 30.7479V29.342C16.0001 28.455 15.2588 27.7334 14.3473 27.7334ZM14.9334 30.4294C13.6059 31.0907 11.9942 31.0907 10.6667 30.4294V29.342C10.6667 29.0433 10.9297 28.8001 11.2528 28.8001H14.3472C14.6704 28.8001 14.9333 29.0433 14.9333 29.342V30.4294H14.9334Z" fill="black" fill-opacity="0.25"/>
<path d="M5.86669 6.93311C2.632 6.93311 0 9.5651 0 12.7998C0 16.0345 2.632 18.6665 5.86669 18.6665C9.10137 18.6665 11.7334 16.0345 11.7334 12.7998C11.7333 9.5651 9.10131 6.93311 5.86669 6.93311ZM5.86669 17.5998C3.21975 17.5998 1.06669 15.4467 1.06669 12.7998C1.06669 10.1529 3.21975 7.99979 5.86669 7.99979C8.51363 7.99979 10.6667 10.1529 10.6667 12.7998C10.6667 15.4467 8.51363 17.5998 5.86669 17.5998Z" fill="black" fill-opacity="0.25"/>
<path d="M5.86671 9.06689C4.69015 9.06689 3.7334 10.0237 3.7334 11.2002C3.7334 12.3767 4.69021 13.3335 5.86671 13.3335C7.04328 13.3335 8.00003 12.3767 8.00003 11.2002C8.00003 10.0237 7.04322 9.06689 5.86671 9.06689ZM5.86671 12.2669C5.27846 12.2669 4.80003 11.7885 4.80003 11.2002C4.80003 10.6119 5.2784 10.1335 5.86671 10.1335C6.45497 10.1335 6.9334 10.6119 6.9334 11.2002C6.9334 11.7885 6.45497 12.2669 5.86671 12.2669Z" fill="black" fill-opacity="0.25"/>
<path d="M7.4137 14.3999H4.31932C3.40788 14.3999 2.6665 15.1215 2.6665 16.0079V17.4138C2.6665 17.6042 2.76782 17.7802 2.93263 17.8757C3.82651 18.393 4.84088 18.6666 5.86651 18.6666C6.89213 18.6666 7.90651 18.393 8.80039 17.8757C8.9652 17.7807 9.06651 17.6042 9.06651 17.4143V16.0085C9.06651 15.1215 8.32514 14.3999 7.4137 14.3999ZM7.99982 17.0959C6.67238 17.7572 5.06063 17.7572 3.73313 17.0959V16.0085C3.73313 15.7098 3.99607 15.4666 4.31926 15.4666H7.41363C7.73682 15.4666 7.99976 15.7098 7.99976 16.0085V17.0959H7.99982Z" fill="black" fill-opacity="0.25"/>
<path d="M18.6665 0C15.4318 0 12.7998 2.632 12.7998 5.86669C12.7998 9.10137 15.4318 11.7334 18.6665 11.7334C21.9012 11.7334 24.5332 9.10137 24.5332 5.86669C24.5331 2.632 21.9011 0 18.6665 0ZM18.6665 10.6667C16.0196 10.6667 13.8665 8.51363 13.8665 5.86669C13.8665 3.21975 16.0196 1.06669 18.6665 1.06669C21.3134 1.06669 23.4665 3.21975 23.4665 5.86669C23.4665 8.51363 21.3134 10.6667 18.6665 10.6667Z" fill="black" fill-opacity="0.25"/>
<path d="M18.6665 2.1333C17.49 2.1333 16.5332 3.09011 16.5332 4.26661C16.5332 5.44311 17.49 6.39993 18.6665 6.39993C19.843 6.39993 20.7998 5.44318 20.7998 4.26668C20.7998 3.09018 19.843 2.1333 18.6665 2.1333ZM18.6665 5.3333C18.0783 5.3333 17.5998 4.85493 17.5998 4.26661C17.5998 3.67836 18.0782 3.19993 18.6665 3.19993C19.2548 3.19993 19.7332 3.6783 19.7332 4.26661C19.7331 4.85493 19.2548 5.3333 18.6665 5.3333Z" fill="black" fill-opacity="0.25"/>
<path d="M20.214 7.4668H17.1196C16.2082 7.4668 15.4668 8.18842 15.4668 9.07479V10.4807C15.4668 10.671 15.5681 10.847 15.7329 10.9425C16.6268 11.4599 17.6412 11.7335 18.6668 11.7335C19.6924 11.7335 20.7068 11.4599 21.6007 10.9425C21.7655 10.8476 21.8668 10.671 21.8668 10.4812V9.07536C21.8668 8.18836 21.1254 7.4668 20.214 7.4668ZM20.8001 10.1628C19.4727 10.8241 17.8609 10.8241 16.5334 10.1628V9.07536C16.5334 8.77667 16.7964 8.53348 17.1195 8.53348H20.2139C20.5371 8.53348 20.8 8.77667 20.8 9.07536V10.1628H20.8001Z" fill="black" fill-opacity="0.25"/>
<path d="M13.7393 5.5196C13.5478 5.29666 13.2113 5.26997 12.9873 5.46147L9.29125 8.62416C9.06725 8.8156 9.04112 9.15217 9.23256 9.37617C9.33818 9.49935 9.4875 9.56285 9.63787 9.56285C9.76056 9.56285 9.88375 9.52073 9.98456 9.43429L13.6806 6.2716C13.9046 6.08016 13.9308 5.7436 13.7393 5.5196Z" fill="black" fill-opacity="0.25"/>
<path d="M25.4935 14.0805L22.2935 9.81383C22.1169 9.57758 21.7826 9.53114 21.5468 9.70714C21.3111 9.8837 21.2636 10.2181 21.4401 10.4533L24.6401 14.72C24.7452 14.8597 24.9052 14.9333 25.0673 14.9333C25.1782 14.9333 25.2908 14.8986 25.3868 14.8266C25.6226 14.6501 25.67 14.3157 25.4935 14.0805Z" fill="black" fill-opacity="0.25"/>
<path d="M21.1164 21.497C20.9399 21.2613 20.6055 21.2138 20.3697 21.3903L17.3906 23.6244C17.1548 23.801 17.1074 24.1354 17.2839 24.3706C17.3889 24.5103 17.5489 24.5839 17.7111 24.5839C17.8225 24.5839 17.9345 24.5487 18.0306 24.4772L21.0097 22.2431C21.2455 22.0666 21.293 21.7322 21.1164 21.497Z" fill="black" fill-opacity="0.25"/>
<path d="M7.46688 25.6001H3.73351C3.43913 25.6001 3.2002 25.8385 3.2002 26.1334C3.2002 26.4283 3.43913 26.6667 3.73351 26.6667H7.46682C7.7612 26.6667 8.00013 26.4283 8.00013 26.1334C8.00013 25.8385 7.76126 25.6001 7.46688 25.6001Z" fill="black" fill-opacity="0.25"/>
<path d="M5.86677 0C4.69021 0 3.7334 0.956813 3.7334 2.13331C3.7334 3.30988 4.69021 4.26662 5.86671 4.26662C7.04327 4.26662 8.00002 3.30981 8.00002 2.13331C8.00009 0.956813 7.04327 0 5.86677 0ZM5.86677 3.2C5.27852 3.2 4.80009 2.72162 4.80009 2.13331C4.80009 1.54506 5.27846 1.06662 5.86677 1.06662C6.45502 1.06662 6.93346 1.545 6.93346 2.13331C6.9334 2.72162 6.45502 3.2 5.86677 3.2Z" fill="black" fill-opacity="0.25"/>
<path d="M5.86681 3.2002C5.57243 3.2002 5.3335 3.43857 5.3335 3.73351V7.46682C5.3335 7.76176 5.57243 8.00013 5.86681 8.00013C6.16118 8.00013 6.40012 7.76176 6.40012 7.46682V3.73351C6.40012 3.43857 6.16118 3.2002 5.86681 3.2002Z" fill="black" fill-opacity="0.25"/>
</g>
<defs>
<clipPath id="clip0">
<rect width="32" height="32" fill="white"/>
</clipPath>
</defs>
</svg>
