<svg width="32" height="32" viewBox="0 0 32 32" fill="none" xmlns="http://www.w3.org/2000/svg">
<g clip-path="url(#clip0)">
<path d="M29.8667 6.39996C28.6901 6.39996 27.7334 7.35678 27.7334 8.53328C27.7334 9.70978 28.6902 10.6666 29.8667 10.6666C31.0432 10.6666 32 9.70984 32 8.53328C32 7.35678 31.0432 6.39996 29.8667 6.39996ZM29.8667 9.59997C29.2785 9.59997 28.8 9.12159 28.8 8.53328C28.8 7.94503 29.2784 7.46659 29.8667 7.46659C30.455 7.46659 30.9334 7.94497 30.9334 8.53328C30.9333 9.12159 30.455 9.59997 29.8667 9.59997Z" fill="white"/>
<path d="M2.13331 24C0.956813 24 0 24.9568 0 26.1333C0 27.3098 0.956813 28.2666 2.13331 28.2666C3.30988 28.2666 4.26662 27.3098 4.26662 26.1333C4.26662 24.9568 3.30988 24 2.13331 24ZM2.13331 27.2C1.54506 27.2 1.06662 26.7216 1.06662 26.1333C1.06662 25.545 1.545 25.0666 2.13331 25.0666C2.72156 25.0666 3.2 25.545 3.2 26.1333C3.2 26.7216 2.72162 27.2 2.13331 27.2Z" fill="white"/>
<path d="M28.8325 7.07415L24.2314 4.85283C23.9658 4.72427 23.6474 4.83627 23.5194 5.1014C23.3914 5.36646 23.5028 5.6854 23.768 5.8134L28.369 8.03471C28.4437 8.07096 28.5226 8.08803 28.6005 8.08803C28.7988 8.08803 28.9893 7.97709 29.081 7.78615C29.209 7.52109 29.0975 7.20215 28.8325 7.07415Z" fill="white"/>
<path d="M24 27.7333C22.8234 27.7333 21.8667 28.6901 21.8667 29.8666C21.8667 31.0431 22.8234 32 24 32C25.1766 32 26.1333 31.0432 26.1333 29.8667C26.1333 28.6902 25.1766 27.7333 24 27.7333ZM24 30.9333C23.4118 30.9333 22.9333 30.4549 22.9333 29.8666C22.9333 29.2783 23.4118 28.8 24 28.8C24.5883 28.8 25.0667 29.2783 25.0667 29.8667C25.0667 30.455 24.5883 30.9333 24 30.9333Z" fill="white"/>
<path d="M22.9658 28.4075L18.3647 26.1862C18.0991 26.0577 17.7807 26.1692 17.6527 26.4348C17.5247 26.6999 17.6361 27.0188 17.9013 27.1468L22.5023 29.3681C22.577 29.4044 22.656 29.4214 22.7338 29.4214C22.9321 29.4214 23.1226 29.3105 23.2143 29.1195C23.3423 28.8544 23.2308 28.5355 22.9658 28.4075Z" fill="white"/>
<path d="M16 14.4C14.8234 14.4 13.8667 15.3568 13.8667 16.5333C13.8667 17.7098 14.8235 18.6666 16 18.6666C17.1766 18.6666 18.1333 17.7098 18.1333 16.5333C18.1333 15.3568 17.1766 14.4 16 14.4ZM16 17.6C15.4118 17.6 14.9333 17.1216 14.9333 16.5333C14.9333 15.945 15.4117 15.4666 16 15.4666C16.5883 15.4666 17.0667 15.945 17.0667 16.5333C17.0667 17.1216 16.5883 17.6 16 17.6Z" fill="white"/>
<path d="M15.0623 15.1338L11.528 12.3791C11.2954 12.1994 10.9605 12.2394 10.7792 12.472C10.5983 12.7045 10.6394 13.0394 10.872 13.2208L14.4063 15.9754C14.504 16.0512 14.6192 16.088 14.7339 16.088C14.8928 16.088 15.0496 16.0176 15.1552 15.8827C15.336 15.6501 15.2949 15.3151 15.0623 15.1338Z" fill="white"/>
<path d="M25.6001 13.8668C22.3654 13.8668 19.7334 16.4988 19.7334 19.7334C19.7334 22.9681 22.3654 25.6001 25.6001 25.6001C28.8348 25.6001 31.4668 22.9681 31.4668 19.7334C31.4668 16.4988 28.8348 13.8668 25.6001 13.8668ZM25.6001 24.5334C22.9531 24.5334 20.8001 22.3803 20.8001 19.7334C20.8001 17.0864 22.9531 14.9334 25.6001 14.9334C28.247 14.9334 30.4001 17.0864 30.4001 19.7334C30.4001 22.3803 28.247 24.5334 25.6001 24.5334Z" fill="white"/>
<path d="M25.6001 16C24.4235 16 23.4668 16.9568 23.4668 18.1333C23.4668 19.3099 24.4236 20.2666 25.6001 20.2666C26.7767 20.2666 27.7334 19.3098 27.7334 18.1333C27.7334 16.9568 26.7767 16 25.6001 16ZM25.6001 19.2C25.0119 19.2 24.5334 18.7216 24.5334 18.1333C24.5334 17.5451 25.0118 17.0666 25.6001 17.0666C26.1884 17.0666 26.6668 17.545 26.6668 18.1333C26.6668 18.7216 26.1884 19.2 25.6001 19.2Z" fill="white"/>
<path d="M27.1471 21.3333H24.0527C23.1413 21.3333 22.3999 22.0549 22.3999 22.9413V24.3472C22.3999 24.5376 22.5012 24.7136 22.666 24.8091C23.5599 25.3264 24.5743 25.6 25.5999 25.6C26.6255 25.6 27.6399 25.3264 28.5338 24.8091C28.6986 24.7141 28.7999 24.5376 28.7999 24.3477V22.9419C28.7999 22.0549 28.0586 21.3333 27.1471 21.3333ZM27.7332 24.0293C26.4058 24.6906 24.794 24.6906 23.4665 24.0293V22.9419C23.4665 22.6432 23.7295 22.4 24.0527 22.4H27.147C27.4702 22.4 27.7332 22.6432 27.7332 22.9419V24.0293H27.7332Z" fill="white"/>
<path d="M12.7998 20.2667C9.5651 20.2667 6.93311 22.8987 6.93311 26.1334C6.93311 29.3681 9.5651 32 12.7998 32C16.0345 32 18.6665 29.368 18.6665 26.1333C18.6665 22.8987 16.0345 20.2667 12.7998 20.2667ZM12.7998 30.9334C10.1529 30.9334 7.99979 28.7803 7.99979 26.1333C7.99979 23.4864 10.1529 21.3333 12.7998 21.3333C15.4467 21.3333 17.5998 23.4864 17.5998 26.1333C17.5998 28.7803 15.4467 30.9334 12.7998 30.9334Z" fill="white"/>
<path d="M12.7998 22.4C11.6233 22.4 10.6665 23.3568 10.6665 24.5333C10.6665 25.7098 11.6233 26.6666 12.7998 26.6666C13.9763 26.6666 14.9331 25.7098 14.9331 24.5333C14.9331 23.3568 13.9764 22.4 12.7998 22.4ZM12.7998 25.6C12.2116 25.6 11.7331 25.1216 11.7331 24.5333C11.7331 23.945 12.2115 23.4666 12.7998 23.4666C13.3881 23.4666 13.8665 23.945 13.8665 24.5333C13.8665 25.1216 13.3881 25.6 12.7998 25.6Z" fill="white"/>
<path d="M14.3473 27.7333H11.2529C10.3415 27.7333 9.6001 28.4549 9.6001 29.3413V30.7472C9.6001 30.9375 9.70141 31.1135 9.86622 31.209C10.7601 31.7264 11.7745 32 12.8001 32C13.8257 32 14.8401 31.7264 15.734 31.209C15.8988 31.1141 16.0001 30.9376 16.0001 30.7477V29.3418C16.0001 28.4549 15.2588 27.7333 14.3473 27.7333ZM14.9334 30.4293C13.6059 31.0906 11.9942 31.0906 10.6667 30.4293V29.3418C10.6667 29.0432 10.9297 28.8 11.2528 28.8H14.3472C14.6704 28.8 14.9333 29.0432 14.9333 29.3418V30.4293H14.9334Z" fill="white"/>
<path d="M5.86669 6.93332C2.632 6.93332 0 9.56532 0 12.8C0 16.0347 2.632 18.6667 5.86669 18.6667C9.10137 18.6667 11.7334 16.0347 11.7334 12.8C11.7333 9.56532 9.10131 6.93332 5.86669 6.93332ZM5.86669 17.6C3.21975 17.6 1.06669 15.4469 1.06669 12.8C1.06669 10.1531 3.21975 8.00001 5.86669 8.00001C8.51363 8.00001 10.6667 10.1531 10.6667 12.8C10.6667 15.4469 8.51363 17.6 5.86669 17.6Z" fill="white"/>
<path d="M5.86671 9.06668C4.69015 9.06668 3.7334 10.0235 3.7334 11.2C3.7334 12.3765 4.69021 13.3333 5.86671 13.3333C7.04328 13.3333 8.00003 12.3765 8.00003 11.2C8.00003 10.0235 7.04322 9.06668 5.86671 9.06668ZM5.86671 12.2667C5.27846 12.2667 4.80003 11.7883 4.80003 11.2C4.80003 10.6117 5.2784 10.1333 5.86671 10.1333C6.45497 10.1333 6.9334 10.6117 6.9334 11.2C6.9334 11.7883 6.45497 12.2667 5.86671 12.2667Z" fill="white"/>
<path d="M7.4137 14.4H4.31932C3.40788 14.4 2.6665 15.1216 2.6665 16.008V17.4138C2.6665 17.6042 2.76782 17.7802 2.93263 17.8757C3.82651 18.393 4.84088 18.6667 5.86651 18.6667C6.89213 18.6667 7.90651 18.393 8.80039 17.8757C8.9652 17.7808 9.06651 17.6042 9.06651 17.4144V16.0085C9.06651 15.1216 8.32514 14.4 7.4137 14.4ZM7.99982 17.096C6.67238 17.7573 5.06063 17.7573 3.73313 17.096V16.0085C3.73313 15.7098 3.99607 15.4667 4.31926 15.4667H7.41363C7.73682 15.4667 7.99976 15.7098 7.99976 16.0085V17.096H7.99982Z" fill="white"/>
<path d="M18.6665 0C15.4318 0 12.7998 2.632 12.7998 5.86669C12.7998 9.10137 15.4318 11.7334 18.6665 11.7334C21.9012 11.7334 24.5332 9.10137 24.5332 5.86669C24.5331 2.632 21.9011 0 18.6665 0ZM18.6665 10.6667C16.0196 10.6667 13.8665 8.51363 13.8665 5.86669C13.8665 3.21975 16.0196 1.06669 18.6665 1.06669C21.3134 1.06669 23.4665 3.21975 23.4665 5.86669C23.4665 8.51363 21.3134 10.6667 18.6665 10.6667Z" fill="white"/>
<path d="M18.6665 2.1333C17.49 2.1333 16.5332 3.09011 16.5332 4.26661C16.5332 5.44311 17.49 6.39993 18.6665 6.39993C19.843 6.39993 20.7998 5.44318 20.7998 4.26668C20.7998 3.09018 19.843 2.1333 18.6665 2.1333ZM18.6665 5.3333C18.0783 5.3333 17.5998 4.85493 17.5998 4.26661C17.5998 3.67836 18.0782 3.19993 18.6665 3.19993C19.2548 3.19993 19.7332 3.6783 19.7332 4.26661C19.7331 4.85493 19.2548 5.3333 18.6665 5.3333Z" fill="white"/>
<path d="M20.214 7.46664H17.1196C16.2082 7.46664 15.4668 8.18827 15.4668 9.07464V10.4805C15.4668 10.6709 15.5681 10.8469 15.7329 10.9424C16.6268 11.4597 17.6412 11.7333 18.6668 11.7333C19.6924 11.7333 20.7068 11.4597 21.6007 10.9424C21.7655 10.8475 21.8668 10.6709 21.8668 10.4811V9.0752C21.8668 8.18821 21.1254 7.46664 20.214 7.46664ZM20.8001 10.1626C19.4727 10.824 17.8609 10.824 16.5334 10.1626V9.0752C16.5334 8.77652 16.7964 8.53333 17.1195 8.53333H20.2139C20.5371 8.53333 20.8 8.77652 20.8 9.0752V10.1626H20.8001Z" fill="white"/>
<path d="M13.7393 5.51944C13.5478 5.29651 13.2113 5.26982 12.9873 5.46132L9.29125 8.62401C9.06725 8.81545 9.04112 9.15201 9.23256 9.37601C9.33818 9.4992 9.4875 9.5627 9.63787 9.5627C9.76056 9.5627 9.88375 9.52058 9.98456 9.43414L13.6806 6.27145C13.9046 6.08001 13.9308 5.74345 13.7393 5.51944Z" fill="white"/>
<path d="M25.4935 14.0806L22.2935 9.81389C22.1169 9.57764 21.7826 9.5312 21.5468 9.7072C21.3111 9.88377 21.2636 10.2181 21.4401 10.4533L24.6401 14.72C24.7452 14.8598 24.9052 14.9333 25.0673 14.9333C25.1782 14.9333 25.2908 14.8986 25.3868 14.8266C25.6226 14.6501 25.67 14.3158 25.4935 14.0806Z" fill="white"/>
<path d="M21.1164 21.4971C20.9399 21.2613 20.6055 21.2139 20.3697 21.3904L17.3906 23.6245C17.1548 23.8011 17.1074 24.1354 17.2839 24.3706C17.3889 24.5104 17.5489 24.5839 17.7111 24.5839C17.8225 24.5839 17.9345 24.5487 18.0306 24.4772L21.0097 22.2431C21.2455 22.0667 21.293 21.7323 21.1164 21.4971Z" fill="white"/>
<path d="M7.46688 25.6H3.73351C3.43913 25.6 3.2002 25.8384 3.2002 26.1333C3.2002 26.4283 3.43913 26.6667 3.73351 26.6667H7.46682C7.7612 26.6667 8.00013 26.4283 8.00013 26.1333C8.00013 25.8384 7.76126 25.6 7.46688 25.6Z" fill="white"/>
<path d="M5.86677 0C4.69021 0 3.7334 0.956813 3.7334 2.13331C3.7334 3.30988 4.69021 4.26662 5.86671 4.26662C7.04327 4.26662 8.00002 3.30981 8.00002 2.13331C8.00009 0.956813 7.04327 0 5.86677 0ZM5.86677 3.2C5.27852 3.2 4.80009 2.72162 4.80009 2.13331C4.80009 1.54506 5.27846 1.06662 5.86677 1.06662C6.45502 1.06662 6.93346 1.545 6.93346 2.13331C6.9334 2.72162 6.45502 3.2 5.86677 3.2Z" fill="white"/>
<path d="M5.86681 3.19998C5.57243 3.19998 5.3335 3.43836 5.3335 3.73329V7.46661C5.3335 7.76154 5.57243 7.99992 5.86681 7.99992C6.16118 7.99992 6.40012 7.76154 6.40012 7.46661V3.73329C6.40012 3.43836 6.16118 3.19998 5.86681 3.19998Z" fill="white"/>
</g>
<defs>
<clipPath id="clip0">
<rect width="32" height="32" fill="white"/>
</clipPath>
</defs>
</svg>
