<svg width="50" height="50" viewBox="0 0 50 50" fill="none" xmlns="http://www.w3.org/2000/svg">
<path d="M48.0859 21.6665L45.672 16.3384C44.8016 14.446 42.9108 13.2321 40.8279 13.229H6.19537C3.6377 13.2318 1.56525 15.3042 1.5625 17.8622V29.4399C1.5625 30.8422 2.69928 31.979 4.10156 31.979H7.89062C8.2605 33.8 9.86084 35.108 11.7188 35.108C13.5767 35.108 15.177 33.8 15.5469 31.979H34.4531C34.823 33.8 36.4233 35.108 38.2812 35.108C40.1392 35.108 41.7395 33.8 42.1094 31.979H46.2659C47.2305 31.9787 48.0798 31.3424 48.3517 30.4165C48.4082 30.2181 48.4369 30.0134 48.4375 29.8074V23.2839C48.4372 22.7258 48.3173 22.1743 48.0859 21.6665ZM5.46875 22.604C5.03723 22.604 4.6875 22.2543 4.6875 21.8228V15.5728C4.6875 15.1415 5.03723 14.7915 5.46875 14.7915H10.9375C11.369 14.7915 11.7188 15.1415 11.7188 15.5728V21.8228C11.7188 22.2543 11.369 22.604 10.9375 22.604H5.46875ZM11.7188 33.5415C10.4245 33.5415 9.375 32.4923 9.375 31.1978C9.375 29.9035 10.4245 28.854 11.7188 28.854C13.013 28.854 14.0625 29.9035 14.0625 31.1978C14.0588 32.4908 13.0115 33.5378 11.7188 33.5415ZM20.3125 21.8228C20.3125 22.2543 19.9628 22.604 19.5312 22.604H14.0625C13.631 22.604 13.2812 22.2543 13.2812 21.8228V15.5728C13.2812 15.1415 13.631 14.7915 14.0625 14.7915H19.5312C19.9628 14.7915 20.3125 15.1415 20.3125 15.5728V21.8228ZM28.9062 21.8228C28.9062 22.2543 28.5565 22.604 28.125 22.604H22.6562C22.2247 22.604 21.875 22.2543 21.875 21.8228V15.5728C21.875 15.1415 22.2247 14.7915 22.6562 14.7915H28.125C28.5565 14.7915 28.9062 15.1415 28.9062 15.5728V21.8228ZM31.25 22.604C30.8185 22.604 30.4688 22.2543 30.4688 21.8228V15.5728C30.4688 15.1415 30.8185 14.7915 31.25 14.7915H36.7188C37.1503 14.7915 37.5 15.1415 37.5 15.5728V21.8228C37.5 22.2543 37.1503 22.604 36.7188 22.604H31.25ZM38.2812 33.5415C36.987 33.5415 35.9375 32.4923 35.9375 31.1978C35.9375 29.9035 36.987 28.854 38.2812 28.854C39.5755 28.854 40.625 29.9035 40.625 31.1978C40.6213 32.4908 39.574 33.5378 38.2812 33.5415ZM39.7812 22.604C39.3762 22.568 39.0649 22.2296 39.0625 21.8228V15.566C39.0625 15.1385 39.4092 14.7915 39.837 14.7915H40.8279C42.2986 14.7955 43.6337 15.6518 44.2502 16.9869L46.6641 22.315C46.7902 22.5927 46.8594 22.893 46.8674 23.1976L39.7812 22.604Z" fill="black" fill-opacity="0.25"/>
</svg>
