<svg width="24" height="24" viewBox="0 0 24 24" fill="none" xmlns="http://www.w3.org/2000/svg">
<path d="M19.9022 2.59972H19.1791V1.81085C19.1791 0.811919 18.3909 0 17.421 0C16.4504 0 15.6628 0.811919 15.6628 1.81085V2.59906H13.8585V1.81085C13.8585 0.811919 13.0703 0 12.1004 0C11.1304 0 10.3422 0.811919 10.3422 1.81085V2.59906H8.53793V1.81085C8.53793 0.811919 7.74972 0 6.77976 0C5.80981 0 5.02159 0.811919 5.02159 1.81085V2.59906H4.09839C2.55555 2.59906 1.2998 3.8548 1.2998 5.39765V21.2014C1.2998 22.7443 2.55555 24 4.09839 24H19.9022C21.4457 24 22.7007 22.7443 22.7007 21.2014V5.39765C22.7007 3.85546 21.445 2.59972 19.9022 2.59972ZM16.6505 1.81085C16.6505 1.35715 16.9962 0.987736 17.421 0.987736C17.8464 0.987736 18.1914 1.35715 18.1914 1.81085V5.03482C18.1914 5.48852 17.8464 5.85793 17.421 5.85793C16.9962 5.85793 16.6505 5.48852 16.6505 5.03482V1.81085ZM11.3299 1.81085C11.3299 1.35715 11.6756 0.987736 12.1004 0.987736C12.5251 0.987736 12.8708 1.35715 12.8708 1.81085V5.03482C12.8708 5.48852 12.5251 5.85793 12.1004 5.85793C11.6756 5.85793 11.3299 5.48852 11.3299 5.03482V1.81085ZM6.00867 1.81085C6.00867 1.35715 6.35438 0.987736 6.7791 0.987736C7.20383 0.987736 7.54954 1.35715 7.54954 1.81085V5.03482C7.54954 5.48852 7.20383 5.85793 6.7791 5.85793C6.35438 5.85793 6.00867 5.48852 6.00867 5.03482V1.81085ZM21.0545 21.2021C21.0545 21.8375 20.5376 22.3544 19.9022 22.3544H4.09839C3.46295 22.3544 2.94603 21.8375 2.94603 21.2021V6.71529H21.0545V21.2021Z" fill="black" fill-opacity="0.5"/>
<path d="M7.4535 9.6311H4.42773V12.3237H7.4535V9.6311Z" fill="black" fill-opacity="0.5"/>
<path d="M11.4922 9.6311H8.46582V12.3237H11.4922V9.6311Z" fill="black" fill-opacity="0.5"/>
<path d="M15.5336 9.6311H12.5078V12.3237H15.5336V9.6311Z" fill="black" fill-opacity="0.5"/>
<path d="M19.5733 9.6311H16.5469V12.3237H19.5733V9.6311Z" fill="black" fill-opacity="0.5"/>
<path d="M7.4535 13.2251H4.42773V15.9157H7.4535V13.2251Z" fill="black" fill-opacity="0.5"/>
<path d="M11.4922 13.2251H8.46582V15.9157H11.4922V13.2251Z" fill="black" fill-opacity="0.5"/>
<path d="M15.5336 13.2251H12.5078V15.9157H15.5336V13.2251Z" fill="black" fill-opacity="0.5"/>
<path d="M19.5733 13.2251H16.5469V15.9157H19.5733V13.2251Z" fill="black" fill-opacity="0.5"/>
<path d="M7.4535 16.8178H4.42773V19.5084H7.4535V16.8178Z" fill="black" fill-opacity="0.5"/>
<path d="M11.4922 16.8178H8.46582V19.5084H11.4922V16.8178Z" fill="black" fill-opacity="0.5"/>
<path d="M15.5336 16.8178H12.5078V19.5084H15.5336V16.8178Z" fill="black" fill-opacity="0.5"/>
<path d="M19.5733 16.8178H16.5469V19.5084H19.5733V16.8178Z" fill="black" fill-opacity="0.5"/>
</svg>
