<svg width="44" height="44" viewBox="0 0 44 44" fill="none" xmlns="http://www.w3.org/2000/svg">
<path d="M22 0C9.8 0 0 9.8 0 22C0 34.2 9.8 44 22 44C34.2 44 44 34.2 44 22C44 9.8 34.2 0 22 0ZM34.7 15.1L18.7 31.7C18.5 31.9 18.3 32 18 32C17.7 32 17.4 31.9 17.3 31.7L9.5 23.3L9.3 23.1C9.1 22.9 9 22.6 9 22.4C9 22.2 9.1 21.9 9.3 21.7L10.7 20.3C11.1 19.9 11.7 19.9 12.1 20.3L12.2 20.4L17.7 26.3C17.9 26.5 18.2 26.5 18.4 26.3L31.8 12.4H31.9C32.3 12 32.9 12 33.3 12.4L34.7 13.8C35.1 14.1 35.1 14.7 34.7 15.1Z" fill="#053C69"/>
</svg>
