<svg width="32" height="32" viewBox="0 0 32 32" fill="none" xmlns="http://www.w3.org/2000/svg">
<path d="M15.9471 32L18.6605 26.3022L13.3394 26.3101L15.9471 32Z" fill="black" fill-opacity="0.25"/>
<path d="M0.739258 0V24.9714H31.2607V0H0.739258ZM29.2787 22.99H2.72131V1.98205H29.2787V22.99Z" fill="black" fill-opacity="0.25"/>
<path d="M9.41798 11.7302L5.85303 15.4398V21.6995C5.85303 21.8755 5.99597 22.0188 6.17234 22.0188H10.5008C10.6771 22.0188 10.8201 21.8759 10.8201 21.6995V12.0973L9.8219 11.7302H9.41798Z" fill="black" fill-opacity="0.25"/>
<path d="M18.2342 14.6395H13.9061C13.7294 14.6395 13.5864 14.7825 13.5864 14.9588V21.6992C13.5864 21.8755 13.7294 22.0188 13.9061 22.0188H18.2342C18.4105 22.0188 18.5535 21.8759 18.5535 21.6992V14.9585C18.5535 14.7825 18.4105 14.6395 18.2342 14.6395Z" fill="black" fill-opacity="0.25"/>
<path d="M24.5255 7.77295L23.7392 7.11591L20.8944 10.2193V21.6991C20.8944 21.8752 21.0373 22.0184 21.2141 22.0184H25.5425C25.7189 22.0184 25.8618 21.8755 25.8618 21.6991V7.8787C25.8441 7.88894 25.828 7.90156 25.81 7.91077C25.6445 7.99742 25.4586 8.04314 25.2716 8.04314C24.9984 8.04348 24.7343 7.94762 24.5255 7.77295Z" fill="black" fill-opacity="0.25"/>
<path d="M4.79543 14.9616C4.96293 14.9616 5.13043 14.8957 5.25597 14.7654L9.33026 10.5257L16.4591 13.1487C16.7027 13.2378 16.975 13.1719 17.1506 12.9809L23.7153 5.81992L25.2511 7.10398C25.3265 7.16676 25.4312 7.17767 25.5179 7.13264C25.6042 7.08727 25.6554 6.99482 25.6465 6.89691L25.3135 3.17435C25.3019 3.0413 25.1842 2.94339 25.0515 2.95533L21.3286 3.28761C21.2314 3.29613 21.1489 3.363 21.1195 3.45613C21.1103 3.48683 21.1072 3.51856 21.11 3.5496C21.1158 3.61237 21.1454 3.67173 21.1956 3.71335L22.7348 4.99981L16.4991 11.8022L9.38074 9.18292C9.14228 9.09593 8.87551 9.15733 8.69948 9.3395L4.33522 13.8805C4.09096 14.135 4.09881 14.5389 4.3533 14.7831C4.4768 14.9022 4.63611 14.9616 4.79543 14.9616Z" fill="black" fill-opacity="0.25"/>
</svg>
