<svg width="15" height="15" viewBox="0 0 15 15" fill="none" xmlns="http://www.w3.org/2000/svg">
<g clip-path="url(#clip0)">
<path d="M14.9682 5.74966C14.8938 5.52079 14.6971 5.355 14.4594 5.32031L10.0392 4.67472L8.06085 0.671248C7.84774 0.241257 7.14354 0.241257 6.93043 0.671248L4.95204 4.67531L0.538791 5.32028C0.301105 5.35497 0.103762 5.5214 0.029992 5.74963C-0.0437775 5.97785 0.0173943 6.22816 0.189513 6.39586L3.3822 9.51225L2.63132 13.9148C2.59033 14.1512 2.68742 14.3902 2.88225 14.5314C2.99193 14.6108 3.12184 14.6512 3.25233 14.6512C3.35258 14.6512 3.45345 14.6272 3.54737 14.578L7.49659 12.5007L11.4528 14.5786C11.6652 14.6896 11.9231 14.6726 12.1166 14.5301C12.3108 14.3889 12.4073 14.1499 12.3669 13.9129L11.6103 9.51161L14.8087 6.39521C14.9808 6.22816 15.0426 5.97849 14.9682 5.74966ZM10.4913 8.8408C10.3431 8.98582 10.275 9.1945 10.3104 9.3994L10.9068 12.8689L7.78851 11.2303C7.69646 11.1824 7.5962 11.1584 7.49533 11.1584C7.39382 11.1584 7.29295 11.1824 7.20154 11.2309L4.08831 12.8682L4.68031 9.39817C4.71562 9.19453 4.64753 8.98523 4.49938 8.84086L1.98193 6.38393L5.46146 5.87452C5.66636 5.84552 5.84352 5.71629 5.93557 5.53093L7.49533 2.37483L9.0551 5.53031C9.14715 5.71567 9.32431 5.8449 9.52921 5.87455L13.0132 6.38396L10.4913 8.8408Z" fill="#053C69"/>
</g>
<defs>
<clipPath id="clip0">
<rect width="15" height="15" fill="white"/>
</clipPath>
</defs>
</svg>
