<svg width="24" height="24" viewBox="0 0 24 24" fill="none" xmlns="http://www.w3.org/2000/svg">
<path d="M23.811 17.8961C23.811 21.1464 21.1464 23.811 17.8961 23.811H6.10393C2.85353 23.811 0.188965 21.1464 0.188965 17.8961V6.10393C0.188965 2.85353 2.85353 0.188965 6.10393 0.188965H17.8961C21.1464 0.188965 23.811 2.85353 23.811 6.10393V17.8961Z" fill="#235B9E"/>
<path d="M10.1291 19.3135H12.9449V12.0001H15.1748L15.4394 8.99538H13.1339V7.86152C13.1339 7.29459 13.4929 7.10562 13.7575 7.10562H15.3827V4.64893H13.0772C10.5449 4.64893 9.94017 6.53869 9.94017 7.72924V9.01428H8.63623V12.0001H10.1291V19.3135Z" fill="white"/>
<path d="M12.9449 19.5023H10.1292C10.0158 19.5023 9.94018 19.4267 9.94018 19.3134V12.1889H8.63624C8.52286 12.1889 8.44727 12.1134 8.44727 12V8.99525C8.44727 8.88186 8.52286 8.80627 8.63624 8.80627H9.75121V7.71021C9.75121 6.14171 10.6205 4.44092 13.0772 4.44092H15.3827C15.4961 4.44092 15.5717 4.51651 15.5717 4.62989V7.12438C15.5717 7.23777 15.4961 7.31336 15.3827 7.31336H13.7575C13.663 7.31336 13.3229 7.35115 13.3229 7.88029V8.82517H15.4394C15.4961 8.82517 15.5339 8.84407 15.5717 8.88186C15.6095 8.91966 15.6284 8.97635 15.6284 9.03304L15.3638 12.0378C15.3638 12.1323 15.2693 12.2078 15.1748 12.2078H13.1339V14.4567C13.1339 14.5701 13.0583 14.6456 12.9449 14.6456C12.8315 14.6456 12.7559 14.5701 12.7559 14.4567V12C12.7559 11.8866 12.8315 11.811 12.9449 11.811H15.0048L15.2315 9.18422H13.1339C13.0205 9.18422 12.9449 9.10863 12.9449 8.99525V7.86139C12.9449 7.21887 13.3607 6.91651 13.7575 6.91651H15.1937V4.81887H13.0772C12.5859 4.81887 10.1292 4.95115 10.1292 7.71021V8.99525C10.1292 9.10863 10.0536 9.18422 9.94018 9.18422H8.82522V11.811H10.1292C10.2425 11.811 10.3181 11.8866 10.3181 12V19.1244H12.7559V17.6315C12.7559 17.5181 12.8315 17.4425 12.9449 17.4425C13.0583 17.4425 13.1339 17.5181 13.1339 17.6315V19.3134C13.1339 19.4078 13.0394 19.5023 12.9449 19.5023Z" fill="black"/>
<path d="M17.8961 24H6.10394C2.74016 24 0 21.2598 0 17.8961V6.10394C0 2.74016 2.74016 0 6.10394 0H17.8961C21.2598 0 24 2.74016 24 6.10394V17.8961C24 21.2598 21.2598 24 17.8961 24ZM6.10394 0.377953C2.94803 0.377953 0.377953 2.94803 0.377953 6.10394V17.8961C0.377953 21.052 2.94803 23.622 6.10394 23.622H17.8961C21.052 23.622 23.622 21.052 23.622 17.8961V6.10394C23.622 2.94803 21.052 0.377953 17.8961 0.377953H6.10394Z" fill="black"/>
<path d="M17.4804 22.8661H6.51974C3.5906 22.8661 1.13391 20.3905 1.13391 17.4613V6.51962C1.13391 3.59048 3.5906 1.13379 6.51974 1.13379H17.4426C17.556 1.13379 17.6315 1.20938 17.6315 1.32277C17.6315 1.43615 17.556 1.51174 17.4426 1.51174H6.51974C3.79848 1.51174 1.51186 3.79836 1.51186 6.51962V17.4802C1.51186 20.2015 3.81738 22.507 6.51974 22.507H17.4804C20.2016 22.507 22.4882 20.2015 22.4882 17.4802V12.1889C22.4882 12.0755 22.5638 11.9999 22.6772 11.9999C22.7906 11.9999 22.8662 12.0755 22.8662 12.1889V17.4802C22.8662 20.4094 20.4095 22.8661 17.4804 22.8661Z" fill="black"/>
<path d="M21.1086 3.08025C21.052 3.08025 21.0142 3.06135 20.9764 3.02355C20.0126 2.05977 18.7275 1.51174 17.4236 1.51174C17.3102 1.51174 17.2346 1.43615 17.2346 1.32277C17.2346 1.20938 17.3102 1.13379 17.4236 1.13379C18.822 1.13379 20.2016 1.71962 21.2409 2.75899C21.3165 2.83458 21.3165 2.94796 21.2409 3.02355C21.222 3.06135 21.1653 3.08025 21.1086 3.08025Z" fill="black"/>
<path d="M22.6771 11.0552C22.5638 11.0552 22.4882 10.9796 22.4882 10.8662V8.06935C22.4882 7.95596 22.5638 7.88037 22.6771 7.88037C22.7905 7.88037 22.8661 7.95596 22.8661 8.06935V10.8662C22.8661 10.9796 22.7905 11.0552 22.6771 11.0552Z" fill="black"/>
</svg>
