<svg width="408" height="356" viewBox="0 0 408 356" fill="none" xmlns="http://www.w3.org/2000/svg">
<g clip-path="url(#clip0)">
<path opacity="0.1" d="M305.783 349.287C307.17 339.28 239.849 321.756 155.417 310.147C70.9847 298.538 1.41455 297.239 0.0274894 307.247C-1.35957 317.254 65.9617 334.777 150.394 346.386C234.826 357.996 304.396 359.294 305.783 349.287Z" fill="#006494"/>
<path opacity="0.1" d="M8.81861 245.538C11.5964 252.207 15.2408 258.599 20.3413 263.502C26.5555 269.475 34.2734 272.734 42.5373 274.292C44.9734 274.744 47.4328 275.061 49.9042 275.242C56.4347 275.742 63.1212 275.41 69.5348 274.715C85.2441 273.007 100.737 269.705 115.773 264.861C118.243 264.067 120.699 263.231 123.14 262.354C126.823 261.039 130.473 259.627 134.09 258.12C148.824 251.986 164.056 244.166 179.73 246.591C187.327 247.77 194.464 251.339 202.078 252.401C207.422 253.1 212.852 252.715 218.043 251.27C220.555 250.601 223.017 249.754 225.409 248.736C230.801 246.402 235.931 243.508 240.715 240.104C252.199 232.111 262.504 222.201 274.594 215.278C287.924 207.643 302.679 204.013 317.712 201.307C320.162 200.867 322.618 200.447 325.079 200.047C332.034 198.903 339.007 197.845 345.88 196.594C352.501 195.377 359.24 193.888 365.003 190.227C369.116 187.638 372.574 183.999 375.746 180.188C381.598 173.126 386.617 165.419 390.705 157.218C390.922 156.786 391.134 156.355 391.342 155.923C397.708 142.914 401.989 128.732 404.616 114.057C404.694 113.625 404.767 113.194 404.841 112.762C407.311 98.3767 408.212 83.5035 407.939 68.7381L407.913 67.4433C407.744 60.1534 407.289 52.8937 406.613 45.7376C406.128 40.7051 405.478 35.4826 402.861 31.2528C400.243 27.0231 395.983 24.3039 391.719 22.0423C372.955 12.0851 354.967 9.31412 334.782 14.1395C331.54 14.9121 328.312 15.7451 325.083 16.6083C322.626 17.2644 320.169 17.942 317.717 18.6239C300.76 23.3328 283.846 28.3438 266.317 29.8458C264.622 29.9925 262.927 30.1047 261.234 30.1824C257.88 30.3378 254.526 30.3723 251.172 30.286C242.532 30.0445 233.922 29.1616 225.414 27.6446C222.952 27.2216 220.497 26.7526 218.047 26.2375C207.465 24.0406 196.991 21.11 186.664 17.8729C184.558 17.2111 182.455 16.5378 180.354 15.853C175.622 14.3122 170.89 12.7411 166.149 11.2132C151.996 6.65109 137.774 2.4688 123.14 0.78552C121.886 0.644528 120.632 0.519361 119.378 0.41002C118.178 0.306434 116.973 0.224428 115.773 0.164003C93.0438 -1.0445 70.0548 4.41536 49.9042 15.5897C47.4023 16.9766 44.9467 18.4499 42.5373 20.0094C39.1948 22.1761 35.9548 24.5068 32.8173 27.0015C26.3865 32.116 20.3673 37.9385 15.7825 44.9348C11.3147 51.75 8.4156 59.4024 6.74722 67.4476C6.65622 67.8792 6.56954 68.3108 6.49154 68.7424C4.04313 81.7295 4.80582 95.6576 7.55324 108.671C7.84358 110.034 8.15126 111.403 8.47194 112.767C8.57161 113.198 8.67561 113.63 8.77961 114.061C11.7437 126.367 15.5311 138.637 14.5431 151.219C14.4174 152.803 14.2181 154.374 13.9581 155.927C13.8844 156.359 13.8108 156.791 13.7284 157.222C11.7957 167.486 7.40157 177.223 4.76682 187.388C-0.178864 206.702 1.24163 227.089 8.81861 245.538Z" fill="#006494"/>
<path opacity="0.1" d="M42.5373 112.767H8.47191C8.57158 113.198 8.67558 113.63 8.77958 114.061H42.5373V155.927H13.9581C13.8844 156.359 13.8107 156.791 13.7284 157.222H42.5373V274.288C44.9733 274.74 47.4328 275.057 49.9042 275.237V157.222H115.773V264.857C118.243 264.063 120.699 263.227 123.14 262.349V157.222H218.043V251.266C220.555 250.596 223.017 249.75 225.409 248.732V157.231H317.712V201.307C320.162 200.867 322.618 200.447 325.079 200.047V157.222H390.714C390.93 156.791 391.143 156.359 391.351 155.927H325.079V114.061H404.637C404.715 113.63 404.789 113.198 404.863 112.767H325.079V68.7424H407.948L407.922 67.4476H325.079V16.6126C322.622 17.2687 320.165 17.9463 317.712 18.6282V67.4476H227.576L227.351 67.2016L261.221 30.1824C257.867 30.3378 254.513 30.3723 251.159 30.286L225.409 58.4442V27.6446C222.948 27.2216 220.492 26.7526 218.043 26.2375V57.0199L180.372 15.8487C175.64 14.3078 170.908 12.7368 166.167 11.2089L217.393 67.2016L217.167 67.4476H123.131V0.785518C121.877 0.644526 120.623 0.51936 119.37 0.410019C118.169 0.306432 116.965 0.224427 115.764 0.164001V67.4476H49.8955V15.5897C47.3936 16.9766 44.938 18.4498 42.5286 20.0094V67.4476H6.7472C6.65619 67.8792 6.56952 68.3108 6.49152 68.7424H42.5373V112.767ZM115.773 68.7424V112.767H49.9042V68.7424H115.773ZM123.14 68.7424H218.043V112.767H123.14V68.7424ZM317.712 112.767H225.409V69.9207L226.71 68.7424H317.712V112.767ZM225.409 155.927V114.061H317.712V155.927H225.409ZM123.14 155.927V114.061H218.043V155.927H123.14ZM49.9042 114.061H115.773V155.927H49.9042V114.061Z" fill="#006494"/>
<path opacity="0.1" d="M233.114 80.8879C233.67 80.4089 234.315 80.0437 235.012 79.8132C236.573 79.3329 238.212 79.1556 239.84 79.2909C241.032 79.3555 242.216 79.5201 243.38 79.783L297.826 95.131C298.853 95.4202 299.863 95.7611 300.859 96.141C304.37 94.7728 314.293 90.8106 315.381 89.3949L319.645 90.6379L312.529 101.217C312.708 101.295 312.859 101.426 312.963 101.591C313.066 101.756 313.117 101.948 313.11 102.142C313.102 102.337 313.036 102.524 312.921 102.681C312.805 102.838 312.644 102.956 312.46 103.021C304.257 105.831 291.867 102.106 291.867 102.106L244.299 88.5705C244.299 88.5705 229.925 83.7365 233.114 80.8879Z" fill="#006494"/>
<path opacity="0.1" d="M296.415 97.9546C296.535 97.5923 296.455 97.2407 296.237 97.1691C296.018 97.0976 295.744 97.3332 295.625 97.6955C295.505 98.0578 295.585 98.4094 295.803 98.481C296.021 98.5525 296.295 98.3169 296.415 97.9546Z" fill="#006494"/>
<path opacity="0.1" d="M294.769 97.4143C294.889 97.052 294.809 96.7004 294.591 96.6288C294.372 96.5573 294.098 96.7929 293.979 97.1552C293.859 97.5175 293.939 97.8692 294.157 97.9407C294.375 98.0123 294.649 97.7766 294.769 97.4143Z" fill="#006494"/>
<path opacity="0.1" d="M291.599 96.3742C291.719 96.0119 291.639 95.6602 291.421 95.5887C291.202 95.5171 290.929 95.7528 290.809 96.1151C290.689 96.4773 290.769 96.829 290.987 96.9005C291.205 96.9721 291.479 96.7364 291.599 96.3742Z" fill="#006494"/>
<path opacity="0.1" d="M282.668 93.7608C282.787 93.3985 282.707 93.0468 282.489 92.9753C282.271 92.9037 281.997 93.1394 281.877 93.5017C281.757 93.864 281.837 94.2157 282.056 94.2872C282.274 94.3588 282.548 94.1231 282.668 93.7608Z" fill="#006494"/>
<path opacity="0.1" d="M281.092 93.2483C281.212 92.8861 281.132 92.5344 280.914 92.4628C280.696 92.3913 280.422 92.627 280.302 92.9892C280.182 93.3515 280.262 93.7032 280.48 93.7748C280.699 93.8463 280.973 93.6106 281.092 93.2483Z" fill="#006494"/>
<path opacity="0.1" d="M279.467 92.867C279.586 92.5047 279.507 92.153 279.288 92.0815C279.07 92.0099 278.796 92.2456 278.676 92.6078C278.557 92.9701 278.637 93.3218 278.855 93.3933C279.073 93.4649 279.347 93.2292 279.467 92.867Z" fill="#006494"/>
<path opacity="0.1" d="M277.829 92.333C277.948 91.9707 277.869 91.619 277.65 91.5474C277.432 91.4759 277.158 91.7116 277.038 92.0739C276.919 92.4361 276.999 92.7878 277.217 92.8594C277.435 92.9309 277.709 92.6952 277.829 92.333Z" fill="#006494"/>
<path opacity="0.1" d="M276.223 91.8034C276.343 91.4411 276.263 91.0894 276.045 91.0179C275.826 90.9463 275.552 91.182 275.433 91.5443C275.313 91.9066 275.393 92.2583 275.611 92.3298C275.829 92.4014 276.103 92.1657 276.223 91.8034Z" fill="#006494"/>
<path opacity="0.1" d="M274.763 91.326C274.883 90.9638 274.803 90.6121 274.585 90.5405C274.367 90.469 274.093 90.7047 273.973 91.0669C273.853 91.4292 273.933 91.7809 274.151 91.8525C274.37 91.924 274.644 91.6883 274.763 91.326Z" fill="#006494"/>
<path opacity="0.1" d="M273.201 90.8113C273.32 90.449 273.241 90.0973 273.022 90.0258C272.804 89.9542 272.53 90.1899 272.41 90.5522C272.291 90.9145 272.371 91.2661 272.589 91.3377C272.807 91.4092 273.081 91.1736 273.201 90.8113Z" fill="#006494"/>
<path opacity="0.1" d="M271.567 90.2773C271.687 89.9151 271.607 89.5634 271.389 89.4918C271.171 89.4203 270.897 89.6559 270.777 90.0182C270.657 90.3805 270.737 90.7322 270.955 90.8037C271.173 90.8753 271.447 90.6396 271.567 90.2773Z" fill="#006494"/>
<path opacity="0.1" d="M270.116 89.802C270.236 89.4397 270.156 89.088 269.937 89.0164C269.719 88.9449 269.445 89.1806 269.326 89.5428C269.206 89.9051 269.286 90.2568 269.504 90.3283C269.722 90.3999 269.996 90.1642 270.116 89.802Z" fill="#006494"/>
<path opacity="0.1" d="M261.151 87.3885C261.27 87.0261 261.189 86.6749 260.971 86.6039C260.753 86.533 260.48 86.7692 260.361 87.1316C260.242 87.4939 260.323 87.8451 260.541 87.916C260.759 87.987 261.033 87.7508 261.151 87.3885Z" fill="#006494"/>
<path opacity="0.1" d="M258.824 86.6711C258.944 86.3088 258.864 85.9571 258.645 85.8856C258.427 85.814 258.153 86.0497 258.033 86.412C257.914 86.7743 257.994 87.1259 258.212 87.1975C258.43 87.269 258.704 87.0334 258.824 86.6711Z" fill="#006494"/>
<path opacity="0.1" d="M257.229 86.1476C257.349 85.7853 257.269 85.4336 257.051 85.3621C256.833 85.2905 256.559 85.5262 256.439 85.8885C256.319 86.2508 256.399 86.6024 256.617 86.674C256.835 86.7455 257.109 86.5099 257.229 86.1476Z" fill="#006494"/>
<path opacity="0.1" d="M255.685 85.6438C255.804 85.2815 255.725 84.9298 255.506 84.8583C255.288 84.7867 255.014 85.0224 254.894 85.3847C254.775 85.7469 254.855 86.0986 255.073 86.1701C255.291 86.2417 255.565 86.006 255.685 85.6438Z" fill="#006494"/>
<path opacity="0.1" d="M254.164 85.145C254.283 84.7827 254.204 84.431 253.985 84.3595C253.767 84.2879 253.493 84.5236 253.373 84.8859C253.254 85.2481 253.334 85.5998 253.552 85.6714C253.77 85.7429 254.044 85.5072 254.164 85.145Z" fill="#006494"/>
<path opacity="0.1" d="M252.447 84.576C252.566 84.2138 252.486 83.8621 252.268 83.7905C252.05 83.719 251.776 83.9547 251.656 84.3169C251.537 84.6792 251.616 85.0309 251.835 85.1025C252.053 85.174 252.327 84.9383 252.447 84.576Z" fill="#006494"/>
<path opacity="0.1" d="M260.352 87.1716C260.471 86.8093 260.391 86.4577 260.173 86.3861C259.955 86.3146 259.681 86.5502 259.561 86.9125C259.442 87.2748 259.521 87.6265 259.74 87.698C259.958 87.7696 260.232 87.5339 260.352 87.1716Z" fill="#006494"/>
<path opacity="0.1" d="M293.059 96.8515C293.178 96.4892 293.099 96.1376 292.88 96.066C292.662 95.9945 292.388 96.2301 292.268 96.5924C292.149 96.9547 292.228 97.3064 292.447 97.3779C292.665 97.4495 292.939 97.2138 293.059 96.8515Z" fill="#006494"/>
<path opacity="0.1" d="M266.139 90.7598L267.628 91.126L268.269 88.5407L266.779 88.1744L266.139 90.7598Z" fill="#006494"/>
<path opacity="0.1" d="M248.591 85.7575L250.08 86.1238L250.721 83.5384L249.232 83.1721L248.591 85.7575Z" fill="#006494"/>
<path opacity="0.1" d="M241.612 79.9384L243.593 80.4563L242.605 81.941L239.671 81.2159L241.612 79.9384Z" fill="#006494"/>
<path opacity="0.1" d="M235.012 79.8305L239.29 80.9397L240.919 79.9384L239.84 79.3082C238.212 79.1729 236.573 79.3502 235.012 79.8305Z" fill="#006494"/>
<path opacity="0.1" d="M319.645 90.6121L312.529 101.225L300.907 96.0935C300.907 96.0935 314.068 91.0955 315.368 89.369L319.645 90.6121Z" fill="#006494"/>
<path opacity="0.1" d="M268.029 92.2047L286.806 97.2545L287.915 99.4644L268.029 92.2047Z" fill="#006494"/>
<path opacity="0.1" d="M81.5774 38.4262H82.1451C81.9447 38.3095 81.7764 38.1451 81.6554 37.9477C81.5344 37.7504 81.4645 37.5262 81.4518 37.2954C81.4518 36.4062 82.5481 35.6768 83.8872 35.6768H100.97C102.309 35.6768 103.405 36.4062 103.405 37.2954C103.405 38.1888 102.309 38.9182 100.97 38.9182H100.398C100.598 39.0353 100.767 39.1996 100.888 39.3968C101.01 39.594 101.081 39.818 101.095 40.049C101.095 40.8087 100.298 41.4517 99.2277 41.6244H104.146C105.485 41.6244 106.586 42.3538 106.586 43.2429C106.586 44.132 105.485 44.8658 104.146 44.8658H87.0636C85.7246 44.8658 84.6282 44.1364 84.6282 43.2429C84.6282 42.4833 85.4256 41.8445 86.4916 41.6719H81.5774C80.2341 41.6719 79.1377 40.9425 79.1377 40.049C79.1377 39.1556 80.2341 38.4262 81.5774 38.4262Z" fill="#006494"/>
<path opacity="0.1" d="M266.686 53.8649H267.266C267.066 53.7476 266.899 53.5831 266.778 53.3858C266.657 53.1886 266.587 52.9648 266.573 52.7341C266.573 51.8406 267.669 51.1112 269.008 51.1112H286.091C287.43 51.1112 288.526 51.8406 288.526 52.7341C288.526 53.6232 287.43 54.3526 286.091 54.3526H285.519C285.719 54.4699 285.887 54.6344 286.009 54.8315C286.131 55.0287 286.202 55.2525 286.217 55.4834C286.217 56.2474 285.419 56.8861 284.353 57.0588H289.267C290.611 57.0588 291.707 57.7882 291.707 58.6816C291.707 59.5751 290.611 60.3002 289.267 60.3002H272.176C270.833 60.3002 269.736 59.5708 269.736 58.6816C269.736 57.922 270.534 57.2789 271.6 57.1063H266.686C265.342 57.1063 264.246 56.3768 264.246 55.4834C264.246 54.59 265.342 53.8649 266.686 53.8649Z" fill="#006494"/>
<path opacity="0.1" d="M55.36 119.927H55.9321C55.7313 119.81 55.5626 119.646 55.4409 119.449C55.3192 119.251 55.2483 119.027 55.2344 118.796C55.2344 117.903 56.3307 117.173 57.6698 117.173H74.7523C76.0913 117.173 77.1877 117.903 77.1877 118.796C77.1877 119.685 76.0913 120.415 74.7523 120.415H74.1803C74.381 120.531 74.5497 120.696 74.6714 120.893C74.7931 121.09 74.8641 121.314 74.878 121.545C74.878 122.305 74.0806 122.948 73.0146 123.121H77.9287C79.2721 123.121 80.3685 123.85 80.3685 124.744C80.3685 125.637 79.2721 126.362 77.9287 126.362H60.8679C59.5245 126.362 58.4281 125.633 58.4281 124.744C58.4281 123.98 59.2255 123.341 60.2959 123.168H55.36C54.021 123.168 52.9203 122.439 52.9203 121.545C52.9203 120.652 54.06 119.927 55.36 119.927Z" fill="#006494"/>
<path d="M241.331 127.933C240.897 125.219 238.176 120.255 238.176 120.255L234.245 113.608C234.245 113.608 232.703 111.791 232.846 111.204C232.989 110.617 231.021 109.646 231.021 109.646C231.021 109.646 229.899 108.187 229.83 107.488C229.76 106.789 223.446 101.506 223.446 101.506C223.446 101.506 221.28 99.6975 221.765 93.5816H216.786C215.515 93.6157 214.247 93.7412 212.994 93.9571L205.731 85.5105C205.731 85.5105 200.015 80.793 194.963 78.0091C194.963 77.9659 194.963 77.9228 194.963 77.8796C194.974 74.7291 194.003 71.6527 192.185 69.0748L192.133 69.0057C192.942 68.8019 193.706 68.4507 194.386 67.9699C194.835 67.6665 195.184 67.2389 195.392 66.7398C196.202 64.668 193.004 63.7185 191.543 62.9718C188.584 61.4526 186.122 59.1909 183.102 57.7925C180.089 56.4015 176.804 55.691 173.483 55.7119C170.162 55.7328 166.887 56.4845 163.892 57.9134C160.941 59.3679 158.371 61.4569 155.719 63.3948C151.563 66.4161 153.162 69.1999 149.912 73.1794C146.662 77.1588 144.824 82.7654 146.857 87.47C148.053 90.2323 150.432 92.3515 153.045 93.8794C155.658 95.4073 152.469 96.4172 155.268 97.5739C155.927 97.8502 156.646 98.1911 156.915 98.8688C157.081 99.428 157.055 100.026 156.841 100.569C156.325 102.404 155.641 104.38 156.005 106.18C154.271 106.987 153.08 107.436 153.08 107.436C149.483 108.688 148.872 111.221 148.872 111.221C148.872 111.221 149.526 113.466 148.079 114.579C146.631 115.693 147.238 118.749 147.238 118.749C147.238 118.749 145.275 123.151 145.782 123.799C146.176 124.357 146.522 124.948 146.818 125.564C146.818 125.564 145.18 126.859 146.02 128.715C146.861 130.57 146.02 132.56 146.02 132.56C146.02 132.56 146.454 133.583 145.695 134.14C144.937 134.697 145.695 138.935 145.695 138.935C145.675 139.507 145.46 140.055 145.084 140.489C144.452 141.231 145.084 148.461 145.084 148.461C144.907 148.822 144.642 149.133 144.313 149.367C143.88 149.574 142.632 156.389 142.983 156.735C143.334 157.08 137.696 173.468 137.696 173.468C137.696 173.468 137.834 176.317 137.063 176.804C136.292 177.292 136.153 180.559 136.153 180.559C136.153 180.559 136.5 183.477 135.1 184.034C133.7 184.591 133.414 194.466 133.414 194.466C133.414 194.466 131.521 199.542 130.381 200.375C131.524 201.774 132.922 202.945 134.502 203.828L134.329 204.285C133.38 206.875 132.088 210.889 131.919 214.212C130.769 215.315 129.744 216.539 128.86 217.863C128.86 217.863 129.363 218.295 129.974 218.813L115.638 236.44C109.78 228.08 106.599 231.179 106.599 231.179L104.432 231.77C104.098 231.848 102.803 232.059 102.699 230.613C102.662 230.185 102.556 229.765 102.387 229.37C102.191 228.887 101.879 228.46 101.477 228.127C101.201 227.901 100.868 227.754 100.514 227.703C100.16 227.652 99.7993 227.699 99.4703 227.838C97.6503 228.537 73.7035 232.586 73.7035 232.586C73.7035 232.586 66.2283 233.837 59.3554 242.875C55.4279 248.099 51.0645 252.984 46.3117 257.477L27.6258 279.571C27.6258 279.571 18.1962 292.264 22.7723 292.036C21.6586 294.759 22.716 297.508 22.716 297.508L41.2286 320.979C41.2261 321.614 41.3846 322.239 41.6893 322.797C41.9939 323.355 42.435 323.827 42.9716 324.169C43.5081 324.512 44.1229 324.714 44.7588 324.757C45.3947 324.8 46.0313 324.683 46.6095 324.416C47.1877 324.149 47.6889 323.741 48.0667 323.229C48.4444 322.718 48.6865 322.12 48.7704 321.491C48.8544 320.861 48.7775 320.221 48.5469 319.629C48.3164 319.037 47.9396 318.513 47.4514 318.105L75.0859 305.346C75.371 305.801 75.7501 306.189 76.1981 306.486C76.646 306.783 77.1524 306.981 77.6834 307.067C78.2143 307.153 78.7576 307.125 79.277 306.985C79.7963 306.845 80.2796 306.597 80.6946 306.256C81.1097 305.915 81.4469 305.49 81.6837 305.009C81.9204 304.528 82.0514 304.002 82.0676 303.466C82.0839 302.931 81.9852 302.398 81.7781 301.903C81.571 301.409 81.2603 300.964 80.8667 300.599L91.3277 290.141C91.3277 290.141 122.325 257.74 124.695 252.871C126.043 250.118 123.673 246.337 121.363 243.579L141.141 218.114L141.852 218.433L145.83 214.389C148.863 211.963 146.293 208.839 146.293 208.839C145.388 208.023 143.663 208.148 141.713 208.7C141.895 207.924 142.06 207.168 142.198 206.46C142.237 206.27 142.276 206.085 142.311 205.899C143.557 205.901 144.8 205.775 146.02 205.524C146.02 205.524 146.454 196.417 147.702 192.8L151.42 174.375C151.42 174.375 153.665 166.519 154.505 162.207C155.346 157.896 159.042 141.348 159.042 141.348C159.645 139.539 159.909 144.408 159.909 144.408C159.909 144.408 161.127 145.66 160.845 146.307C160.564 146.954 161.079 150.666 161.079 150.666C161.079 150.666 161.734 152.889 161.27 153.355C161.176 153.467 161.104 153.596 161.058 153.735C160.624 154.728 160.048 157.779 160.048 157.779L158.405 163.843L158.132 164.063C157.078 164.978 156.267 166.137 155.771 167.439C155.272 168.595 154.986 169.692 154.692 170.391C154.626 170.544 154.541 170.689 154.44 170.822C154.263 171.057 154.118 171.314 154.007 171.586C153.628 172.544 153.346 173.538 153.166 174.551L153.361 174.677C153.361 174.715 153.331 174.759 153.314 174.797L153.231 175.005V175.031C153.054 175.462 152.889 175.915 152.724 176.364L152.672 176.507C152.521 176.938 152.373 177.37 152.239 177.78C152.217 177.853 152.191 177.927 152.17 178C152.035 178.401 151.91 178.803 151.788 179.196L151.71 179.446C151.598 179.821 151.485 180.193 151.381 180.555C151.381 180.598 151.355 180.646 151.342 180.685C150.451 183.793 149.979 187.004 149.938 190.236C149.838 197.858 149.765 213.245 150.709 215.326C150.77 215.464 150.835 215.623 150.896 215.8C152.066 219.214 152.954 229.508 152.954 229.508C153.579 229.936 154.231 230.321 154.908 230.661C154.93 230.855 154.952 231.049 154.978 231.252C155.476 235.486 156.178 241.214 156.412 241.792C156.789 242.72 157.63 248.266 157.63 248.266C157.63 248.266 156.971 250.765 156.507 253.083C156.044 255.401 149.96 261.801 149.96 261.801C142.207 268.206 134.446 290.836 134.446 290.836C132.899 294.15 131.191 295.376 129.935 295.799C121.558 295.488 121.168 302.273 121.168 302.273L115.881 312.377L117.22 313.323L117.849 313.754L123.226 307.543C123.226 307.543 123.226 314.635 122.243 316.348C121.575 317.513 121.467 319.65 121.467 320.902C121.467 321.489 121.493 321.881 121.493 321.881C121.493 321.881 123.131 325.334 130.329 329.607C133.562 331.519 135.447 331.195 136.543 330.25C137.886 329.094 138.047 327.013 138.047 327.013L135.013 321.881C134.862 321.946 134.714 321.994 134.58 322.05C134.58 321.873 134.58 321.691 134.58 321.497C134.771 316.965 138.862 307.405 138.862 307.405C138.862 307.405 142.788 297.111 146.059 293.961C148.915 291.211 160.381 273.852 163.259 269.471V269.618C163.259 269.829 163.289 270.049 163.311 270.231C163.744 274.922 165.044 276.994 165.044 276.994C165.044 276.994 166.539 295.985 166.817 300.819C166.994 303.84 166.253 305.882 165.673 306.982L165.642 307.034C165.612 307.034 162.657 308.579 162.379 311.574C162.102 314.57 163.779 317.414 163.779 317.414C163.779 317.414 167.597 326.905 167.458 329.633H169.703L169.33 321.381L169.365 321.424C169.772 321.963 173.781 327.32 173.915 330C173.915 330 174.929 332.758 174.899 333.513C174.901 333.533 174.901 333.554 174.899 333.574C174.803 334.221 178.452 337.281 183.739 336.677C189.026 336.073 189.953 335.335 189.953 335.335C189.953 335.335 190.014 335.166 190.092 334.903C190.356 333.91 190.776 331.489 189.021 330.293C186.824 328.796 182.257 324.596 182.062 324.419C181.312 318.208 178.924 309.77 178.924 309.77V297.047C178.924 297.047 180.003 267.934 179.258 263.023C178.795 260.229 178.795 257.379 179.258 254.585C179.258 254.585 182.53 245.409 181.858 244.386C181.186 243.363 183.258 239.75 183.258 239.75L187.188 228.775L187.418 228.136C188.059 227.894 188.48 227.734 188.631 227.704C189.931 227.428 188.631 225.339 188.631 225.339C188.631 225.339 192.8 207.682 192.375 204.479C191.951 201.277 193.359 188.143 193.359 188.143L194.031 182.696L194.092 182.208C194.525 182.743 194.828 183.071 194.828 183.071C199.313 182.329 203.148 170.123 202.165 169.441C201.181 168.759 198.425 159.847 198.425 159.847C194.031 153.774 197.992 141.166 197.992 141.166C197.992 141.166 202.013 131.015 201.965 129.345C201.918 127.674 202.901 127.618 202.901 127.618V127.571C206.594 128.356 219.416 131.071 220.075 131.205C220.846 131.36 222.389 131.464 223.932 132.09C225.474 132.716 235.437 131.205 235.437 131.205C235.437 131.205 241.751 130.635 241.331 127.933ZM142.094 213.004L138.862 217.095L139.343 217.311L119.682 241.723C118.633 240.631 117.849 239.945 117.849 239.945C117.649 239.595 117.45 239.263 117.255 238.935L131.859 220.375C131.942 220.442 132.032 220.5 132.127 220.548L133.284 219.176C133.603 219.456 133.974 219.67 134.376 219.806C137.119 220.742 139.143 217.182 140.53 212.982C141.047 212.878 141.579 212.882 142.094 212.995V213.004ZM186.066 95.2217C186.066 95.1742 186.066 95.1267 186.066 95.0792C186.066 95.1181 186.066 95.1656 186.066 95.2217ZM186.066 94.9713C186.068 95.0044 186.068 95.0375 186.066 95.0706C186.071 95.0377 186.074 95.0046 186.075 94.9713H186.066ZM212.99 114.018C212.99 114.018 212.357 112.072 211.937 112.072C211.4 111.956 210.881 111.769 210.394 111.515C210.23 111.56 210.058 111.57 209.889 111.546C209.72 111.521 209.559 111.462 209.414 111.373C209.269 111.283 209.144 111.165 209.048 111.025C208.951 110.886 208.884 110.728 208.851 110.561C208.418 109.266 205.74 108.248 205.74 108.248C205.74 108.248 201.814 106.625 201.484 105.278C201.155 103.932 195.548 102.451 195.548 102.451C195.548 102.451 195.925 101.899 193.537 101.109C192.701 100.761 191.923 100.288 191.231 99.7061C189.408 98.2384 187.684 96.6524 186.07 94.9584C186.13 93.9489 186.3 92.9488 186.577 91.976C186.638 91.7558 186.703 91.5444 186.777 91.3285C187.889 90.7825 188.924 90.0916 189.853 89.2741L192.765 93.4823C192.912 93.6935 193.136 93.8384 193.39 93.8853C193.643 93.9322 193.905 93.8773 194.118 93.7326L196.44 92.1572C197.68 92.6413 199.013 92.8377 200.34 92.7313L205.51 98.9421C205.436 99.6462 205.511 100.358 205.731 101.031L217.748 115.218C217.432 115.132 212.998 114.018 212.998 114.018H212.99Z" fill="url(#paint0_linear)"/>
<path d="M215.36 93.6851C215.36 93.6851 202.13 93.8232 204.384 101.122L209.432 104.039L214.463 103.021L216.825 98.8644L215.36 93.6851Z" fill="#65617D"/>
<path opacity="0.1" d="M215.36 93.6851C215.36 93.6851 202.13 93.8232 204.384 101.122L209.432 104.039L214.463 103.021L216.825 98.8644L215.36 93.6851Z" fill="black"/>
<path d="M186.543 80.9656C190.17 94.1038 199.014 92.8219 199.014 92.8219L204.687 99.6629L205.523 100.725L207.335 103.021L215.36 98.4803L213.761 96.6071L204.384 85.6356C204.384 85.6356 182.916 67.8317 186.543 80.9656Z" fill="#FBBEBE"/>
<path d="M185.734 85.4339C185.772 85.4889 185.848 85.5029 185.903 85.4652C185.958 85.4274 185.972 85.3522 185.934 85.2972L184.932 83.8413C184.894 83.7863 184.819 83.7723 184.763 83.81C184.708 83.8478 184.694 83.923 184.732 83.978L185.734 85.4339Z" fill="#3A3768"/>
<path d="M190.891 78.444C190.912 78.4755 190.955 78.4835 190.987 78.4619C191.018 78.4403 191.027 78.3974 191.005 78.3659L190.708 77.9352C190.687 77.9038 190.644 77.8957 190.612 77.9173C190.58 77.9389 190.572 77.9819 190.594 78.0133L190.891 78.444Z" fill="#3A3768"/>
<path d="M192.589 81.387C192.613 81.4222 192.662 81.4309 192.697 81.4065C192.732 81.382 192.741 81.3337 192.717 81.2985L192.149 80.4845C192.124 80.4493 192.075 80.4406 192.04 80.465C192.005 80.4895 191.996 80.5378 192.021 80.573L192.589 81.387Z" fill="#3A3768"/>
<path d="M192.735 81.1259C192.758 81.1593 192.804 81.1678 192.838 81.1449C192.871 81.122 192.88 81.0763 192.857 81.0429L192.281 80.2064C192.258 80.173 192.212 80.1644 192.179 80.1874C192.145 80.2103 192.136 80.2559 192.159 80.2894L192.735 81.1259Z" fill="#3A3768"/>
<path d="M192.822 93.8253L197.965 90.3128C198.407 90.0108 198.52 89.409 198.217 88.9687L189.914 76.9088C189.611 76.4685 189.006 76.3563 188.564 76.6583L183.421 80.1708C182.979 80.4727 182.867 81.0745 183.17 81.5149L191.473 93.5747C191.776 94.0151 192.38 94.1272 192.822 93.8253Z" fill="#3A3768"/>
<path d="M184.346 80.0592C184.41 80.0161 184.489 80.0001 184.565 80.0146C184.642 80.0292 184.709 80.0731 184.753 80.1369L184.788 80.1844C184.832 80.2482 184.899 80.2922 184.975 80.3067C185.052 80.3213 185.13 80.3052 185.195 80.2621L188.059 78.3069C188.123 78.2625 188.166 78.195 188.18 78.1191C188.194 78.0432 188.177 77.9649 188.133 77.9012L188.098 77.8537C188.055 77.7895 188.039 77.7108 188.054 77.6349C188.068 77.5589 188.112 77.4917 188.176 77.448L188.731 77.0639C188.854 76.9808 189.005 76.9497 189.151 76.9772C189.298 77.0046 189.427 77.0886 189.511 77.2106L197.788 89.2352C197.871 89.3572 197.902 89.507 197.875 89.6519C197.847 89.7967 197.763 89.9247 197.641 90.0078L192.653 93.4046C192.53 93.4874 192.38 93.5184 192.235 93.4909C192.089 93.4634 191.961 93.3796 191.877 93.2578L183.596 81.2332C183.513 81.1112 183.482 80.9614 183.509 80.8166C183.537 80.6718 183.621 80.5437 183.743 80.4606L184.346 80.0592Z" fill="#006494"/>
<path d="M186.21 79.1494L186.96 78.6368C187.014 78.6004 187.027 78.5278 186.991 78.4748C186.954 78.4217 186.881 78.4082 186.828 78.4446L186.077 78.9571C186.024 78.9935 186.011 79.0661 186.047 79.1192C186.084 79.1722 186.157 79.1858 186.21 79.1494Z" fill="#E6E8EC"/>
<path d="M185.798 79.4168C185.87 79.4168 185.928 79.3587 185.928 79.287C185.928 79.2153 185.87 79.1572 185.798 79.1572C185.726 79.1572 185.667 79.2153 185.667 79.287C185.667 79.3587 185.726 79.4168 185.798 79.4168Z" fill="#E6E8EC"/>
<path d="M162.093 269.527C162.093 269.786 162.132 270.036 162.154 270.287C162.587 274.974 163.866 277.046 163.866 277.046C163.866 277.046 165.352 296.037 165.629 300.862C165.807 303.883 165.066 305.92 164.49 307.021C164.317 307.369 164.108 307.697 163.866 308.001L162.934 310.038L167.306 318.748L172.424 327.181L175.96 331.813C175.96 331.813 178.56 332.184 179.124 331.813C179.687 331.441 181.91 331.813 181.91 331.813L183.96 328.662L181.663 325.567L180.796 324.402C180.051 318.191 177.676 309.757 177.676 309.757V297.064C177.676 297.064 178.751 267.969 178.006 263.053C177.546 260.262 177.546 257.415 178.006 254.624C178.006 254.624 181.26 245.448 180.606 244.429C179.951 243.41 182.001 239.793 182.001 239.793L185.901 228.826L186.127 228.183L185.26 226.081L163.307 223.319C163.307 223.319 163.48 225.045 163.671 227.786V227.847C163.783 229.435 163.896 231.368 163.987 233.527C164.29 240.786 164.316 250.532 162.934 257.977C162.175 261.778 161.892 265.657 162.093 269.527Z" fill="#FBBEBE"/>
<path opacity="0.1" d="M162.154 270.287L163.307 268.521C165.449 266.467 167.82 264.664 170.374 263.148C174.379 260.83 175.306 255.379 175.141 254.624C174.977 253.868 175.7 246.855 175.7 246.855V229.046L163.692 227.752C164.169 234.688 164.754 248.257 162.956 257.964C161.963 263.23 161.881 267.291 162.154 270.287Z" fill="black"/>
<path d="M124.695 314.764L125.627 323.288L130.182 325.973C130.182 325.973 134.372 326.439 133.627 322.732C133.559 322.334 133.536 321.93 133.557 321.527C133.744 317 137.813 307.444 137.813 307.444C137.813 307.444 141.713 297.159 144.976 294.004C147.819 291.259 159.229 273.908 162.093 269.527L162.748 268.521C164.892 266.468 167.265 264.665 169.82 263.148C173.82 260.83 174.751 255.379 174.587 254.624C174.422 253.868 175.141 246.855 175.141 246.855V229.046L163.692 227.829L153.37 226.729C153.37 226.729 153.6 228.74 153.894 231.299C154.393 235.529 155.095 241.257 155.324 241.835C155.701 242.763 156.538 248.309 156.538 248.309C156.538 248.309 155.883 250.808 155.42 253.126C154.956 255.444 148.92 261.84 148.92 261.84C141.197 268.232 133.475 290.84 133.475 290.84C131.443 295.216 129.142 295.959 127.946 296.019C127.677 296.04 127.408 296.015 127.148 295.946L125.471 299.006L124.695 314.764Z" fill="#FBBEBE"/>
<path opacity="0.1" d="M162.934 310.038L167.306 318.748L172.424 327.181L175.96 331.813C175.96 331.813 178.56 332.184 179.124 331.813C179.687 331.441 181.91 331.813 181.91 331.813L183.96 328.662L181.663 325.567C182.266 326.948 182.76 328.671 181.542 328.753C179.496 328.895 175.263 330.608 172.845 324.816C170.427 319.024 167.211 316.43 167.211 316.43L164.65 310.224L164.485 307.021C164.313 307.369 164.104 307.697 163.861 308.001L162.934 310.038Z" fill="black"/>
<path d="M162.609 317.449C162.609 317.449 166.422 326.901 166.284 329.637H168.515L168.143 321.385L168.177 321.432C168.585 321.972 172.572 327.324 172.706 330.004C172.706 330.004 173.716 332.758 173.685 333.513C173.688 333.533 173.688 333.553 173.685 333.574C173.59 334.221 177.217 337.281 182.478 336.677C187.739 336.073 188.662 335.335 188.662 335.335C188.662 335.335 188.722 335.166 188.8 334.903C189.06 333.91 189.481 331.493 187.734 330.298C185.546 328.796 180.983 324.583 180.801 324.423C180.918 324.631 183.54 329.171 181.537 329.322C179.535 329.473 175.258 331.178 172.84 325.386C170.422 319.594 167.207 317 167.207 317L164.646 310.793L164.455 307.086C164.455 307.086 161.482 308.614 161.205 311.626C160.927 314.639 162.609 317.449 162.609 317.449Z" fill="#3F3D56"/>
<path opacity="0.1" d="M165.82 321.247C166.084 323.465 166.739 327.548 167.077 329.637H168.515L168.143 321.385L168.177 321.432L168.052 321.065C168.052 321.065 165.43 318.191 165.82 321.247Z" fill="black"/>
<path opacity="0.1" d="M173.664 333.574C173.568 334.221 177.195 337.281 182.456 336.677C187.717 336.073 188.64 335.335 188.64 335.335C188.64 335.335 188.701 335.166 188.779 334.903C185.503 334.942 176.758 334.903 173.668 333.526C173.668 333.542 173.666 333.558 173.664 333.574Z" fill="black"/>
<path opacity="0.1" d="M124.695 314.764L125.627 323.288L130.182 325.973C130.182 325.973 134.372 326.439 133.627 322.732C133.559 322.334 133.536 321.93 133.557 321.527C126.524 324.117 125.813 317.263 125.813 317.263L127.07 298.592C127.05 297.665 127.346 296.76 127.911 296.024C127.643 296.044 127.373 296.02 127.113 295.95L125.436 299.01L124.695 314.764Z" fill="black"/>
<path d="M114.971 312.399L116.302 313.348L116.926 313.78L122.277 307.573C122.277 307.573 122.277 314.66 121.298 316.374C120.635 317.539 120.531 319.676 120.531 320.927C120.531 321.514 120.553 321.907 120.553 321.907C120.553 321.907 122.182 325.36 129.345 329.629C132.561 331.541 134.437 331.213 135.525 330.272C136.864 329.115 137.02 327.035 137.02 327.035L133.986 321.907C126.541 324.928 125.8 317.811 125.8 317.811L127.057 299.14C127.148 296.313 128.947 295.812 128.947 295.812C120.605 295.493 120.219 302.286 120.219 302.286L114.971 312.399Z" fill="#3F3D56"/>
<path opacity="0.1" d="M116.306 313.348L116.926 313.789L122.277 307.582L121.671 305.774L116.306 313.348Z" fill="black"/>
<path opacity="0.1" d="M120.531 320.936C120.531 321.523 120.553 321.916 120.553 321.916C120.553 321.916 122.182 325.369 129.345 329.637C132.561 331.549 134.437 331.221 135.525 330.28C132.262 329.275 124.479 326.417 120.531 320.936Z" fill="black"/>
<path d="M133.362 219.827C137.501 221.247 139.984 212.33 141.163 206.512C141.709 203.797 141.964 201.764 141.964 201.764H134.346C134.346 201.764 133.913 202.787 133.319 204.354C131.629 208.955 128.834 218.269 133.362 219.827Z" fill="#FBBEBE"/>
<path d="M167.025 99.5033L172.225 112.102V122.944C172.225 123.225 185.156 126.828 185.156 126.828L188.506 118.49C188.506 118.49 189.528 108.666 185.81 100.509C184.629 97.8452 184.449 94.8472 185.303 92.0623C185.364 91.8436 185.429 91.6278 185.498 91.4149C186.395 88.7964 187.797 86.3773 189.624 84.2933C189.624 84.2933 180.753 81.3627 174.66 80.7671C170.825 80.3959 168.082 80.9484 169.343 83.7366C170.113 85.5033 170.457 87.4247 170.348 89.3475C170.348 89.5201 170.348 89.6971 170.314 89.8697C169.932 95.0663 167.025 99.5033 167.025 99.5033Z" fill="#FBBEBE"/>
<path opacity="0.1" d="M169.356 83.7452C170.126 85.5119 170.47 87.4333 170.361 89.3561C170.361 89.5287 170.361 89.7057 170.327 89.8783C170.336 89.8906 170.348 89.9009 170.361 89.9085C172.557 91.8588 175.323 93.0555 178.253 93.3226C178.656 93.3614 179.067 93.3787 179.479 93.3787C181.497 93.3857 183.492 92.9433 185.316 92.0839C185.377 91.8652 185.442 91.6494 185.511 91.4365C186.408 88.818 187.81 86.3989 189.637 84.3149C189.637 84.3149 180.766 81.3843 174.673 80.7886C170.838 80.4045 168.095 80.957 169.356 83.7452Z" fill="black"/>
<path d="M165.287 77.9961C165.275 80.1398 165.721 82.2615 166.596 84.2202C167.471 86.1788 168.755 87.9296 170.361 89.3561C172.558 91.3034 175.324 92.4984 178.253 92.7658C178.656 92.8046 179.067 92.8219 179.479 92.8219C181.571 92.8241 183.635 92.3456 185.511 91.4235C187.992 90.1643 190.071 88.2402 191.514 85.8679C192.956 83.4957 193.705 80.7694 193.676 77.9961C193.687 74.8481 192.72 71.7737 190.906 69.1956C189.632 67.3454 187.927 65.8296 185.937 64.7775C183.948 63.7253 181.732 63.168 179.479 63.1531C171.644 63.166 165.287 69.8042 165.287 77.9961Z" fill="#FBBEBE"/>
<path d="M184.705 125.909C184.705 125.909 176.038 118.032 173.633 110.898C172.1 106.442 170.169 102.132 167.865 98.0185L168.507 96.6848C168.507 96.6848 172.052 106.081 174.656 107.19C177.26 108.299 183.323 114.696 183.869 119.146L184.242 105.615L184.827 96.6848C184.827 96.6848 189.264 106.081 189.637 110.436C190.009 114.791 189.541 122.668 188.146 124.334C187.72 124.827 187.192 125.223 186.598 125.495C186.004 125.767 185.359 125.908 184.705 125.909Z" fill="#006494"/>
<path d="M166.565 96.4264L166.626 96.3698L166.565 96.4264Z" stroke="#00FFFF" stroke-miterlimit="10"/>
<path opacity="0.1" d="M153.348 226.729C153.348 226.729 153.578 228.74 153.873 231.299C156.941 232.836 160.438 233.457 163.987 233.509C167.737 233.514 171.475 233.07 175.12 232.189C178.793 231.317 182.401 230.194 185.919 228.826L186.144 228.183L185.277 226.081L163.307 223.319C163.307 223.319 163.48 225.045 163.671 227.786V227.847L153.348 226.729Z" fill="black"/>
<path d="M149.63 215.377C149.691 215.516 149.756 215.68 149.817 215.856C150.982 219.266 151.862 229.556 151.862 229.556C164.143 238.037 186.053 228.028 187.349 227.747C188.644 227.467 187.349 225.386 187.349 225.386C187.349 225.386 191.496 207.734 191.08 204.535C190.664 201.337 192.055 188.203 192.055 188.203L192.731 182.748L194.59 167.266L180.354 164.21C180.354 164.21 162.938 165.971 157.387 168.03C157.129 168.123 156.876 168.229 156.629 168.349C154.926 169.187 153.405 171.953 152.178 175.061C151.429 176.947 150.792 178.945 150.28 180.741C149.394 183.848 148.925 187.058 148.885 190.288C148.763 197.923 148.69 213.297 149.63 215.377Z" fill="#3F3D56"/>
<path opacity="0.1" d="M149.63 215.377C149.691 215.515 149.756 215.68 149.817 215.856C150.614 210.358 151.368 193.788 151.212 188.367C151.026 181.893 157.911 168.164 157.911 168.164L157.365 168.047C157.107 168.14 156.854 168.247 156.607 168.367C153.868 169.713 151.606 176.053 150.263 180.758C149.376 183.865 148.905 187.075 148.863 190.305C148.764 197.923 148.69 213.301 149.63 215.377Z" fill="black"/>
<path opacity="0.1" d="M152.157 175.078C152.512 175.311 159.714 179.929 171.818 185.078C184.242 190.357 185.589 168.906 185.589 168.906C186.668 170.773 187.468 172.787 187.964 174.884C188.653 177.625 191.357 181.129 192.731 182.765L194.59 167.283L180.354 164.227C180.354 164.227 162.938 165.988 157.387 168.047C157.129 168.14 156.876 168.247 156.629 168.366C154.904 169.204 153.383 171.957 152.157 175.078Z" fill="black"/>
<path d="M144.976 128.797C145.812 130.648 144.976 132.642 144.976 132.642C144.976 132.642 157.305 143.251 157.911 141.443C158.518 139.634 158.778 144.503 158.778 144.503C158.778 144.503 159.991 145.755 159.714 146.402C159.437 147.049 159.944 150.757 159.944 150.757C159.944 150.757 160.594 152.98 160.13 153.446C159.666 153.912 158.969 157.762 158.969 157.762L157.305 163.917L157.014 164.158C154.414 166.286 154.081 169.994 153.335 170.922C152.59 171.85 152.131 174.534 152.131 174.534C152.131 174.534 159.385 179.26 171.805 184.543C184.224 189.826 185.576 168.371 185.576 168.371C186.658 170.23 187.462 172.237 187.964 174.327C188.896 178.035 193.502 183.132 193.502 183.132C197.97 182.39 201.779 170.205 200.804 169.51C199.829 168.815 197.064 159.92 197.064 159.92C192.692 153.851 196.631 141.244 196.631 141.244C196.631 141.244 200.631 131.097 200.583 129.431C200.535 127.765 201.515 127.705 201.515 127.705L204.353 108.338C204.353 108.338 200.453 106.715 200.119 105.369C199.786 104.022 194.208 102.546 194.208 102.546C194.208 102.546 194.586 101.989 192.211 101.199C191.377 100.854 190.603 100.382 189.914 99.801C188.101 98.3311 186.385 96.7452 184.779 95.0533C184.779 95.0533 184.541 100.569 185.698 103.759C186.855 106.948 187.7 116.371 187.791 117.065C187.882 117.76 184.441 125.033 184.441 125.033L182.616 122.543C179.739 118.624 174.439 111.424 174.071 111.088C173.555 110.626 169.096 98.2343 168.476 96.6891C168.247 96.1237 167.926 95.9425 167.61 95.9381C167.36 95.9447 167.118 96.0227 166.912 96.1626C166.804 96.2291 166.701 96.3041 166.604 96.387L166.496 96.6848L166.47 96.7452C166.376 96.9992 166.266 97.2471 166.141 97.4876C163.151 103.332 151.996 107.514 151.996 107.514C148.417 108.766 147.81 111.299 147.81 111.299C147.81 111.299 148.46 113.539 147.021 114.653C145.583 115.766 146.185 118.822 146.185 118.822C146.185 118.822 144.231 123.224 144.733 123.872C145.127 124.428 145.472 125.018 145.765 125.633C145.765 125.633 144.14 126.928 144.976 128.797Z" fill="#65617D"/>
<path opacity="0.1" d="M181.121 131.33C181.121 131.33 200.15 134.295 199.266 126.151C198.46 118.723 191.465 103.098 190.226 100.379C188.412 98.909 186.695 97.3231 185.087 95.6317C185.087 95.6317 184.853 101.148 186.005 104.337C187.158 107.527 188.007 116.945 188.098 117.639C188.189 118.334 184.749 125.611 184.749 125.611L181.121 131.33Z" fill="black"/>
<path opacity="0.1" d="M180.562 130.778C180.562 130.778 199.591 133.738 198.707 125.598C197.901 118.17 190.906 102.546 189.667 99.8269C187.854 98.357 186.138 96.7711 184.532 95.0792C184.532 95.0792 184.294 100.595 185.446 103.785C186.599 106.974 187.448 116.396 187.544 117.091C187.639 117.786 184.194 125.059 184.194 125.059L180.562 130.778Z" fill="black"/>
<path d="M180.844 130.778C180.844 130.778 199.868 133.738 198.984 125.598C198.182 118.17 191.184 102.546 189.944 99.8269C188.131 98.357 186.416 96.7711 184.809 95.0792C184.809 95.0792 184.571 100.595 185.728 103.785C186.885 106.974 187.73 116.396 187.821 117.091C187.912 117.786 184.471 125.059 184.471 125.059L180.844 130.778Z" fill="#65617D"/>
<path opacity="0.1" d="M165.599 98.0487C165.599 98.1048 165.629 98.9119 165.668 100.155C165.742 102.555 165.859 106.629 165.92 110.466C165.989 114.912 165.989 119.003 165.772 119.703C165.261 121.325 167.77 125.357 167.77 125.357L180.285 131.33L183.652 126L182.088 123.095C179.21 119.176 173.911 111.977 173.542 111.64C173.378 111.493 172.806 110.121 172.091 108.274C170.565 104.35 168.368 98.2904 167.948 97.2416C167.766 96.8892 167.456 96.6191 167.081 96.4863C166.955 96.4632 166.825 96.4721 166.703 96.5121C166.581 96.552 166.471 96.6218 166.383 96.715C166.211 96.8853 166.065 97.0803 165.95 97.2934V97.315C165.822 97.5452 165.714 97.7865 165.629 98.0358L165.599 98.0487Z" fill="black"/>
<path opacity="0.1" d="M166.44 97.4919C166.44 97.5437 166.47 98.3552 166.505 99.5939C166.578 101.994 166.695 106.068 166.756 109.905C166.83 114.351 166.83 118.442 166.609 119.141C166.097 120.764 168.611 124.796 168.611 124.796L181.121 130.773L184.497 125.443L182.933 122.538C180.055 118.619 174.76 111.42 174.387 111.083C174.223 110.937 173.655 109.564 172.936 107.717C171.41 103.798 169.213 97.7336 168.793 96.6848C168.61 96.3338 168.3 96.0652 167.926 95.9338C167.8 95.9082 167.67 95.9154 167.548 95.9547C167.425 95.994 167.315 96.0641 167.228 96.1583C167.055 96.3295 166.909 96.5259 166.795 96.7409C166.666 96.9725 166.559 97.2152 166.474 97.466L166.44 97.4919Z" fill="black"/>
<path d="M166.158 97.4919C166.158 97.5437 166.188 98.3551 166.227 99.5939C166.301 101.994 166.414 106.068 166.479 109.905C166.548 114.351 166.548 118.442 166.327 119.141C165.82 120.764 168.329 124.796 168.329 124.796L180.844 130.773L184.207 125.439C184.207 125.439 183.613 124.325 182.647 122.534C179.769 118.615 174.47 111.416 174.101 111.079C173.937 110.932 173.365 109.56 172.65 107.712C171.124 103.793 168.927 97.7293 168.507 96.6805C168.325 96.3289 168.015 96.0602 167.64 95.9295C167.514 95.9047 167.384 95.9123 167.262 95.9516C167.14 95.9908 167.03 96.0605 166.942 96.1539C166.768 96.3238 166.621 96.5206 166.509 96.7366C166.38 96.9682 166.273 97.2109 166.188 97.4617L166.158 97.4919Z" fill="#65617D"/>
<path opacity="0.1" d="M182.565 135.318C183.144 135.318 183.613 134.509 183.613 133.51C183.613 132.511 183.144 131.701 182.565 131.701C181.985 131.701 181.516 132.511 181.516 133.51C181.516 134.509 181.985 135.318 182.565 135.318Z" fill="black"/>
<path d="M182.565 135.038C183.144 135.038 183.613 134.228 183.613 133.229C183.613 132.23 183.144 131.421 182.565 131.421C181.985 131.421 181.516 132.23 181.516 133.229C181.516 134.228 181.985 135.038 182.565 135.038Z" fill="#006494"/>
<path opacity="0.1" d="M185.256 154.706C185.835 154.706 186.304 153.896 186.304 152.898C186.304 151.899 185.835 151.089 185.256 151.089C184.676 151.089 184.207 151.899 184.207 152.898C184.207 153.896 184.676 154.706 185.256 154.706Z" fill="black"/>
<path opacity="0.1" d="M184.211 144.442C184.79 144.442 185.26 143.633 185.26 142.634C185.26 141.635 184.79 140.826 184.211 140.826C183.632 140.826 183.163 141.635 183.163 142.634C183.163 143.633 183.632 144.442 184.211 144.442Z" fill="black"/>
<path opacity="0.1" d="M186.304 163.325C186.883 163.325 187.353 162.516 187.353 161.517C187.353 160.518 186.883 159.708 186.304 159.708C185.725 159.708 185.256 160.518 185.256 161.517C185.256 162.516 185.725 163.325 186.304 163.325Z" fill="black"/>
<path d="M185.256 154.43C185.835 154.43 186.304 153.62 186.304 152.621C186.304 151.623 185.835 150.813 185.256 150.813C184.676 150.813 184.207 151.623 184.207 152.621C184.207 153.62 184.676 154.43 185.256 154.43Z" fill="#006494"/>
<path d="M184.211 144.166C184.79 144.166 185.26 143.357 185.26 142.358C185.26 141.359 184.79 140.549 184.211 140.549C183.632 140.549 183.163 141.359 183.163 142.358C183.163 143.357 183.632 144.166 184.211 144.166Z" fill="#006494"/>
<path d="M186.304 163.049C186.883 163.049 187.353 162.239 187.353 161.241C187.353 160.242 186.883 159.432 186.304 159.432C185.725 159.432 185.256 160.242 185.256 161.241C185.256 162.239 185.725 163.049 186.304 163.049Z" fill="#006494"/>
<path d="M163.718 110.643C163.991 110.436 165.257 110.151 166.479 109.909C167.701 109.668 168.949 109.478 168.949 109.478C169.996 108.569 171.278 107.971 172.65 107.751C171.124 103.832 168.927 97.7682 168.507 96.7194C168.325 96.3678 168.015 96.099 167.64 95.9684C167.514 95.9436 167.384 95.9512 167.262 95.9905C167.14 96.0297 167.03 96.0994 166.942 96.1928C166.768 96.3627 166.621 96.5594 166.509 96.7755L166.253 99.6112L166.184 100.371C166.184 100.371 164.16 101.342 164.581 102.96C165.001 104.579 163.159 111.062 163.718 110.643Z" fill="#006494"/>
<path opacity="0.1" d="M184.827 96.9653C184.827 96.9653 191.708 106.819 191.634 108.766C191.561 110.712 190.521 108.766 190.521 108.766C190.521 108.766 187.613 100.164 184.22 106.681L184.827 96.9653Z" fill="black"/>
<path d="M184.827 96.6848C184.827 96.6848 191.708 106.543 191.634 108.489C191.561 110.436 190.521 108.489 190.521 108.489C190.521 108.489 187.613 99.8873 184.22 106.4L184.827 96.6848Z" fill="#006494"/>
<path d="M203.361 109.374L204.384 108.373C204.384 108.373 207.057 109.374 207.465 110.669C207.872 111.964 208.999 111.627 208.999 111.627C209.483 111.879 209.999 112.065 210.533 112.18C210.966 112.18 211.581 114.126 211.581 114.126C211.581 114.126 215.976 115.24 216.348 115.309C216.721 115.378 233.929 131.308 233.929 131.308C233.929 131.308 224.023 132.823 222.489 132.198C220.955 131.572 219.416 131.464 218.649 131.308C217.882 131.153 200.579 127.471 200.579 127.471L203.361 109.374Z" fill="#65617D"/>
<path opacity="0.1" d="M205.523 100.742L207.335 103.038L215.36 98.4976L213.761 96.6244C212.331 98.7867 209.783 101.113 205.523 100.742Z" fill="black"/>
<path d="M231.342 130.45L233.92 131.313C233.92 131.313 240.204 130.743 239.784 128.033C239.363 125.322 236.642 120.359 236.642 120.359L232.742 113.716C232.742 113.716 231.203 111.895 231.346 111.312C231.489 110.729 229.531 109.754 229.531 109.754C229.531 109.754 228.413 108.295 228.343 107.596C228.274 106.897 221.99 101.605 221.99 101.605C221.99 101.605 219.824 99.7967 220.313 93.6808H215.36C215.36 93.6808 213.085 102.788 204.384 101.117L216.34 115.296L231.342 130.45Z" fill="#65617D"/>
<path opacity="0.1" d="M133.319 204.328C135.69 205.731 138.396 206.476 141.154 206.486C141.7 203.771 141.956 201.739 141.956 201.739H134.346C134.346 201.739 133.895 202.779 133.319 204.328Z" fill="black"/>
<path d="M147.186 130.778L144.976 132.629C144.976 132.629 145.409 133.648 144.655 134.205C143.901 134.761 144.655 139 144.655 139C144.635 139.57 144.421 140.116 144.049 140.549C143.42 141.292 144.049 148.521 144.049 148.521C143.872 148.881 143.609 149.191 143.282 149.423C142.848 149.63 141.605 156.445 141.956 156.791C142.307 157.136 136.651 173.541 136.651 173.541C136.651 173.541 136.79 176.39 136.023 176.878C135.256 177.366 135.117 180.628 135.117 180.628C135.117 180.628 135.464 183.546 134.069 184.103C132.673 184.66 132.396 194.531 132.396 194.531C132.396 194.531 130.511 199.602 129.393 200.435C129.393 200.435 134.697 207.665 144.954 205.58C144.954 205.58 145.388 196.473 146.627 192.86L150.328 174.444C150.328 174.444 152.56 166.588 153.396 162.281C154.232 157.973 157.911 141.43 157.911 141.43V135.525L147.186 130.778Z" fill="#65617D"/>
<path opacity="0.1" d="M136.305 182.156C136.575 182.156 136.794 181.722 136.794 181.185C136.794 180.649 136.575 180.214 136.305 180.214C136.034 180.214 135.815 180.649 135.815 181.185C135.815 181.722 136.034 182.156 136.305 182.156Z" fill="black"/>
<path opacity="0.1" d="M134.35 190.426C134.621 190.426 134.84 189.991 134.84 189.455C134.84 188.919 134.621 188.484 134.35 188.484C134.08 188.484 133.861 188.919 133.861 189.455C133.861 189.991 134.08 190.426 134.35 190.426Z" fill="black"/>
<path opacity="0.1" d="M132.886 198.001C133.156 198.001 133.375 197.566 133.375 197.03C133.375 196.493 133.156 196.059 132.886 196.059C132.615 196.059 132.396 196.493 132.396 197.03C132.396 197.566 132.615 198.001 132.886 198.001Z" fill="black"/>
<path opacity="0.1" d="M135.325 186.326C135.596 186.326 135.815 185.891 135.815 185.355C135.815 184.818 135.596 184.383 135.325 184.383C135.055 184.383 134.836 184.818 134.836 185.355C134.836 185.891 135.055 186.326 135.325 186.326Z" fill="black"/>
<path opacity="0.1" d="M133.371 194.388C133.641 194.388 133.861 193.953 133.861 193.417C133.861 192.881 133.641 192.446 133.371 192.446C133.101 192.446 132.881 192.881 132.881 193.417C132.881 193.953 133.101 194.388 133.371 194.388Z" fill="black"/>
<path d="M136.305 181.88C136.575 181.88 136.794 181.445 136.794 180.909C136.794 180.373 136.575 179.938 136.305 179.938C136.034 179.938 135.815 180.373 135.815 180.909C135.815 181.445 136.034 181.88 136.305 181.88Z" fill="#006494"/>
<path d="M134.35 190.15C134.621 190.15 134.84 189.715 134.84 189.179C134.84 188.642 134.621 188.208 134.35 188.208C134.08 188.208 133.861 188.642 133.861 189.179C133.861 189.715 134.08 190.15 134.35 190.15Z" fill="#006494"/>
<path d="M132.886 197.724C133.156 197.724 133.375 197.29 133.375 196.753C133.375 196.217 133.156 195.782 132.886 195.782C132.615 195.782 132.396 196.217 132.396 196.753C132.396 197.29 132.615 197.724 132.886 197.724Z" fill="#006494"/>
<path d="M135.325 186.05C135.596 186.05 135.815 185.615 135.815 185.078C135.815 184.542 135.596 184.107 135.325 184.107C135.055 184.107 134.836 184.542 134.836 185.078C134.836 185.615 135.055 186.05 135.325 186.05Z" fill="#006494"/>
<path d="M133.371 194.112C133.641 194.112 133.861 193.677 133.861 193.141C133.861 192.605 133.641 192.17 133.371 192.17C133.101 192.17 132.881 192.605 132.881 193.141C132.881 193.677 133.101 194.112 133.371 194.112Z" fill="#006494"/>
<path opacity="0.1" d="M171.688 144.166C171.688 144.166 164.147 142.871 161.842 144.166C159.536 145.461 171.688 144.166 171.688 144.166Z" fill="black"/>
<path opacity="0.1" d="M166.617 151.508C166.617 151.508 162.717 145.185 161.552 147.192C160.386 149.199 166.617 151.508 166.617 151.508Z" fill="black"/>
<path opacity="0.1" d="M148.373 158.53C148.165 158.737 139.858 168.19 139.932 168.815C140.006 169.441 148.373 158.53 148.373 158.53Z" fill="black"/>
<path opacity="0.1" d="M222.896 125.029C222.827 125.24 220.66 129.548 222.094 130.035C223.529 130.523 222.896 125.029 222.896 125.029Z" fill="black"/>
<path opacity="0.1" d="M216.409 119.051C216.409 119.051 213.128 120.233 212.569 120.777C212.01 121.321 216.409 119.051 216.409 119.051Z" fill="black"/>
<path opacity="0.1" d="M227.503 115.848C225.968 115.779 220.526 114.316 220.313 114.804C220.101 115.292 227.503 115.848 227.503 115.848Z" fill="black"/>
<path opacity="0.1" d="M170.361 89.3561C170.132 94.7598 167.025 99.5032 167.025 99.5032L172.225 112.102V115.766C175.761 116.137 179.488 115.374 182.062 112.978C180.021 112.313 178.777 110.293 177.828 108.373C176.721 106.117 175.775 103.786 174.998 101.398C174.478 99.7967 174.21 97.6646 175.64 96.7625C176.294 96.3309 177.161 96.3309 177.767 95.8475C178.552 95.2217 178.604 94.0347 178.335 93.0723C178.305 92.9687 178.274 92.8651 178.24 92.7658C177.607 90.8926 176.116 89.4122 175.206 87.6426C174.143 85.5093 173.946 83.05 174.656 80.7757C174.887 80.0136 175.224 79.2872 175.657 78.6177C176.529 77.297 177.727 76.2211 179.136 75.4927C180.545 74.7643 182.118 74.4077 183.704 74.457C184.515 74.4915 185.507 74.5433 185.919 73.8527C186.239 73.3261 186.01 72.6442 186.114 72.0356C186.421 70.1797 188.714 69.7697 190.88 69.1913C189.606 67.3411 187.901 65.8253 185.911 64.7732C183.922 63.721 181.706 63.1637 179.453 63.1488C171.618 63.1488 165.261 69.787 165.261 77.9789C165.25 80.1275 165.699 82.2537 166.579 84.2157C167.458 86.1776 168.748 87.9301 170.361 89.3561Z" fill="black"/>
<path d="M185.572 72.0399C185.468 72.6485 185.698 73.3348 185.381 73.8613C184.948 74.5476 183.973 74.4958 183.167 74.4613C181.576 74.3916 179.995 74.7388 178.582 75.468C177.168 76.1973 175.971 77.2832 175.111 78.6173C174.25 79.9513 173.756 81.4869 173.678 83.0706C173.6 84.6543 173.94 86.2308 174.665 87.6426C175.618 89.5072 177.221 91.0523 177.789 93.0679C178.058 94.0347 178.006 95.226 177.221 95.8475C176.619 96.3352 175.748 96.3482 175.094 96.7625C173.664 97.6646 173.932 99.7838 174.452 101.398C175.229 103.787 176.176 106.118 177.286 108.373C178.231 110.293 179.453 112.313 181.516 112.978C178.534 115.749 174.019 116.345 170.032 115.503C166.045 114.661 162.444 112.594 158.921 110.548C157.474 109.711 155.944 108.783 155.238 107.272C154.276 105.218 155.134 102.831 155.745 100.651C155.956 100.108 155.982 99.5103 155.818 98.9508C155.545 98.2947 154.835 97.9538 154.176 97.6559C151.394 96.4992 156.776 95.4979 154.176 93.9614C151.576 92.4248 149.21 90.3186 148.022 87.5563C145.999 82.8561 147.823 77.2495 151.056 73.2743C154.289 69.2992 150.501 66.5283 154.635 63.4941C157.27 61.5561 159.836 59.4672 162.765 58.0169C165.743 56.5873 169.003 55.8345 172.308 55.8129C175.614 55.7912 178.883 56.5013 181.88 57.8918C184.883 59.2945 187.331 61.5561 190.278 63.0711C191.73 63.8178 194.915 64.763 194.105 66.8347C192.878 69.9941 186.118 68.764 185.572 72.0399Z" fill="#3F3D56"/>
<path opacity="0.1" d="M156.429 186.563C156.429 186.563 166.83 196.015 164.615 196.015C162.401 196.015 156.429 186.563 156.429 186.563Z" fill="black"/>
<path opacity="0.1" d="M154.939 190.271C154.939 190.271 161.825 196.745 159.779 197.31C157.734 197.876 154.939 190.271 154.939 190.271Z" fill="black"/>
<path opacity="0.1" d="M152.092 174.625C152.092 174.625 152.664 174.996 153.764 175.652C155.632 173.788 158.371 170.788 159.259 168.371C160.654 164.568 160.095 153.545 160.095 153.545C159.627 154.007 158.93 157.861 158.93 157.861L157.27 164.016L156.98 164.258C154.38 166.385 154.046 170.093 153.301 171.021C152.555 171.949 152.092 174.625 152.092 174.625Z" fill="black"/>
<path d="M44.47 324.739C46.5522 324.739 48.2401 323.057 48.2401 320.984C48.2401 318.91 46.5522 317.228 44.47 317.228C42.3878 317.228 40.6999 318.91 40.6999 320.984C40.6999 323.057 42.3878 324.739 44.47 324.739Z" fill="#3F3D56"/>
<path d="M77.5473 307.077C79.6295 307.077 81.3174 305.396 81.3174 303.322C81.3174 301.248 79.6295 299.567 77.5473 299.567C75.4652 299.567 73.7772 301.248 73.7772 303.322C73.7772 305.396 75.4652 307.077 77.5473 307.077Z" fill="#3F3D56"/>
<path d="M22.3347 292.057C26.8848 291.828 38.0478 291.552 40.2839 290.439C42.5199 289.325 66.8003 263.61 66.8003 263.61L74.0546 253.048L85.9196 248.046L95.8259 236.777L103.648 231.796C103.648 231.796 101.966 232.322 101.828 230.661C101.792 230.232 101.687 229.812 101.516 229.418C101.324 228.934 101.012 228.506 100.61 228.175C100.336 227.949 100.005 227.803 99.6535 227.753C99.3018 227.703 98.9431 227.75 98.6166 227.89C96.8052 228.585 72.9799 232.616 72.9799 232.616C72.9799 232.616 65.5436 233.867 58.7054 242.901C54.7927 248.122 50.4438 253.003 45.705 257.494L27.1405 279.597C27.1405 279.597 17.7845 292.286 22.3347 292.057Z" fill="#006494"/>
<path d="M22.2784 297.525L40.6999 320.983L41.3586 320.677L76.2863 304.461L90.5218 290.145C90.5218 290.145 121.367 257.774 123.738 252.893C126.108 248.011 116.926 239.966 116.926 239.966C109.697 227.316 105.737 231.209 105.737 231.209L70.7308 240.795H70.7048L70.5271 241.015C67.8101 243.894 37.0338 276.519 27.0018 286.735L26.9802 286.761C25.5544 288.216 24.5491 289.213 24.1157 289.597C20.467 292.808 22.2784 297.525 22.2784 297.525Z" fill="#006494"/>
<path opacity="0.1" d="M22.2783 297.526L40.6999 320.983L41.3586 320.677C51.1045 308.493 75.1336 278.686 81.8721 272.609C90.383 264.926 88.2943 260.135 88.2943 260.135L81.0358 250.269C75.5626 240.16 71.1121 240.739 70.7351 240.812H70.7091L70.5271 241.015L26.9888 286.74L26.9671 286.765C25.5414 288.22 24.536 289.217 24.1027 289.601C20.4669 292.808 22.2783 297.526 22.2783 297.526Z" fill="black"/>
<path d="M106.573 239.565L103.5 236.923C103.5 236.923 96.5279 235.404 90.6647 242.206L92.7578 244.71C92.7578 244.71 98.0576 238.594 106.573 239.565Z" fill="#3F3D56"/>
<path opacity="0.1" d="M106.573 239.565L103.5 236.923C103.5 236.923 96.5279 235.404 90.6647 242.206L92.7578 244.71C92.7578 244.71 98.0576 238.594 106.573 239.565Z" fill="black"/>
<path d="M111.738 254.857L141.6 216.228L139.789 215.52L109.364 253.467L111.738 254.857Z" fill="#65617D"/>
<path d="M101.412 258.051L131.529 219.551L130.021 217.604L98.6166 256.385L101.412 258.051Z" fill="#65617D"/>
<path d="M131.135 220.57C130.81 220.466 127.876 217.928 127.876 217.928C130.096 214.559 133.223 211.879 136.898 210.194C140.136 208.718 143.758 207.565 145.232 208.899C145.232 208.899 147.788 212.019 144.764 214.445L142.597 213.901C142.597 213.901 139.338 210.289 134.034 217.143L131.135 220.57Z" fill="#3F3D56"/>
<path d="M144.764 214.441L140.812 218.485L137.834 217.138L141.301 212.74L143.139 213.293L144.764 214.441Z" fill="#3F3D56"/>
<path opacity="0.1" d="M53.124 254.852C53.3536 254.619 66.7397 241.209 70.6138 238.451C74.0026 236.043 95.7913 230.773 101.516 229.418C101.324 228.934 101.012 228.506 100.61 228.175C95.1499 229.642 77.5604 234.364 72.0092 235.767C65.4527 237.42 53.3146 254.58 53.124 254.852Z" fill="black"/>
<path opacity="0.1" d="M102.668 232.063L70.7958 240.462L22.3347 292.057V290.577L69.8684 240.186L102.668 232.063Z" fill="black"/>
<path opacity="0.1" d="M168.208 115.058C172.199 115.9 176.714 115.304 179.696 112.534C177.655 111.865 176.411 109.849 175.462 107.928C174.353 105.673 173.408 103.342 172.632 100.953C172.108 99.3521 171.839 97.22 173.269 96.3179C173.928 95.8863 174.795 95.8863 175.401 95.4029C176.186 94.7771 176.238 93.5902 175.965 92.6234C175.401 90.6077 173.798 89.0626 172.84 87.198C172.115 85.7862 171.775 84.2098 171.854 82.626C171.932 81.0423 172.426 79.5068 173.286 78.1727C174.147 76.8386 175.344 75.7527 176.757 75.0235C178.171 74.2942 179.752 73.947 181.342 74.0167C182.148 74.0512 183.145 74.103 183.557 73.4167C183.873 72.8859 183.648 72.2039 183.748 71.5954C184.298 68.3194 191.054 69.5495 192.276 66.416C193.082 64.3443 189.901 63.3948 188.449 62.6524C185.503 61.1331 183.054 58.8715 180.051 57.4731C179.557 57.2443 179.05 57.0415 178.539 56.8386C179.629 57.147 180.694 57.5395 181.724 58.0126C184.727 59.4153 187.175 61.677 190.122 63.1919C191.574 63.9429 194.759 64.8881 193.949 66.9599C192.731 70.0933 185.971 68.8633 185.425 72.1392C185.321 72.7477 185.55 73.434 185.234 73.9606C184.801 74.6468 183.826 74.595 183.02 74.5605C181.429 74.4924 179.848 74.8411 178.435 75.5717C177.022 76.3024 175.826 77.3895 174.967 78.7245C174.108 80.0594 173.616 81.5955 173.539 83.1794C173.462 84.7632 173.804 86.3394 174.53 87.7505C175.484 89.6194 177.087 91.1645 177.655 93.1801C177.923 94.1469 177.871 95.3382 177.087 95.9597C176.485 96.4474 175.618 96.4604 174.959 96.8747C173.529 97.7768 173.798 99.896 174.318 101.51C175.088 103.899 176.028 106.23 177.13 108.485C178.075 110.406 179.319 112.421 181.36 113.09C178.378 115.861 173.863 116.453 169.876 115.615C168.807 115.388 167.757 115.08 166.734 114.696C167.228 114.834 167.714 114.955 168.208 115.058Z" fill="black"/>
</g>
<defs>
<linearGradient id="paint0_linear" x1="131.438" y1="336.755" x2="131.438" y2="55.7078" gradientUnits="userSpaceOnUse">
<stop stop-color="#808080" stop-opacity="0.25"/>
<stop offset="0.54" stop-color="#808080" stop-opacity="0.12"/>
<stop offset="1" stop-color="#808080" stop-opacity="0.1"/>
</linearGradient>
<clipPath id="clip0">
<rect width="408" height="356" fill="white"/>
</clipPath>
</defs>
</svg>
