<svg width="32" height="32" viewBox="0 0 32 32" fill="none" xmlns="http://www.w3.org/2000/svg">
<g clip-path="url(#clip0)">
<path d="M28.0009 25.9999C28.0009 27.1039 27.1049 27.9999 26.0009 27.9999H6.00099C4.89699 27.9999 4.00099 27.1039 4.00099 25.9999V6.00002C4.00099 4.89602 4.89699 4.00002 6.00099 4.00002H12.001L18.6669 3.77832e-05H4.00099C1.791 3.77832e-05 0.00100708 1.79003 0.00100708 4.00002V27.9999C0.00100708 30.2099 1.791 31.9999 4.00099 31.9999H28.0009C30.2109 31.9999 32.0009 30.2099 32.0009 27.9999V11.5L28.0009 14.5V25.9999ZM21.9689 3.92002C21.949 4.12202 21.9389 4.08802 21.935 3.90802C20.949 3.90002 8.51103 4.88802 7.99298 20.182C8.14098 20.948 10.675 10.084 21.9969 7.83807C22.0009 8.00007 22.0009 12.0001 22.0009 12.0001L32.0009 6.00007L22.0009 9.33386e-05C22.0329 -0.0199066 21.9249 3.18008 21.9349 3.90808C22.0089 3.91002 22.0349 3.91402 21.9689 3.92002ZM8.02698 19.428C7.99698 19.776 7.99498 19.9779 7.99498 19.9779C7.99698 19.784 8.02298 19.618 8.02698 19.428Z" fill="white"/>
</g>
<defs>
<clipPath id="clip0">
<rect width="32" height="32" fill="white"/>
</clipPath>
</defs>
</svg>
