<svg width="32" height="32" viewBox="0 0 32 32" fill="none" xmlns="http://www.w3.org/2000/svg">
<path d="M28.202 3.84766H3.79812C1.70386 3.84766 0 5.48393 0 7.49513V24.505C0 26.5161 1.70386 28.1524 3.79812 28.1524H28.202C30.2962 28.1524 32 26.5161 32 24.505V7.49513C32 5.48393 30.2962 3.84766 28.202 3.84766ZM28.202 24.9323H3.79812C3.49028 24.9323 3.22029 24.7327 3.22029 24.505V9.74441L14.2575 19.0626C14.4838 19.2537 14.7715 19.3589 15.0678 19.3589L16.9319 19.359C17.228 19.359 17.5159 19.2537 17.7423 19.0626L28.78 9.74407V24.5051C28.7798 24.7327 28.5097 24.9323 28.202 24.9323ZM16 16.1615L5.26498 7.06778H26.7351L16 16.1615Z" fill="white"/>
</svg>
