<svg width="32" height="32" viewBox="0 0 32 32" fill="none" xmlns="http://www.w3.org/2000/svg">
<g clip-path="url(#clip0)">
<path d="M25.2908 9.62617C26.0321 9.96651 26.8179 10.3376 26.8304 10.3435C26.9493 10.3997 27.0747 10.4263 27.1981 10.4263C27.5207 10.4263 27.8301 10.2439 27.9771 9.93269C28.1806 9.50257 27.9969 8.98919 27.5665 8.78571C27.5342 8.77088 27.2228 8.62335 26.8137 8.43262C26.4781 9.00168 25.9369 9.43466 25.2908 9.62617Z" fill="white"/>
<path d="M13.2246 9.55463L12.8509 9.89575L12.3584 9.43181C12.2564 9.4149 12.1562 9.39304 12.0583 9.36468C11.8549 9.45679 11.6124 9.58299 11.3618 9.73079C11.38 9.62306 11.3792 9.51378 11.3579 9.40787C11.4692 9.34282 11.5788 9.28324 11.6865 9.22651C11.1117 8.96371 10.6462 8.50575 10.3725 7.93721C10.2211 8.02932 10.0725 8.12351 9.93067 8.21927C9.72328 8.10035 9.52371 7.98717 9.36629 7.89844C9.1014 8.47218 8.64188 8.93639 8.07178 9.20804C8.53832 9.45055 9.67307 10.0795 9.98817 10.3017C10.0571 10.3503 10.1315 10.3834 10.2078 10.4099V15.0061C10.2078 15.4011 10.2713 15.7771 10.3897 16.1198C10.3863 16.1565 10.3842 16.1934 10.3842 16.2307V17.2629H10.391C10.3904 17.2777 10.3865 17.2918 10.3865 17.3069L10.3868 26.3843C10.3868 27.0028 10.8885 27.5045 11.5072 27.5045C12.126 27.5045 12.6274 27.0028 12.6274 26.3843L12.6271 17.3069C12.6271 17.2918 12.6232 17.2777 12.6227 17.2629H12.7911C12.7906 17.2777 12.7867 17.2918 12.7867 17.3066L12.7861 26.3843C12.7861 27.0028 13.2875 27.5045 13.9063 27.5045C14.5248 27.5045 15.0267 27.0028 15.0267 26.3843L15.0273 17.3066C15.0273 17.2912 15.0234 17.2777 15.0228 17.2626H15.0358L15.0366 16.0894C15.0366 16.0894 15.2349 15.824 15.2349 14.8617C15.2349 14.3447 15.2875 12.4171 15.2875 12.4171L15.2929 10.3092C15.2812 10.3038 13.6896 9.43129 13.6896 9.43129L13.2246 9.55463Z" fill="white"/>
<path d="M7.42821 9.50017L6.93564 9.87772L6.56199 9.53633C5.74652 9.90816 4.76555 10.3716 4.75228 10.3778C4.60969 10.4452 4.45773 10.4796 4.30083 10.4796C4.12701 10.4796 3.9597 10.4338 3.81061 10.3555L3.80722 10.3588C2.86373 9.60191 2.07688 8.29126 1.80106 7.72715C1.57234 7.25618 1.0051 7.05999 0.534134 7.28844C0.0634268 7.51716 -0.133026 8.08466 0.0956919 8.55537C0.263002 8.89962 1.7956 11.9385 4.10802 12.6624C4.2415 12.704 4.37499 12.735 4.50899 12.7597C4.52408 13.3426 4.55193 14.4669 4.55193 14.844C4.55193 15.8064 4.74994 16.0718 4.74994 16.0718L4.75072 17.2448H4.76789C4.76737 17.2602 4.76321 17.2745 4.76321 17.2901L4.76373 26.3673C4.76373 26.9858 5.26514 27.4877 5.88416 27.4877C6.50267 27.4877 7.00434 26.9858 7.00434 26.3673L7.00408 17.2896C7.00408 17.2742 7.00017 17.2602 6.99939 17.2448H7.168C7.16748 17.2602 7.16332 17.2745 7.16332 17.2896L7.1628 26.3673C7.1628 26.9858 7.66421 27.4877 8.28297 27.4877C8.90174 27.4877 9.40315 26.9863 9.40341 26.3673L9.40393 17.2901C9.40393 17.2745 9.40002 17.2602 9.39924 17.2448H9.40211V16.2126C9.40211 16.1749 9.39976 16.1385 9.39664 16.1018C9.51503 15.7588 9.57826 15.3828 9.57826 14.9878V10.3058C9.17547 10.338 7.9624 9.45749 7.81357 9.38984C7.71625 9.4182 7.53021 9.48299 7.42821 9.50017Z" fill="white"/>
<path d="M4.27046 10.178C4.39666 10.178 4.52494 10.1509 4.64645 10.0932C4.65894 10.0872 5.44501 9.71586 6.19544 9.37109C5.5249 9.18505 4.96 8.74713 4.60716 8.16479C4.21738 8.34694 3.92439 8.48484 3.89342 8.49994C3.45342 8.70758 3.26529 9.23319 3.47294 9.67293C3.62385 9.99168 3.94052 10.178 4.27046 10.178Z" fill="white"/>
<path d="M12.8519 9.25775C14.2004 9.25775 15.2936 8.16455 15.2936 6.81601C15.2936 5.46747 14.2004 4.37427 12.8519 4.37427C11.5034 4.37427 10.4102 5.46747 10.4102 6.81601C10.4102 8.16455 11.5034 9.25775 12.8519 9.25775Z" fill="white"/>
<path d="M6.96323 9.25775C8.31177 9.25775 9.40497 8.16455 9.40497 6.81601C9.40497 5.46747 8.31177 4.37427 6.96323 4.37427C5.61469 4.37427 4.52148 5.46747 4.52148 6.81601C4.52148 8.16455 5.61469 9.25775 6.96323 9.25775Z" fill="white"/>
<path d="M19.2144 9.64081L18.8404 9.98194L18.3481 9.51799C18.2459 9.50108 18.146 9.47922 18.0479 9.45086C17.8446 9.54323 17.6021 9.66917 17.3513 9.81697C17.3695 9.70924 17.3685 9.60022 17.3471 9.49406C17.4588 9.42926 17.5683 9.36942 17.6758 9.31269C17.101 9.04989 16.6355 8.59193 16.3618 8.02339C16.2103 8.1155 16.0617 8.20969 15.9199 8.30571C15.7125 8.1868 15.5127 8.07361 15.3555 7.98462C15.0907 8.55837 14.6311 9.02257 14.061 9.29422C14.5276 9.53673 15.6623 10.1656 15.9774 10.3879C16.0464 10.4365 16.1208 10.4696 16.197 10.4964V15.0923C16.197 15.4873 16.2605 15.8633 16.3787 16.2062C16.3753 16.2427 16.3732 16.2794 16.3732 16.3171V17.3493H16.3802C16.3797 17.3642 16.3758 17.3782 16.3758 17.3936L16.3761 26.4707C16.3761 27.0897 16.8777 27.5909 17.4965 27.5909C18.115 27.5909 18.6169 27.0897 18.6169 26.4707L18.6167 17.393C18.6167 17.3777 18.6125 17.3642 18.612 17.3491H18.7803C18.7798 17.3642 18.7757 17.3777 18.7757 17.3928L18.7751 26.4702C18.7751 27.0892 19.2765 27.5904 19.8956 27.5909C20.5141 27.5909 21.016 27.0892 21.016 26.4707L21.0165 17.3933C21.0165 17.3782 21.0126 17.3642 21.0121 17.3491H21.0251L21.0259 16.1758C21.0259 16.1758 21.2242 15.9104 21.2242 14.9482C21.2242 14.4311 21.2767 12.5033 21.2767 12.5033L21.2822 10.3957C21.2705 10.3899 19.6788 9.51747 19.6788 9.51747L19.2144 9.64081Z" fill="white"/>
<path d="M18.8409 9.34345C20.1894 9.34345 21.2827 8.25024 21.2827 6.9017C21.2827 5.55317 20.1894 4.45996 18.8409 4.45996C17.4924 4.45996 16.3992 5.55317 16.3992 6.9017C16.3992 8.25024 17.4924 9.34345 18.8409 9.34345Z" fill="white"/>
<path d="M24.7843 9.37836C26.1328 9.37836 27.226 8.28515 27.226 6.93662C27.226 5.58808 26.1328 4.49487 24.7843 4.49487C23.4357 4.49487 22.3425 5.58808 22.3425 6.93662C22.3425 8.28515 23.4357 9.37836 24.7843 9.37836Z" fill="white"/>
<path d="M31.4674 7.21802C30.9966 6.98878 30.4299 7.18445 30.1999 7.65438C29.8962 8.27574 28.9749 9.79949 27.9062 10.4955C27.7579 10.5733 27.5914 10.6183 27.4183 10.6183C27.2617 10.6183 27.1095 10.5843 26.9674 10.5169C26.9541 10.5106 25.9734 10.0472 25.1577 9.67563L24.7838 10.0168L24.2915 9.55282C24.1892 9.5359 24.089 9.51405 23.9912 9.48569C23.788 9.57806 23.5455 9.70373 23.2946 9.85179C23.3129 9.74407 23.3121 9.63478 23.2907 9.52862C23.4021 9.46383 23.5117 9.40398 23.6194 9.34752C23.0446 9.08471 22.5791 8.62676 22.3054 8.05795C22.1537 8.15006 22.0053 8.24426 21.8635 8.34027C21.6561 8.22136 21.4563 8.10817 21.2991 8.01918C21.0343 8.59319 20.5747 9.05739 20.0046 9.32904C20.4712 9.57181 21.6057 10.2005 21.9208 10.4227C21.99 10.4711 22.0644 10.5044 22.1406 10.5312V15.1274C22.1406 15.5221 22.2039 15.8981 22.3223 16.2408C22.3189 16.2778 22.3168 16.3144 22.3168 16.3519V17.3841H22.3233C22.3228 17.3992 22.3189 17.413 22.3189 17.4281L22.3194 26.5058C22.3194 27.1243 22.8211 27.626 23.4398 27.626C24.0589 27.626 24.5603 27.1243 24.5603 26.5053L24.56 17.4279C24.56 17.4128 24.5558 17.3987 24.5553 17.3841H24.7237C24.7237 17.3992 24.7195 17.413 24.7195 17.4279L24.719 26.5053C24.719 27.1243 25.2207 27.6257 25.8394 27.626C26.4579 27.626 26.9599 27.1243 26.9599 26.5058L26.9604 17.4281C26.9604 17.413 26.9565 17.3992 26.956 17.3841H26.969L26.9697 16.2109C26.9697 16.2109 27.168 15.9455 27.168 14.9832C27.168 14.5651 27.2024 13.2261 27.2159 12.7281C27.3288 12.7171 27.4418 12.6997 27.5547 12.6763L27.5633 12.6799C27.5643 12.6779 27.5659 12.676 27.5669 12.6739C27.6759 12.6513 27.7847 12.625 27.8935 12.5909C30.2059 11.8671 31.7387 8.82815 31.9058 8.4839C32.1332 8.0132 31.9373 7.447 31.4674 7.21802Z" fill="white"/>
</g>
<defs>
<clipPath id="clip0">
<rect width="32" height="32" fill="white"/>
</clipPath>
</defs>
</svg>
