<svg width="32" height="32" viewBox="0 0 32 32" fill="none" xmlns="http://www.w3.org/2000/svg">
<path d="M30.3526 12.4444H27.3588C26.8776 12.4444 26.4812 12.1796 26.2969 11.7351C26.1126 11.2907 26.2062 10.8225 26.5458 10.4824L28.6625 8.36622C28.9736 8.05511 29.1449 7.64089 29.1449 7.20119C29.1449 6.76089 28.9736 6.34726 28.6625 6.03556L25.9644 3.33748C25.3422 2.71526 24.2572 2.71407 23.6338 3.33748L21.5176 5.45363C21.2361 5.73511 20.9268 5.79378 20.7164 5.79378C20.4201 5.79378 20.1256 5.67763 19.9081 5.47437C19.7476 5.32385 19.5556 5.05719 19.5556 4.64119V1.64741C19.5556 0.738963 18.8166 0 17.9081 0H14.0919C13.1834 0 12.4444 0.738963 12.4444 1.64741V4.64119C12.4444 5.36296 11.8536 5.79378 11.2824 5.79378C11.0726 5.79378 10.7633 5.73452 10.4818 5.45363L8.36563 3.33748C7.74222 2.71407 6.65719 2.71526 6.03496 3.33748L3.33689 6.03556C3.02578 6.34667 2.85452 6.76089 2.85452 7.20119C2.85452 7.64089 3.02578 8.05452 3.33689 8.36622L5.45363 10.4824C5.79319 10.8225 5.88622 11.2907 5.70252 11.7351C5.51882 12.1796 5.12237 12.4444 4.64119 12.4444H1.64741C0.738963 12.4444 0 13.1834 0 14.0919V17.907C0 18.816 0.738963 19.5556 1.64741 19.5556H4.64119C5.12237 19.5556 5.51881 19.8204 5.70311 20.2649C5.88741 20.7093 5.79378 21.1775 5.45422 21.5176L3.33748 23.6338C3.02637 23.9449 2.85511 24.3591 2.85511 24.7988C2.85511 25.2391 3.02637 25.6527 3.33748 25.9644L6.03556 28.6625C6.65837 29.2853 7.74282 29.2865 8.36622 28.6625L10.4824 26.5464C10.7639 26.2649 11.0732 26.2062 11.2836 26.2062C11.8542 26.2062 12.445 26.6376 12.445 27.3588V30.352C12.4444 31.2604 13.1834 32 14.0919 32H17.9076C18.816 32 19.555 31.2604 19.555 30.352V27.3588C19.555 26.637 20.1458 26.2062 20.7164 26.2062C20.9262 26.2062 21.2361 26.2655 21.5176 26.5464L23.6338 28.6625C24.2572 29.2859 25.3422 29.2847 25.9644 28.6625L28.6625 25.9644C28.9736 25.6533 29.1449 25.2391 29.1449 24.7988C29.1449 24.3591 28.9736 23.9455 28.6625 23.6338L26.5458 21.5176C26.2062 21.1775 26.1132 20.7093 26.2969 20.2649C26.4806 19.8204 26.8776 19.5556 27.3588 19.5556H30.3526C31.261 19.5556 32 18.816 32 17.9076V14.0919C32 13.1834 31.261 12.4444 30.3526 12.4444ZM20.1481 16C20.1481 18.2868 18.2868 20.1481 16 20.1481C13.7132 20.1481 11.8519 18.2868 11.8519 16C11.8519 13.7132 13.7132 11.8519 16 11.8519C18.2868 11.8519 20.1481 13.7132 20.1481 16Z" fill="white"/>
</svg>
