<svg width="32" height="32" viewBox="0 0 32 32" fill="none" xmlns="http://www.w3.org/2000/svg">
<path d="M30.4 6.4001H23.4667V4.26676C23.4648 2.79463 22.2721 1.60192 20.8 1.6001H11.2C9.72787 1.60192 8.53516 2.79463 8.53333 4.26676V6.4001H1.6C0.716406 6.4001 0 7.1165 0 8.0001V19.872C0.00338541 20.5485 0.429687 21.1504 1.06667 21.3777V28.8001C1.06667 29.6837 1.78307 30.4001 2.66667 30.4001H29.3333C30.2169 30.4001 30.9333 29.6837 30.9333 28.8001V21.3782C31.5703 21.1506 31.9969 20.5485 32 19.872V8.0001C32 7.1165 31.2836 6.4001 30.4 6.4001ZM9.6 4.26676C9.6 3.38317 10.3164 2.66676 11.2 2.66676H20.8C21.6836 2.66676 22.4 3.38317 22.4 4.26676V6.4001H21.3333V4.26676C21.3333 3.97223 21.0945 3.73343 20.8 3.73343H11.2C10.9055 3.73343 10.6667 3.97223 10.6667 4.26676V6.4001H9.6V4.26676ZM20.2667 6.4001H11.7333V4.8001H20.2667V6.4001ZM29.8667 28.8001C29.8667 29.0946 29.6279 29.3334 29.3333 29.3334H2.66667C2.37214 29.3334 2.13333 29.0946 2.13333 28.8001V21.561L13.8667 23.1793V24.5334C13.8667 25.417 14.5831 26.1334 15.4667 26.1334H16.5333C17.4169 26.1334 18.1333 25.417 18.1333 24.5334V23.1793L29.8667 21.561V28.8001ZM17.0667 24.5334C17.0667 24.828 16.8279 25.0668 16.5333 25.0668H15.4667C15.1721 25.0668 14.9333 24.828 14.9333 24.5334V21.3334C14.9333 21.0389 15.1721 20.8001 15.4667 20.8001H16.5333C16.8279 20.8001 17.0667 21.0389 17.0667 21.3334V24.5334ZM30.9333 19.872C30.9336 20.1379 30.738 20.3634 30.4747 20.4006L30.3268 20.4209L18.1333 22.1024V21.3334C18.1333 20.4498 17.4169 19.7334 16.5333 19.7334H15.4667C14.5831 19.7334 13.8667 20.4498 13.8667 21.3334V22.1024L1.52578 20.4006C1.2625 20.3636 1.06641 20.1381 1.06667 19.872V8.0001C1.06667 7.70557 1.30547 7.46676 1.6 7.46676H30.4C30.6945 7.46676 30.9333 7.70557 30.9333 8.0001V19.872Z" fill="white"/>
</svg>
