<svg width="15" height="15" viewBox="0 0 15 15" fill="none" xmlns="http://www.w3.org/2000/svg">
<g clip-path="url(#clip0)">
<path d="M14.634 7.97028L7.5548 0.900984C7.3039 0.64998 6.96734 0.437192 6.54492 0.262343C6.12236 0.0874593 5.73625 0 5.38638 0H1.26757C0.924289 0 0.627267 0.125502 0.376437 0.376193C0.125607 0.627023 0.000244141 0.924045 0.000244141 1.26733V5.38613C0.000244141 5.73597 0.0875994 6.12198 0.262553 6.54454C0.437506 6.96709 0.650328 7.30025 0.901228 7.54456L7.98034 14.6337C8.22458 14.8779 8.52139 15 8.87147 15C9.21444 15 9.51504 14.8779 9.77242 14.6337L14.6339 9.76236C14.8781 9.51801 15.0001 9.22124 15.0001 8.87136C15.0001 8.52812 14.8781 8.22776 14.634 7.97028ZM4.06457 4.06436C3.8169 4.3119 3.51831 4.43573 3.16844 4.43573C2.81871 4.43573 2.51999 4.3119 2.27245 4.06436C2.02492 3.81679 1.90118 3.51821 1.90118 3.16837C1.90118 2.8185 2.02492 2.51981 2.27245 2.27238C2.52002 2.02481 2.81871 1.90097 3.16844 1.90097C3.51831 1.90097 3.817 2.02481 4.06457 2.27238C4.312 2.51981 4.43584 2.81853 4.43584 3.16837C4.43584 3.51821 4.31214 3.81679 4.06457 4.06436Z" fill="#053C69"/>
</g>
<defs>
<clipPath id="clip0">
<rect width="15" height="15" fill="white"/>
</clipPath>
</defs>
</svg>
