<svg width="150" height="40" viewBox="0 0 150 40" fill="none" xmlns="http://www.w3.org/2000/svg">
<path d="M16.3323 26.9489L18.5417 10.9244H21.8455L21.6478 12.3495C21.7262 12.2779 21.808 12.2063 21.8933 12.1381C22.2683 11.8347 22.6945 11.579 23.1787 11.3642C23.7276 11.1085 24.355 10.9448 25.2312 10.8494C26.087 10.7539 27.1781 10.7198 28.6783 10.7198C28.7567 10.7198 28.7908 10.7198 28.8624 10.7232L29.4523 10.7334L29.0363 13.744C28.8556 13.7372 28.6646 13.7201 28.4873 13.7201C28.3953 13.7167 28.351 13.7133 28.1055 13.7133C25.2244 13.7133 23.5128 13.9315 22.4695 14.7805C21.4364 15.626 20.9829 17.1671 20.6181 19.8163L19.568 27.416H16.2641L16.3289 26.9455L16.3323 26.9489ZM94.227 26.9489L96.4364 10.9244H99.7402L99.5425 12.3495C99.6209 12.2779 99.7027 12.2063 99.788 12.1381C100.163 11.8347 100.589 11.579 101.073 11.3642C101.622 11.1085 102.25 10.9448 103.126 10.8494C103.982 10.7539 105.073 10.7198 106.573 10.7198C106.651 10.7198 106.686 10.7198 106.757 10.7232L107.347 10.7334L106.931 13.744C106.75 13.7372 106.559 13.7201 106.382 13.7201C106.29 13.7167 106.246 13.7133 106 13.7133C103.119 13.7133 101.408 13.9315 100.364 14.7805C99.3311 15.626 98.8776 17.1671 98.5128 19.8163L97.4661 27.416H94.1622L94.227 26.9455V26.9489ZM6.94577 20.9925L8.87217 7.03076H12.176L11.6407 10.921H17.1233L16.7142 13.8804H11.2316L10.3485 20.2834L10.3451 20.3243C10.0246 23.1064 10.011 23.2155 10.3417 23.7269C10.5531 24.0338 10.8838 24.2486 11.4089 24.3918C11.9987 24.5554 12.8273 24.627 13.9763 24.627H14.3104L14.6241 24.6202L15.1117 24.6066L14.6991 27.5933L14.3513 27.6035C14.2115 27.6069 14.0615 27.6137 13.9047 27.6137L13.4444 27.6171C11.7294 27.6171 10.4235 27.4841 9.44157 27.1909C8.39143 26.8773 7.69929 26.3761 7.2765 25.6567L7.27309 25.6533C6.96964 25.1214 6.79575 24.5861 6.75143 23.8462C6.70711 23.1473 6.7753 22.2574 6.94918 20.9959L6.94577 20.9925ZM135.851 24.627L137.17 24.6236L137.648 24.6168L137.235 27.6103L136.877 27.6137L132.656 27.6171C129.932 27.6171 127.971 27.5217 126.522 27.2898C125.022 27.0477 124.061 26.6522 123.382 26.059C122.646 25.4248 122.158 24.5179 121.916 23.3382C121.684 22.2029 121.681 20.8118 121.909 19.1616C122.179 17.1978 122.632 15.6431 123.297 14.4327C123.982 13.1917 124.889 12.3052 126.059 11.712C126.792 11.3335 127.637 11.0846 128.79 10.9278C129.918 10.7778 131.34 10.7164 133.246 10.7164C135.984 10.7164 137.815 10.8323 139.134 11.1528C140.522 11.4903 141.347 12.0563 142.022 12.9462L142.029 12.953C142.568 13.7065 142.875 14.4668 142.987 15.5408C143.096 16.5704 143.018 17.8831 142.793 19.7719L142.748 20.1367H125.298C125.23 20.9448 125.233 21.6062 125.312 22.1483C125.397 22.7245 125.568 23.1609 125.837 23.4883C126.178 23.9008 126.723 24.177 127.712 24.3543C128.779 24.5486 130.348 24.6202 132.68 24.6202H135.847L135.851 24.627ZM127.535 14.5009C126.638 15.0089 126.147 15.8545 125.803 17.1842H139.564C139.687 15.8476 139.455 15.0021 138.64 14.5077C137.658 13.9111 135.847 13.7167 132.878 13.7167C130.242 13.7167 128.589 13.9077 127.535 14.5043V14.5009ZM63.408 24.627L64.7275 24.6236L65.2049 24.6168L64.7923 27.6103L64.4343 27.6137L60.2099 27.6171C57.4856 27.6171 55.5251 27.5217 54.0761 27.2898C52.5759 27.0477 51.6144 26.6522 50.9359 26.059C50.1994 25.4248 49.7118 24.5179 49.4698 23.3382C49.2379 22.2029 49.2345 20.8118 49.4629 19.1616C49.7323 17.1978 50.1858 15.6431 50.854 14.4327C51.5394 13.1917 52.4463 12.3052 53.6158 11.712C54.3488 11.3335 55.1944 11.0846 56.3468 10.9278C57.4754 10.7778 58.8972 10.7164 60.8031 10.7164C63.541 10.7164 65.3719 10.8323 66.6914 11.1528C68.0791 11.4903 68.9042 12.0563 69.5793 12.9462L69.5861 12.953C70.1248 13.7065 70.4317 14.4668 70.5442 15.5408C70.6533 16.5704 70.5749 17.8831 70.3499 19.7719L70.3056 20.1367H52.852C52.7838 20.9448 52.7873 21.6062 52.8657 22.1483C52.9509 22.7245 53.1214 23.1609 53.3907 23.4883C53.7317 23.9008 54.2772 24.177 55.266 24.3543C56.3332 24.5486 57.9016 24.6202 60.2337 24.6202H63.4012L63.408 24.627ZM55.0955 14.5009C54.1954 15.0089 53.7078 15.8545 53.3635 17.1842H67.1244C67.2472 15.8476 67.0153 15.0021 66.2005 14.5077C65.2185 13.9111 63.408 13.7167 60.4383 13.7167C57.8027 13.7167 56.1491 13.9077 55.0955 14.5043V14.5009ZM112.424 20.9959L114.35 7.03417H117.654L117.115 10.9244H122.598L122.189 13.8838H116.706L115.823 20.2868L115.82 20.3277C115.499 23.1098 115.486 23.2189 115.816 23.7303C116.028 24.0372 116.358 24.252 116.883 24.3952C117.473 24.5588 118.302 24.6304 119.451 24.6304H119.785L120.099 24.6236L120.583 24.61L120.17 27.5967L119.823 27.6069C119.683 27.6103 119.533 27.6171 119.376 27.6171L118.916 27.6205C117.201 27.6205 115.895 27.4876 114.913 27.1943C113.863 26.8807 113.17 26.3795 112.748 25.6601L112.744 25.6567C112.437 25.1248 112.267 24.5895 112.219 23.8497C112.175 23.1507 112.246 22.2608 112.42 20.9993L112.424 20.9959ZM106.256 26.9523L108.244 12.5439H111.548L109.495 27.4194H106.191L106.256 26.9489V26.9523ZM108.547 10.3345L109.004 7.03076H112.308L111.786 10.8016H108.482L108.547 10.3311V10.3345ZM73.0127 33.0689H70.0669L73.1218 10.9244H76.4257L76.2416 12.2575C76.7837 11.7563 77.4077 11.4051 78.2498 11.1664C79.45 10.8255 81.0866 10.7198 83.596 10.7198C85.8122 10.7198 87.367 10.788 88.5467 10.9755C89.7673 11.1699 90.5856 11.4869 91.2811 11.9813C92.2324 12.6325 92.8393 13.4849 93.1359 14.6918C93.4189 15.8442 93.4121 17.3137 93.1462 19.2435C92.8836 21.1391 92.4506 22.6427 91.7926 23.8292C91.1209 25.043 90.2242 25.926 89.0581 26.5568H89.0547C88.3148 26.9523 87.4079 27.2216 86.1293 27.3887C84.8746 27.5523 83.2687 27.6205 81.107 27.6205C78.8022 27.6205 77.2747 27.5046 76.187 27.1807C75.3653 26.9352 74.7925 26.5738 74.3391 26.0624L73.3742 33.0689H73.0162H73.0127ZM89.174 14.6952C88.366 13.9281 86.7226 13.7133 83.8688 13.7133C81.8333 13.7133 80.4047 13.7713 79.3647 13.9111C78.3726 14.044 77.7418 14.252 77.2747 14.552C76.7223 14.9305 76.303 15.4283 75.979 16.1272C75.6415 16.8603 75.4062 17.8115 75.2324 19.073C74.8982 21.4869 74.9494 22.8916 75.7608 23.6451C76.603 24.4224 78.3282 24.6304 81.3355 24.6304C83.2312 24.6304 84.5745 24.5725 85.5701 24.4293C86.5248 24.2895 87.1453 24.0747 87.6363 23.7542C88.1853 23.3894 88.6012 22.895 88.9251 22.1892C89.2661 21.446 89.5048 20.4675 89.6821 19.1719C90.006 16.8227 89.9548 15.4419 89.174 14.6987V14.6952ZM41.5289 24.6304L42.8484 24.627L43.3257 24.6202L42.9132 27.6137L42.5552 27.6171L38.3341 27.6205C35.6099 27.6205 33.6494 27.5251 32.2004 27.2932C30.7001 27.0511 29.7387 26.6556 29.0602 26.0624C28.3237 25.4248 27.8361 24.5213 27.594 23.3416C27.3622 22.2063 27.3588 20.8152 27.5872 19.1651C27.8566 17.2012 28.31 15.6465 28.9749 14.4361C29.6602 13.1951 30.5672 12.3086 31.7367 11.7154C32.4697 11.3369 33.3153 11.088 34.4677 10.9312C35.5963 10.7812 37.0181 10.7198 38.924 10.7198C41.6619 10.7198 43.4928 10.8357 44.8123 11.1562C46.2 11.4938 47.0251 12.0597 47.7002 12.9496L47.707 12.9598C48.2457 13.7133 48.5526 14.4736 48.6651 15.5476C48.7742 16.5773 48.6958 17.8899 48.4708 19.7788L48.4298 20.1436H30.9763C30.9081 20.9516 30.9115 21.613 30.99 22.1552C31.0752 22.7314 31.2457 23.1678 31.515 23.4951C31.856 23.9076 32.4015 24.1838 33.3903 24.3611C34.4575 24.5554 36.0259 24.627 38.358 24.627H41.5255L41.5289 24.6304ZM33.213 14.5043C32.3163 15.0123 31.8253 15.8579 31.4809 17.1876H45.2419C45.3647 15.8511 45.1328 15.0055 44.3179 14.5111C43.336 13.9145 41.5255 13.7201 38.5558 13.7201C35.9202 13.7201 34.2665 13.9111 33.213 14.5077V14.5043Z" fill="#053C69"/>
</svg>
