<svg width="40" height="40" viewBox="0 0 40 40" fill="none" xmlns="http://www.w3.org/2000/svg">
<path d="M35.2562 1.01384C34.6463 0.360147 33.8053 0 32.8878 0H30.3665C28.5083 0 26.7349 1.48888 26.4137 3.31908L26.2547 4.2242C26.0948 5.13497 26.3099 5.99763 26.8606 6.65332C27.4112 7.30901 28.2236 7.66999 29.1483 7.66999H32.4053C32.8572 7.66999 33.2943 7.57975 33.7004 7.41957L33.3542 10.3768C33.021 10.2368 32.6552 10.1622 32.2708 10.1622H28.5547C26.9628 10.1622 25.3992 11.4291 25.0688 12.9863L21.7834 28.4756L6.28205 27.3617C5.44437 27.3018 4.74505 27.5857 4.31148 28.1431C3.90538 28.6653 3.78666 29.3657 3.97697 30.1157L5.77921 37.2117C6.16966 38.7491 7.77792 40 9.36403 40H22.3595H22.5578H29.1728C30.7801 40 32.2258 38.6994 32.3953 37.101L34.9382 13.1276C34.9526 12.9906 34.9543 12.8556 34.9496 12.7219L35.82 5.28782C35.9428 4.96764 36.0209 4.6273 36.0454 4.27431L36.103 3.44679C36.167 2.53169 35.8661 1.6677 35.2562 1.01384Z" fill="#006494"/>
</svg>
