<svg width="150" height="150" viewBox="0 0 350 300" fill="none" xmlns="http://www.w3.org/2000/svg">
<path opacity="0.2" d="M322.581 0H27.8228V300H322.581V0Z" fill="#6C63FF"/>
<path opacity="0.5" d="M277.823 28.0095H72.1775V272.401H277.823V28.0095Z" fill="#6C63FF"/>
<path d="M350 43.0916H239.919V258.55H350V43.0916Z" fill="url(#paint0_linear)"/>
<path d="M110.081 43.9124H0V259.371H110.081V43.9124Z" fill="url(#paint1_linear)"/>
<path d="M346.371 46.3748H243.548V254.035H346.371V46.3748Z" fill="#006494"/>
<path d="M3.62909 254.036H106.452L106.452 46.3749H3.62909L3.62909 254.036Z" fill="#006494"/>
<path d="M89.5163 65.2532H20.5647V77.9755H89.5163V65.2532Z" fill="url(#paint2_linear)"/>
<path d="M329.839 84.5417H260.887V97.264H329.839V84.5417Z" fill="url(#paint3_linear)"/>
<path d="M329.435 104.241H260.484V116.963H329.435V104.241Z" fill="url(#paint4_linear)"/>
<path d="M329.435 123.94H260.484V136.662H329.435V123.94Z" fill="url(#paint5_linear)"/>
<path d="M329.435 143.639H260.484V156.361H329.435V143.639Z" fill="url(#paint6_linear)"/>
<path d="M329.435 163.338H260.484V176.06H329.435V163.338Z" fill="url(#paint7_linear)"/>
<path d="M329.435 183.037H260.484V195.759H329.435V183.037Z" fill="url(#paint8_linear)"/>
<path d="M329.435 202.736H260.484V215.458H329.435V202.736Z" fill="url(#paint9_linear)"/>
<path d="M329.435 222.435H260.484V235.157H329.435V222.435Z" fill="url(#paint10_linear)"/>
<path d="M329.435 65.2532H260.484V77.9755H329.435V65.2532Z" fill="url(#paint11_linear)"/>
<path d="M89.5163 85.3625H20.5647V98.0848H89.5163V85.3625Z" fill="url(#paint12_linear)"/>
<path d="M89.5163 104.651H20.5647V117.373H89.5163V104.651Z" fill="url(#paint13_linear)"/>
<path d="M89.5163 123.94H20.5647V136.662H89.5163V123.94Z" fill="url(#paint14_linear)"/>
<path d="M89.5163 143.639H20.5647V156.361H89.5163V143.639Z" fill="url(#paint15_linear)"/>
<path d="M89.5163 163.338H20.5647V176.06H89.5163V163.338Z" fill="url(#paint16_linear)"/>
<path d="M88.3065 66.8948H22.1775V76.7443H88.3065V66.8948Z" fill="white"/>
<path d="M88.1049 86.1833H21.9758V96.0329H88.1049V86.1833Z" fill="white"/>
<path d="M88.1049 105.882H21.9758V115.732H88.1049V105.882Z" fill="white"/>
<path d="M88.1049 125.581H21.9758V135.431H88.1049V125.581Z" fill="white"/>
<path d="M88.1049 145.281H21.9758V155.13H88.1049V145.281Z" fill="white"/>
<path d="M88.1049 164.979H21.9758V174.829H88.1049V164.979Z" fill="white"/>
<path d="M89.5163 183.037H20.5647V195.759H89.5163V183.037Z" fill="url(#paint17_linear)"/>
<path d="M88.1049 184.678H21.9758V194.528H88.1049V184.678Z" fill="white"/>
<path d="M88.1049 184.678H21.9758V194.528H88.1049V184.678Z" fill="white"/>
<path d="M88.1049 204.377H21.9758V214.227H88.1049V204.377Z" fill="white"/>
<path d="M88.1049 224.077H21.9758V233.926H88.1049V224.077Z" fill="white"/>
<path d="M328.226 66.4844H262.097V76.3339H328.226V66.4844Z" fill="white"/>
<path d="M328.226 86.1833H262.097V96.0329H328.226V86.1833Z" fill="white"/>
<path d="M328.226 105.882H262.097V115.732H328.226V105.882Z" fill="white"/>
<path d="M328.226 125.581H262.097V135.431H328.226V125.581Z" fill="white"/>
<path d="M328.226 145.281H262.097V155.13H328.226V145.281Z" fill="white"/>
<path d="M328.226 164.979H262.097V174.829H328.226V164.979Z" fill="white"/>
<path d="M328.226 184.678H262.097V194.528H328.226V184.678Z" fill="white"/>
<path d="M328.226 204.377H262.097V214.227H328.226V204.377Z" fill="white"/>
<path d="M328.226 224.077H262.097V233.926H328.226V224.077Z" fill="white"/>
<path d="M296.371 264.706H53.2258V280.301H296.371V264.706Z" fill="url(#paint18_linear)"/>
<path d="M294.758 266.347H55.2419V278.659H294.758V266.347Z" fill="#006494"/>
<path d="M296.774 20.5198H54.0322V36.5252H296.774V20.5198Z" fill="url(#paint19_linear)"/>
<path d="M294.758 21.751H55.2419V34.0629H294.758V21.751Z" fill="#006494"/>
<path opacity="0.5" d="M234.274 46.3748H116.532V254.035H234.274V46.3748Z" fill="#006494"/>
<path d="M265.992 136.683C268.814 140.532 264.589 145.079 264.589 145.079L265.298 145.33C264.254 146.508 260.129 151.822 244.226 175.863C223.863 206.643 196.423 214.322 196.423 214.322C193.089 211.67 189.297 209.678 185.242 208.449V205.543C190.423 203.988 195.157 201.179 199.04 197.357C202.923 193.535 205.84 188.813 207.54 183.595C209.968 178.704 211.231 173.3 211.226 167.819C211.226 148.12 195.189 132.14 175.411 132.14C155.633 132.14 139.597 148.116 139.597 167.819C139.592 173.3 140.854 178.704 143.282 183.595C144.983 188.813 147.899 193.535 151.782 197.357C155.665 201.179 160.399 203.988 165.581 205.543V208.449C161.526 209.678 157.733 211.67 154.399 214.322C154.399 214.322 126.948 206.635 106.585 175.855C90.6814 151.814 86.5564 146.495 85.5121 145.322L86.2217 145.071C86.2217 145.071 82.008 140.524 84.8185 136.674C87.629 132.825 66.2096 128.278 68.6653 136.674C71.1209 145.071 74.2822 149.27 74.2822 149.27C74.2822 149.27 119.121 221.245 142.528 233.138C141.975 235.577 141.697 238.072 141.698 240.575V254.569H209.109V240.575C209.11 238.072 208.831 235.577 208.278 233.138C231.665 221.237 276.524 149.274 276.524 149.274C276.524 149.274 279.685 145.075 282.141 136.679C284.597 128.282 263.181 132.833 265.992 136.683Z" fill="url(#paint20_linear)"/>
<path d="M175.403 204.595C194.346 204.595 209.702 188.966 209.702 169.687C209.702 150.407 194.346 134.778 175.403 134.778C156.461 134.778 141.105 150.407 141.105 169.687C141.105 188.966 156.461 204.595 175.403 204.595Z" fill="#263238"/>
<path d="M175.403 208.022C193.232 208.022 207.686 193.312 207.686 175.165C207.686 157.019 193.232 142.309 175.403 142.309C157.574 142.309 143.121 157.019 143.121 175.165C143.121 193.312 157.574 208.022 175.403 208.022Z" fill="#F8C198"/>
<path d="M162.625 172.083C164.854 172.083 166.661 170.244 166.661 167.975C166.661 165.706 164.854 163.867 162.625 163.867C160.396 163.867 158.589 165.706 158.589 167.975C158.589 170.244 160.396 172.083 162.625 172.083Z" fill="#263238"/>
<path d="M188.855 172.083C191.084 172.083 192.891 170.244 192.891 167.975C192.891 165.706 191.084 163.867 188.855 163.867C186.625 163.867 184.818 165.706 184.818 167.975C184.818 170.244 186.625 172.083 188.855 172.083Z" fill="#263238"/>
<path d="M184.819 190.219C184.819 192.681 180.605 196.724 175.403 196.724C170.202 196.724 165.988 192.681 165.988 190.219C165.988 187.757 170.202 187.822 175.403 187.822C180.605 187.822 184.819 187.757 184.819 190.219Z" fill="white"/>
<path d="M163.633 169.346C164.377 169.346 164.98 168.732 164.98 167.975C164.98 167.218 164.377 166.605 163.633 166.605C162.889 166.605 162.286 167.218 162.286 167.975C162.286 168.732 162.889 169.346 163.633 169.346Z" fill="white"/>
<path d="M190.198 169.346C190.941 169.346 191.544 168.732 191.544 167.975C191.544 167.218 190.941 166.605 190.198 166.605C189.454 166.605 188.851 167.218 188.851 167.975C188.851 168.732 189.454 169.346 190.198 169.346Z" fill="white"/>
<path d="M178.629 156.928C176.661 156.928 174.895 155.188 174.686 153.197C174.617 152.196 174.851 151.198 175.356 150.337C175.86 149.475 176.611 148.791 177.508 148.375C177.692 148.278 177.894 148.225 178.101 148.219C178.778 148.219 179.113 149.04 179.331 149.692C180.008 151.711 181.21 153.681 183.097 154.617C184.984 155.553 187.621 155.073 188.617 153.193C185.948 151.982 184.806 148.182 186.359 145.662C186.96 144.69 187.895 143.865 188.085 142.732C188.431 140.68 186.222 139.186 184.266 138.571C178.621 136.794 158.944 136.597 157.859 145.17C156.722 154.215 172.431 158.126 178.629 156.928Z" fill="#263238"/>
<path d="M146.559 180.929C147.595 180.514 147.495 177.753 146.336 174.763C145.177 171.773 143.398 169.687 142.363 170.103C141.327 170.519 141.427 173.279 142.585 176.269C143.744 179.259 145.523 181.345 146.559 180.929Z" fill="#F8C198"/>
<path d="M208.212 176.248C209.371 173.258 209.471 170.497 208.435 170.081C207.399 169.665 205.62 171.752 204.461 174.741C203.302 177.731 203.202 180.492 204.238 180.908C205.274 181.324 207.053 179.237 208.212 176.248Z" fill="#F8C198"/>
<path d="M195.528 215.187C195.528 215.187 221.807 207.677 241.311 177.558C260.815 147.439 261.823 147.357 261.823 147.357L272.246 151.547C272.246 151.547 223.827 230.951 202.98 235.059C182.133 239.167 195.528 215.187 195.528 215.187Z" fill="#1B98E0"/>
<path d="M260.818 147.443C260.818 147.443 264.851 142.994 262.165 139.235C259.48 135.476 279.988 131.027 277.633 139.235C275.278 147.443 272.254 151.547 272.254 151.547L260.818 147.443Z" fill="#F8C198"/>
<path d="M155.278 215.187C155.278 215.187 129 207.677 109.496 177.558C89.9918 147.439 88.9837 147.357 88.9837 147.357L78.5603 151.547C78.5603 151.547 126.984 230.951 147.835 235.059C168.685 239.167 155.278 215.187 155.278 215.187Z" fill="#1B98E0"/>
<path d="M89.9879 147.443C89.9879 147.443 85.9556 142.994 88.6411 139.235C91.3266 135.476 70.8185 131.027 73.1734 139.235C75.5282 147.443 78.5524 151.547 78.5524 151.547L89.9879 147.443Z" fill="#F8C198"/>
<g opacity="0.2">
<path opacity="0.2" d="M186.407 140.672C186.214 141.804 185.278 142.625 184.681 143.602C183.323 145.81 184.028 149.003 186.02 150.579C185.734 149.84 185.616 149.044 185.675 148.253C185.735 147.461 185.97 146.693 186.363 146.007C186.964 145.034 187.899 144.209 188.089 143.077C188.306 141.792 187.52 140.725 186.423 139.958C186.452 140.195 186.447 140.436 186.407 140.672Z" fill="white"/>
<path opacity="0.2" d="M178.008 148.568C177.879 148.26 177.758 147.948 177.653 147.636C177.436 146.983 177.101 146.183 176.423 146.163C176.217 146.169 176.014 146.222 175.831 146.319C174.934 146.734 174.183 147.419 173.678 148.28C173.174 149.142 172.94 150.14 173.008 151.141C173.083 151.744 173.282 152.325 173.593 152.845C173.903 153.365 174.318 153.812 174.811 154.157C174.754 153.954 174.713 153.747 174.69 153.537C174.622 152.537 174.855 151.539 175.36 150.677C175.864 149.815 176.615 149.131 177.512 148.715C177.668 148.638 177.836 148.588 178.008 148.568Z" fill="white"/>
<path opacity="0.2" d="M175.165 155.068C170.262 155.278 162.351 153.373 158.452 149.323C161.363 155.626 173.391 158.265 178.613 157.252C177.901 157.227 177.207 157.013 176.602 156.63C175.997 156.246 175.501 155.708 175.165 155.068Z" fill="white"/>
<path opacity="0.2" d="M186.564 151.687C185.387 153.094 183.105 153.39 181.423 152.557C180.874 152.281 180.371 151.92 179.931 151.486C180.583 152.966 181.699 154.184 183.105 154.949C184.992 155.881 187.629 155.405 188.625 153.525C187.777 153.13 187.061 152.491 186.564 151.687Z" fill="white"/>
</g>
<path opacity="0.2" d="M270.907 151.547C270.907 151.547 222.484 230.951 201.613 235.059C200.407 235.304 199.184 235.457 197.956 235.514C199.635 235.563 201.315 235.41 202.96 235.059C223.81 230.955 272.234 151.547 272.234 151.547L271.153 151.157C271.004 151.416 270.907 151.547 270.907 151.547Z" fill="white"/>
<path opacity="0.2" d="M79.8994 151.547C79.8994 151.547 128.323 230.951 149.194 235.059C150.4 235.304 151.622 235.457 152.851 235.514C151.171 235.563 149.492 235.41 147.847 235.059C126.996 230.955 78.5728 151.547 78.5728 151.547L79.6534 151.157C79.8026 151.416 79.8994 151.547 79.8994 151.547Z" fill="white"/>
<path d="M175.403 208.022C179.643 208.022 183.841 208.872 187.757 210.523C191.674 212.174 195.233 214.594 198.23 217.645C201.228 220.696 203.606 224.318 205.228 228.305C206.851 232.291 207.686 236.564 207.686 240.878V254.569H143.121V240.878C143.121 236.564 143.956 232.291 145.578 228.305C147.201 224.318 149.579 220.696 152.576 217.645C155.574 214.594 159.133 212.174 163.049 210.523C166.966 208.872 171.164 208.022 175.403 208.022Z" fill="#1B98E0"/>
<path opacity="0.2" d="M175.738 208.194C174.563 208.194 173.39 208.259 172.222 208.387C172.625 208.387 172.992 208.363 173.383 208.363C181.945 208.363 190.156 211.824 196.21 217.986C202.264 224.148 205.665 232.505 205.665 241.219V254.737H208.02V241.051C208.02 232.337 204.619 223.98 198.565 217.818C192.511 211.656 184.3 208.194 175.738 208.194Z" fill="white"/>
<path opacity="0.2" d="M175.069 208.194C176.243 208.194 177.417 208.259 178.585 208.387C178.182 208.387 177.815 208.363 177.423 208.363C168.862 208.363 160.651 211.824 154.596 217.986C148.542 224.148 145.141 232.505 145.141 241.219V254.737H142.786V241.051C142.786 232.337 146.188 223.98 152.242 217.818C158.296 211.656 166.507 208.194 175.069 208.194Z" fill="white"/>
<path d="M184.818 208.535C184.818 203.243 180.603 198.952 175.403 198.952C170.203 198.952 165.988 203.243 165.988 208.535V212.471C165.988 217.763 170.203 222.053 175.403 222.053C180.603 222.053 184.818 217.763 184.818 212.471V208.535Z" fill="#F8C198"/>
<defs>
<linearGradient id="paint0_linear" x1="294.96" y1="258.55" x2="294.96" y2="43.0916" gradientUnits="userSpaceOnUse">
<stop stop-color="#808080" stop-opacity="0.25"/>
<stop offset="0.54" stop-color="#808080" stop-opacity="0.12"/>
<stop offset="1" stop-color="#808080" stop-opacity="0.1"/>
</linearGradient>
<linearGradient id="paint1_linear" x1="15026" y1="136214" x2="15026" y2="23097.9" gradientUnits="userSpaceOnUse">
<stop stop-color="#808080" stop-opacity="0.25"/>
<stop offset="0.54" stop-color="#808080" stop-opacity="0.12"/>
<stop offset="1" stop-color="#808080" stop-opacity="0.1"/>
</linearGradient>
<linearGradient id="paint2_linear" x1="55.0405" y1="77.9755" x2="55.0405" y2="65.2532" gradientUnits="userSpaceOnUse">
<stop stop-opacity="0.12"/>
<stop offset="0.55" stop-opacity="0.09"/>
<stop offset="1" stop-opacity="0.02"/>
</linearGradient>
<linearGradient id="paint3_linear" x1="50768" y1="3099.73" x2="50768" y2="2705.34" gradientUnits="userSpaceOnUse">
<stop stop-opacity="0.12"/>
<stop offset="0.55" stop-opacity="0.09"/>
<stop offset="1" stop-opacity="0.02"/>
</linearGradient>
<linearGradient id="paint4_linear" x1="50698.6" y1="3730.1" x2="50698.6" y2="3335.71" gradientUnits="userSpaceOnUse">
<stop stop-opacity="0.12"/>
<stop offset="0.55" stop-opacity="0.09"/>
<stop offset="1" stop-opacity="0.02"/>
</linearGradient>
<linearGradient id="paint5_linear" x1="50698.6" y1="4360.47" x2="50698.6" y2="3966.07" gradientUnits="userSpaceOnUse">
<stop stop-opacity="0.12"/>
<stop offset="0.55" stop-opacity="0.09"/>
<stop offset="1" stop-opacity="0.02"/>
</linearGradient>
<linearGradient id="paint6_linear" x1="50698.6" y1="4990.83" x2="50698.6" y2="4596.44" gradientUnits="userSpaceOnUse">
<stop stop-opacity="0.12"/>
<stop offset="0.55" stop-opacity="0.09"/>
<stop offset="1" stop-opacity="0.02"/>
</linearGradient>
<linearGradient id="paint7_linear" x1="50698.6" y1="5621.2" x2="50698.6" y2="5226.81" gradientUnits="userSpaceOnUse">
<stop stop-opacity="0.12"/>
<stop offset="0.55" stop-opacity="0.09"/>
<stop offset="1" stop-opacity="0.02"/>
</linearGradient>
<linearGradient id="paint8_linear" x1="50698.6" y1="6251.58" x2="50698.6" y2="5857.19" gradientUnits="userSpaceOnUse">
<stop stop-opacity="0.12"/>
<stop offset="0.55" stop-opacity="0.09"/>
<stop offset="1" stop-opacity="0.02"/>
</linearGradient>
<linearGradient id="paint9_linear" x1="50698.6" y1="6881.94" x2="50698.6" y2="6487.55" gradientUnits="userSpaceOnUse">
<stop stop-opacity="0.12"/>
<stop offset="0.55" stop-opacity="0.09"/>
<stop offset="1" stop-opacity="0.02"/>
</linearGradient>
<linearGradient id="paint10_linear" x1="50698.6" y1="7512.3" x2="50698.6" y2="7117.91" gradientUnits="userSpaceOnUse">
<stop stop-opacity="0.12"/>
<stop offset="0.55" stop-opacity="0.09"/>
<stop offset="1" stop-opacity="0.02"/>
</linearGradient>
<linearGradient id="paint11_linear" x1="50698.6" y1="65.2532" x2="50698.6" y2="65.2532" gradientUnits="userSpaceOnUse">
<stop stop-opacity="0.12"/>
<stop offset="0.55" stop-opacity="0.09"/>
<stop offset="1" stop-opacity="0.02"/>
</linearGradient>
<linearGradient id="paint12_linear" x1="3537.1" y1="2928.8" x2="15327.8" y2="2928.8" gradientUnits="userSpaceOnUse">
<stop stop-opacity="0.12"/>
<stop offset="0.55" stop-opacity="0.09"/>
<stop offset="1" stop-opacity="0.02"/>
</linearGradient>
<linearGradient id="paint13_linear" x1="3537.1" y1="3546.03" x2="15327.8" y2="3546.03" gradientUnits="userSpaceOnUse">
<stop stop-opacity="0.12"/>
<stop offset="0.55" stop-opacity="0.09"/>
<stop offset="1" stop-opacity="0.02"/>
</linearGradient>
<linearGradient id="paint14_linear" x1="3537.1" y1="4163.27" x2="15327.8" y2="4163.27" gradientUnits="userSpaceOnUse">
<stop stop-opacity="0.12"/>
<stop offset="0.55" stop-opacity="0.09"/>
<stop offset="1" stop-opacity="0.02"/>
</linearGradient>
<linearGradient id="paint15_linear" x1="3537.1" y1="4793.64" x2="15327.8" y2="4793.64" gradientUnits="userSpaceOnUse">
<stop stop-opacity="0.12"/>
<stop offset="0.55" stop-opacity="0.09"/>
<stop offset="1" stop-opacity="0.02"/>
</linearGradient>
<linearGradient id="paint16_linear" x1="3537.1" y1="5424" x2="15327.8" y2="5424" gradientUnits="userSpaceOnUse">
<stop stop-opacity="0.12"/>
<stop offset="0.55" stop-opacity="0.09"/>
<stop offset="1" stop-opacity="0.02"/>
</linearGradient>
<linearGradient id="paint17_linear" x1="3537.1" y1="6054.39" x2="15327.8" y2="6054.39" gradientUnits="userSpaceOnUse">
<stop stop-opacity="0.12"/>
<stop offset="0.55" stop-opacity="0.09"/>
<stop offset="1" stop-opacity="0.02"/>
</linearGradient>
<linearGradient id="paint18_linear" x1="32148.4" y1="10619.8" x2="178765" y2="10619.8" gradientUnits="userSpaceOnUse">
<stop stop-color="#808080" stop-opacity="0.25"/>
<stop offset="0.54" stop-color="#808080" stop-opacity="0.12"/>
<stop offset="1" stop-color="#808080" stop-opacity="0.1"/>
</linearGradient>
<linearGradient id="paint19_linear" x1="105647" y1="1445.01" x2="105647" y2="820.793" gradientUnits="userSpaceOnUse">
<stop stop-color="#808080" stop-opacity="0.25"/>
<stop offset="0.54" stop-color="#808080" stop-opacity="0.12"/>
<stop offset="1" stop-color="#808080" stop-opacity="0.1"/>
</linearGradient>
<linearGradient id="paint20_linear" x1="128604" y1="86565.6" x2="128604" y2="49922.1" gradientUnits="userSpaceOnUse">
<stop stop-color="#808080" stop-opacity="0.25"/>
<stop offset="0.54" stop-color="#808080" stop-opacity="0.12"/>
<stop offset="1" stop-color="#808080" stop-opacity="0.1"/>
</linearGradient>
</defs>
</svg>
