<svg width="408" height="356" viewBox="0 0 408 356" fill="none" xmlns="http://www.w3.org/2000/svg">
<rect width="408" height="356" fill="white"/>
<path opacity="0.1" d="M402.809 102.691C402.738 103.073 402.671 103.455 402.592 103.834C400.141 116.831 396.135 129.355 390.178 140.857C389.98 141.239 389.782 141.621 389.58 142.004C385.652 149.404 380.952 156.224 375.585 162.313C372.618 165.682 369.382 168.883 365.532 171.19C360.14 174.429 353.836 175.744 347.64 176.818C341.204 177.94 334.68 178.876 328.173 179.886C325.862 180.238 323.563 180.612 321.279 181.007C314.993 182.077 308.752 183.315 302.661 184.956C295.131 186.98 287.832 189.631 280.938 193.36C280.387 193.646 279.843 193.95 279.305 194.271C278.766 194.58 278.225 194.894 277.694 195.212C277.163 195.53 276.64 195.848 276.121 196.174C275.852 196.342 275.582 196.509 275.317 196.685C275.052 196.862 274.79 197.016 274.532 197.188C273.755 197.686 272.993 198.198 272.23 198.713L272.2 198.735C271.696 199.074 271.199 199.422 270.706 199.77C267.888 201.738 265.13 203.792 262.372 205.858L260.638 207.147L257.951 209.145C257.428 209.536 256.894 209.927 256.367 210.314C255.993 210.598 255.619 210.881 255.212 211.173C253.254 212.591 251.269 213.983 249.233 215.311C248.751 215.629 248.265 215.947 247.775 216.256C243.66 218.895 239.357 221.126 234.912 222.924L234.853 222.95C232.617 223.847 230.335 224.587 228.021 225.167C226.687 225.502 225.349 225.777 223.997 225.988C220.38 226.577 216.714 226.636 213.085 226.164C205.958 225.214 199.28 222.069 192.157 221.008C177.493 218.86 163.251 225.781 149.462 231.204C146.071 232.535 142.656 233.783 139.215 234.946C136.928 235.723 134.633 236.458 132.32 237.167C118.148 241.472 103.684 244.388 89.0829 245.885C82.9794 246.572 76.8395 246.729 70.7155 246.353C68.3873 246.19 66.0853 245.923 63.8244 245.494C56.0888 244.119 48.8763 241.236 43.0541 235.955C38.2856 231.62 34.8737 225.97 32.2765 220.058C29.6178 214.026 27.7407 207.579 26.7046 200.922C26.5626 200.015 26.4355 199.104 26.3309 198.193C26.1441 196.635 26.0045 195.068 25.9124 193.493C25.4095 185.096 26.2817 176.665 28.4834 168.638C30.9499 159.65 35.0606 151.022 36.8693 141.965C36.944 141.581 37.015 141.199 37.0823 140.818C37.3293 139.442 37.5127 138.053 37.6316 136.655C38.5547 125.527 35.0157 114.678 32.2391 103.795C32.142 103.417 32.0448 103.034 31.9514 102.652C31.6524 101.443 31.3659 100.236 31.0919 99.0301C28.5208 87.524 27.807 75.2059 30.0978 63.7214C30.1688 63.339 30.2548 62.9566 30.337 62.5785C31.8706 55.319 34.7545 48.5279 38.7901 42.6728C43.0802 36.4858 48.7119 31.3343 54.7285 26.8101C57.6608 24.6046 60.6928 22.5437 63.8244 20.6274C66.0666 19.2525 68.3636 17.9507 70.7155 16.7219C89.5687 6.83993 111.075 2.01495 132.343 3.08048C133.464 3.13634 134.585 3.20508 135.706 3.2996C136.827 3.39413 138.053 3.50584 139.226 3.63044C152.926 5.15999 166.256 8.85069 179.493 12.8851C183.928 14.2385 188.357 15.6263 192.781 16.9883C194.751 17.5898 196.716 18.1913 198.686 18.7756C208.331 21.6414 218.118 24.2365 228.029 26.1742C230.323 26.6296 232.62 27.045 234.92 27.4202C242.904 28.7692 250.952 29.5541 259.02 29.7704C262.157 29.842 265.294 29.8105 268.434 29.6759C270.018 29.61 271.604 29.5112 273.191 29.3794C289.578 28.0518 305.415 23.6092 321.279 19.4588C323.573 18.8573 325.871 18.2643 328.173 17.68C331.193 16.9152 334.212 16.1762 337.247 15.4931C356.13 11.2267 372.962 13.68 390.518 22.4835C394.509 24.4814 398.497 26.896 400.941 30.6469C403.385 34.3977 403.998 39.0036 404.453 43.4505C405.1 49.7835 405.522 56.1982 405.683 62.6473C405.683 63.0254 405.683 63.4077 405.705 63.7901C405.959 76.8171 405.115 89.9688 402.809 102.691Z" fill="#6C63FF"/>
<path opacity="0.1" d="M277.552 140.857H276.319V141.364V142.004H277.716L277.552 140.857ZM263.564 140.857C263.562 140.866 263.562 140.877 263.564 140.887C263.531 141.2 263.493 141.514 263.456 141.832V141.918V142.004H274.144V141.935L274.891 140.857H263.564ZM234.92 140.857V103.834H247.215C247.084 103.735 246.949 103.632 246.811 103.537L246.632 103.404L246.4 103.241C246.266 103.15 246.131 103.06 245.989 102.974C245.847 102.888 245.761 102.828 245.642 102.755L245.559 102.704H245.541H234.92V100.663L234.632 100.792L234.33 100.955H234.307L234.244 100.994L234.053 101.11L233.862 101.226C233.676 101.342 233.489 101.47 233.302 101.604L233.122 101.741L232.749 102.016C232.267 102.386 231.792 102.772 231.303 103.133C231.179 103.223 231.056 103.314 230.929 103.395C230.664 103.576 230.391 103.748 230.11 103.902C229.991 103.971 229.875 104.031 229.737 104.087L229.535 104.177L229.348 104.25C228.91 104.426 228.46 104.561 228.003 104.654V140.848H209.568C209.568 140.891 209.594 140.925 209.605 140.968C209.706 141.312 209.807 141.651 209.904 141.995H228.029V181.678C228.124 181.678 228.217 181.678 228.309 181.678L228.634 181.699L229.221 181.738L230.159 181.867L230.589 181.914L231.056 181.97H231.127L231.953 182.086L232.128 182.112L232.528 182.176L233.1 182.271L234.472 182.202L234.658 182.241C234.733 182.241 234.812 182.266 234.89 182.283V142.004H263.418V141.918V141.832C263.456 141.514 263.493 141.2 263.527 140.887C263.525 140.877 263.525 140.866 263.527 140.857H234.92ZM277.552 140.857H276.319V141.364V142.004H277.716L277.552 140.857ZM262.794 140.857C262.75 141.239 262.708 141.621 262.664 142.004H274.581L275.392 140.857H262.794ZM234.92 140.857V103.834H247.215C247.084 103.735 246.949 103.632 246.811 103.537L246.632 103.404L246.4 103.241C246.266 103.15 246.131 103.06 245.989 102.974C245.847 102.888 245.761 102.828 245.642 102.755L245.559 102.704H245.533H234.92V100.663L234.632 100.792L234.33 100.955H234.307L234.244 100.994L234.053 101.11L233.862 101.226C233.676 101.342 233.489 101.47 233.302 101.604L233.122 101.741L232.749 102.016C232.267 102.386 231.792 102.772 231.303 103.133C231.179 103.223 231.056 103.314 230.929 103.395C230.664 103.576 230.391 103.748 230.11 103.902C229.991 103.971 229.875 104.031 229.737 104.087L229.535 104.177L229.348 104.25C228.91 104.426 228.46 104.561 228.003 104.654V140.848H209.568C209.568 140.891 209.594 140.925 209.605 140.968C209.706 141.308 209.811 141.651 209.908 141.995H228.029V181.673H228.309L228.634 181.695L229.221 181.734L230.159 181.867L230.589 181.914L231.056 181.97H231.127L231.953 182.086L232.128 182.112L232.528 182.176L233.1 182.271L234.472 182.202L234.658 182.241C234.733 182.241 234.812 182.266 234.89 182.283V142.004H262.671C262.716 141.621 262.757 141.239 262.802 140.857H234.92ZM328.173 63.76H405.705C405.705 63.3777 405.705 62.9953 405.683 62.6172H328.173V17.6671C325.871 18.24 323.573 18.8329 321.279 19.4459V62.6172H236.957L236.744 62.3981L237.065 62.0715L268.43 29.6673C265.291 29.8047 262.153 29.8363 259.016 29.7618L234.916 54.6557V27.4202C232.614 27.045 230.317 26.6296 228.025 26.1742V53.4012L192.789 16.9883C188.364 15.6263 183.936 14.2385 179.5 12.8851L227.42 62.3981L227.207 62.6172H139.237V3.66909C138.064 3.54306 136.891 3.43278 135.717 3.33826C134.596 3.24374 133.475 3.175 132.354 3.11914V62.6172H70.7155V16.7606C68.3886 17.9865 66.0916 19.2883 63.8245 20.6661V62.6172H30.3371C30.2549 62.9953 30.1689 63.3777 30.0979 63.76H63.8245V102.691H31.9515C32.0449 103.073 32.1421 103.455 32.2392 103.834H63.8245V140.857H37.0824C37.0151 141.238 36.9441 141.62 36.8694 142.004H63.8245V245.52C66.0667 245.919 68.3874 246.198 70.7155 246.379V142.004H132.343V237.184C134.656 236.475 136.95 235.741 139.237 234.963V142.004H228.029V225.163C230.343 224.583 232.624 223.842 234.86 222.946L234.92 222.92V142.004H321.279V181.007C323.571 180.621 325.869 180.25 328.173 179.895V142.004H389.58C389.782 141.621 389.98 141.239 390.178 140.857H328.173V103.834H402.592C402.671 103.455 402.738 103.073 402.809 102.691H328.173V63.76ZM70.7155 63.76H132.343V102.691H70.7155V63.76ZM70.7155 140.857V103.834H132.343V140.857H70.7155ZM139.237 63.76H228.029V102.691H139.237V63.76ZM139.237 140.857V103.834H228.029V140.857H139.237ZM321.279 140.857H234.92V103.834H321.279V140.857ZM321.279 102.691H234.92V64.8041L236.131 63.76H321.279V102.691ZM263.564 140.857C263.562 140.866 263.562 140.877 263.564 140.887C263.531 141.2 263.493 141.514 263.456 141.832V141.918V142.004H274.144V141.935L274.891 140.857H263.564ZM277.552 140.857H276.319V141.364V142.004H277.716L277.552 140.857ZM234.92 140.857V103.834H247.215C247.084 103.735 246.949 103.632 246.811 103.537L246.632 103.404L246.4 103.241C246.266 103.15 246.131 103.06 245.989 102.974C245.847 102.888 245.761 102.828 245.642 102.755L245.559 102.704H245.541H234.92V100.663L234.632 100.792L234.33 100.955H234.307L234.244 100.994L234.053 101.11L233.862 101.226C233.676 101.342 233.489 101.47 233.302 101.604L233.122 101.741L232.749 102.016C232.267 102.386 231.792 102.772 231.303 103.133C231.179 103.223 231.056 103.314 230.929 103.395C230.664 103.576 230.391 103.748 230.11 103.902C229.991 103.971 229.875 104.031 229.737 104.087L229.535 104.177L229.348 104.25C228.91 104.426 228.46 104.561 228.003 104.654V140.848H209.568C209.568 140.891 209.594 140.925 209.605 140.968C209.706 141.312 209.807 141.651 209.904 141.995H228.029V181.678C228.124 181.678 228.217 181.678 228.309 181.678L228.634 181.699L229.221 181.738L230.159 181.867L230.589 181.914L231.056 181.97H231.127L231.953 182.086L232.128 182.112L232.528 182.176L233.1 182.271L234.472 182.202L234.658 182.241C234.733 182.241 234.812 182.266 234.89 182.283V142.004H263.418V141.918V141.832C263.456 141.514 263.493 141.2 263.527 140.887C263.525 140.877 263.525 140.866 263.527 140.857H234.92Z" fill="#006494"/>
<path opacity="0.1" d="M100.346 36.9586H100.881C100.705 36.8729 100.551 36.7352 100.436 36.5593C100.322 36.3835 100.249 36.1759 100.227 35.9575C100.227 35.1669 101.254 34.5225 102.51 34.5225H118.49C119.745 34.5225 120.769 35.1669 120.769 35.9575C120.769 36.7438 119.745 37.3925 118.49 37.3925H117.955C118.131 37.4767 118.285 37.6135 118.4 37.7887C118.515 37.964 118.587 38.1713 118.609 38.3893C118.609 39.0639 117.862 39.631 116.864 39.7814H121.464C122.716 39.7814 123.744 40.4259 123.744 41.2164C123.744 42.007 122.716 42.6514 121.464 42.6514H105.481C104.229 42.6514 103.201 42.0027 103.201 41.2164C103.201 40.5419 103.949 39.979 104.947 39.8243H100.346C99.0907 39.8243 98.0668 39.1799 98.0668 38.3893C98.0668 37.5988 99.0907 36.9586 100.346 36.9586Z" fill="#6C63FF"/>
<path opacity="0.1" d="M273.535 50.6085H274.069C273.894 50.5222 273.741 50.3842 273.627 50.2084C273.513 50.0326 273.441 49.8253 273.419 49.6074C273.419 48.8168 274.443 48.1724 275.698 48.1724H291.678C292.934 48.1724 293.961 48.8168 293.961 49.6074C293.961 50.3937 292.934 51.0381 291.678 51.0381H291.147C291.323 51.1244 291.475 51.2624 291.589 51.4382C291.704 51.614 291.775 51.8213 291.797 52.0392C291.797 52.7138 291.05 53.2809 290.052 53.4313H294.653C295.908 53.4313 296.932 54.0758 296.932 54.8663C296.932 55.6569 295.908 56.3014 294.653 56.3014H278.673C277.417 56.3014 276.39 55.6526 276.39 54.8663C276.39 54.1918 277.137 53.6246 278.135 53.4743H273.535C272.283 53.4743 271.255 52.8298 271.255 52.0392C271.255 51.2487 272.283 50.6085 273.535 50.6085Z" fill="#6C63FF"/>
<path opacity="0.1" d="M75.8203 109.024H76.351C76.1753 108.938 76.0226 108.8 75.9083 108.624C75.7941 108.448 75.7225 108.241 75.7007 108.023C75.7007 107.236 76.7284 106.588 77.9803 106.588H93.9635C95.2154 106.588 96.2431 107.236 96.2431 108.023C96.2431 108.813 95.2154 109.458 93.9635 109.458H93.4291C93.6049 109.542 93.7579 109.679 93.8723 109.854C93.9866 110.03 94.0581 110.237 94.0793 110.455C94.0793 111.129 93.3319 111.696 92.3342 111.847H96.9344C98.1901 111.847 99.2177 112.495 99.2177 113.282C99.2177 114.068 98.1901 114.717 96.9344 114.717H80.9699C79.7143 114.717 78.6903 114.072 78.6903 113.282C78.6903 112.611 79.4377 112.044 80.4355 111.89H75.8203C74.5647 111.89 73.537 111.245 73.537 110.455C73.537 109.664 74.5796 109.024 75.8203 109.024Z" fill="#6C63FF"/>
<path opacity="0.1" d="M376.707 262.132C379.391 247.029 346.525 226.553 303.299 216.397C260.072 206.241 222.854 210.25 220.17 225.352C217.485 240.454 250.351 260.93 293.578 271.087C336.804 281.243 374.022 277.234 376.707 262.132Z" fill="#6C63FF"/>
<path d="M289.413 165.364C289.413 165.364 293.662 141.385 309.885 143.607C309.885 143.607 321.096 144.492 323.401 152.93V171.581L289.413 165.364Z" fill="#006494"/>
<path d="M378.253 174.249L233.792 160.479L215.252 164.921L216.411 194.675L217.674 194.851L219.113 239.53L360.869 268.837L375.937 254.181V205.747L377.865 204.445L378.253 174.249Z" fill="#1B98E0"/>
<path opacity="0.05" d="M378.448 174.249L378.059 204.445L362.416 212.883L362.222 181.351L378.448 174.249Z" fill="black"/>
<path opacity="0.05" d="M375.936 205.777L376.127 253.296L361.063 267.952L362.031 212.883L375.936 205.777Z" fill="black"/>
<path opacity="0.05" d="M217.868 196.63L362.147 216.87L362.222 213.029L217.76 195.117L217.868 196.63Z" fill="black"/>
<path opacity="0.05" d="M375.936 207.521V205.777L361.642 213.029V216.879L375.936 207.521Z" fill="black"/>
<path d="M215.058 164.921L233.597 160.479L378.059 174.249L361.837 181.351L215.058 164.921Z" fill="#006494"/>
<path opacity="0.1" d="M362.67 175.104L369.759 175.637L358.01 179.68L352.027 179.186L362.67 175.104Z" fill="black"/>
<path d="M362.67 174.748L369.759 175.28L358.01 179.328L352.027 178.829L362.67 174.748Z" fill="white"/>
<path d="M361.822 175.663C362.102 175.525 362.397 175.787 362.696 175.852C362.868 175.89 363.044 175.852 363.216 175.89C363.563 175.942 363.907 176.208 364.24 176.075" fill="#D3DAE1"/>
<path d="M361.455 175.908C361.732 175.77 362.031 176.028 362.33 176.097C362.502 176.131 362.677 176.097 362.849 176.131C363.197 176.187 363.541 176.453 363.873 176.32" fill="#D3DAE1"/>
<path d="M360.611 176.397C360.891 176.26 361.19 176.518 361.489 176.582C361.657 176.621 361.837 176.582 362.005 176.621C362.356 176.677 362.7 176.943 363.029 176.806" fill="#D3DAE1"/>
<path opacity="0.1" d="M332.027 171.091L339.116 171.628L327.367 175.671L321.384 175.173L332.027 171.091Z" fill="black"/>
<path d="M332.027 170.739L339.116 171.272L327.367 175.315L321.384 174.821L332.027 170.739Z" fill="white"/>
<path d="M331.178 171.654C331.458 171.517 331.754 171.774 332.053 171.843C332.224 171.877 332.4 171.843 332.572 171.877C332.92 171.933 333.263 172.2 333.596 172.066" fill="#D3DAE1"/>
<path d="M330.812 171.899C331.088 171.761 331.387 172.019 331.686 172.084C331.858 172.122 332.034 172.084 332.206 172.122C332.553 172.178 332.897 172.445 333.23 172.307" fill="#D3DAE1"/>
<path d="M329.967 172.385C330.247 172.247 330.546 172.509 330.845 172.574C331.014 172.612 331.193 172.574 331.361 172.612C331.712 172.664 332.056 172.935 332.385 172.797" fill="#D3DAE1"/>
<path opacity="0.1" d="M346.724 173.098L353.817 173.63L342.068 177.678L336.081 177.179L346.724 173.098Z" fill="black"/>
<path d="M346.724 172.745L353.817 173.278L342.068 177.321L336.081 176.823L346.724 172.745Z" fill="white"/>
<path d="M345.876 173.66C346.156 173.523 346.455 173.781 346.754 173.845C346.922 173.884 347.098 173.845 347.27 173.884C347.617 173.935 347.965 174.206 348.294 174.069" fill="#D3DAE1"/>
<path d="M345.51 173.901C345.79 173.764 346.089 174.026 346.388 174.09C346.556 174.129 346.732 174.09 346.904 174.129C347.251 174.18 347.599 174.451 347.928 174.314" fill="#D3DAE1"/>
<path d="M344.669 174.391C344.945 174.253 345.244 174.511 345.543 174.58C345.715 174.614 345.891 174.58 346.063 174.614C346.41 174.67 346.754 174.936 347.087 174.803" fill="#D3DAE1"/>
<path opacity="0.1" d="M186.223 340.017C228.013 340.017 261.89 331.999 261.89 322.109C261.89 312.219 228.013 304.201 186.223 304.201C144.433 304.201 110.556 312.219 110.556 322.109C110.556 331.999 144.433 340.017 186.223 340.017Z" fill="#6C63FF"/>
<path d="M269.084 175.461C268.277 167.306 265.081 159.525 265.081 159.525L265.324 156.775C265.324 156.775 265.377 155.4 265.298 153.338C265.307 152.05 265.454 150.769 265.735 149.523C266.389 147.138 264.917 144.208 264.753 143.937C264.588 143.667 264.835 138.438 263.362 135.873C261.89 133.308 252.084 128.539 252.084 128.539C252.084 128.539 251.557 127.271 250.814 125.789L250.881 125.638C250.272 124.369 249.518 123.2 248.639 122.163C248.037 121.424 247.458 121.003 246.991 121.209C246.801 120.496 246.656 119.768 246.557 119.03C246.654 119.061 246.755 119.091 246.852 119.112C247.257 119.22 247.677 119.232 248.086 119.146C248.997 118.91 249.603 117.969 250.111 117.084C252.645 112.659 254.827 107.804 255.272 102.566C255.391 101.497 255.347 100.412 255.141 99.361C254.931 98.5436 254.637 97.7576 254.267 97.0194C253.612 95.5048 252.782 94.0987 251.8 92.8389C250.055 90.725 247.648 89.4318 245.174 88.667C242.387 87.8053 239.484 87.5561 236.617 87.9323C235.869 88.0311 235.122 88.1729 234.374 88.2288C233.426 88.2768 232.477 88.2581 231.531 88.1729L226.639 87.8464L226.616 87.7605L225.802 87.7046C225.48 88.4393 225.802 89.3115 226.202 89.9989C226.601 90.6864 227.061 91.4039 227.027 92.2159C226.994 93.028 226.482 93.681 226.082 94.3642C225.682 95.0473 225.379 95.941 225.779 96.6113C225.836 96.704 225.902 96.7877 225.977 96.8605C226.4 97.3632 227.136 97.419 227.775 97.4104H227.887C226.278 99.8473 225.407 102.823 225.409 105.883C225.42 108.498 226.057 111.059 227.249 113.285C228.441 115.512 230.144 117.318 232.17 118.506C232.241 118.786 232.312 119.073 232.379 119.366C233.12 122.383 233.385 125.529 233.164 128.655L233.078 128.869L233.025 128.642C233.025 128.642 227.263 133.136 225.551 134.326C223.84 135.516 222.121 139.551 222.039 140.65C221.956 141.75 219.258 158.339 219.258 158.339C218.71 160.01 218.258 161.721 217.905 163.461L214.464 166.937C214.464 166.937 207.363 167.671 205.308 167.121L205.368 167.577C203.555 167.101 201.709 166.813 199.852 166.717C198.837 166.567 197.807 166.726 196.862 167.177L196.791 167.216L196.735 167.246C195.653 167.416 194.597 167.757 193.596 168.26C193.476 168.316 193.368 168.372 193.263 168.427L193.286 167.865L185.603 167.409L181.679 166.494C181.679 166.494 180.289 165.205 179.47 165.394C178.652 165.583 176.936 164.294 176.936 164.294C176.545 163.942 176.122 163.639 175.673 163.392C175.543 162.352 175.46 161.721 175.46 161.721C175.46 161.721 172.407 147.791 170.12 139.602C168.588 134.133 166.383 131.439 165.083 130.266C164.503 129.106 164.122 128.358 164.122 128.358C163.872 127.353 162.497 125.089 162.145 125.033C162.089 124.93 162.048 124.878 162.026 124.878C161.951 124.869 161.875 124.882 161.805 124.917C161.163 121.239 160.789 116.629 161.772 112.611C163.117 111.34 164.201 109.743 164.947 107.933C165.692 106.124 166.081 104.147 166.084 102.145C166.084 102.085 166.084 102.025 166.084 101.965C166.084 101.905 166.084 101.84 166.084 101.78C166.083 98.5869 165.1 95.4972 163.308 93.0581L163.18 92.8948C163.214 92.8671 163.247 92.837 163.278 92.8046C163.558 92.5427 163.772 92.1984 163.897 91.808C164.021 91.4177 164.051 90.996 163.984 90.5876C163.816 89.7626 163.255 89.1139 162.967 88.3319C162.795 87.7299 162.656 87.1157 162.553 86.493C162.332 85.6086 161.928 84.7991 161.376 84.1342L161.432 84.3061C159.967 82.4113 157.448 81.4704 155.18 81.8914C153.494 82.2008 151.925 83.103 150.232 83.3823C149.017 83.58 147.78 83.4511 146.558 83.5928C145.424 83.7269 144.321 84.0936 143.3 84.6756C143.033 84.806 142.796 85.0061 142.608 85.2599C142.434 85.5999 142.318 85.9745 142.264 86.3641C141.85 88.1042 140.534 89.3459 139.581 90.7981C138.493 92.4572 137.863 94.454 137.773 96.5296C137.735 97.0572 137.78 97.5881 137.903 98.0979C137.986 98.4029 138.113 98.6908 138.172 99.0001C138.359 99.9454 137.929 100.886 137.72 101.823C137.457 103.018 137.55 104.28 137.986 105.406C139.462 109.204 144.309 110.472 145.318 114.459C146.09 114.867 146.905 115.156 147.743 115.318C147.81 115.714 147.87 116.113 147.919 116.517C147.896 116.528 147.874 116.542 147.855 116.56C146.547 118.025 146.222 120.856 146.222 120.856L146.065 121.003C145.531 121.51 143.703 123.211 142.051 124.521C140.089 126.081 136.82 131.306 134.533 132.865C132.245 134.425 130.362 144.036 130.855 147.529C131.349 151.022 133.389 160.818 132.571 164.393C131.752 167.968 133.796 184.282 133.796 184.282C135.168 184.582 136.51 185.04 137.802 185.648L137.761 186.361L137.638 188.509C137.638 188.509 133.935 203.908 135.351 215.762C136.767 227.616 134.697 228.836 134.697 228.836C134.697 228.836 135.13 234.091 134.043 235.926C132.955 237.76 132.735 241.79 132.735 241.79C132.735 241.79 132.627 250.834 132.843 253.391C133.06 255.947 133.169 260.605 132.406 261.705C131.644 262.805 130.227 270.01 130.336 272.21C130.444 274.409 127.612 279.423 129.136 285.898C130.661 292.373 124.652 292.498 124.652 292.498C124.652 292.498 125.418 302.38 127.051 305.207L127.29 305.611C127.249 305.774 127.208 305.946 127.163 306.13C126.547 308.708 125.702 312.777 126.289 313.761C127.159 315.23 127.597 314.981 127.597 314.981L127.922 321.581C127.922 321.581 134.462 327.935 139.477 327.695C144.492 327.454 143.509 321.581 143.509 321.581L139.237 308.846L139.092 308.416L143.838 298.105C143.838 298.105 145.146 293.585 145.471 291.995C145.796 290.405 147.571 284.773 147.571 284.773C147.571 284.773 152.055 272.553 152.149 271.084C152.242 269.614 152.586 261.679 153.457 260.085C154.328 258.491 156.727 249.344 156.727 249.344L156.786 249.404C157.193 249.863 157.484 250.442 157.628 251.076C157.771 251.711 157.762 252.379 157.601 253.008C157.052 255.329 157.381 260.093 157.381 260.093C157.381 260.093 157.164 264.128 156.727 266.207C156.289 268.287 156.185 285.271 156.947 289.301C157.556 292.528 157.538 298.569 157.508 300.854C156.996 303.282 156.547 306.298 157.381 306.655C158.801 307.269 165.994 307.144 165.994 307.144C165.994 307.144 169.044 305.92 173.188 310.199C177.333 314.479 190.08 308.979 190.08 308.979C190.08 308.979 194.003 307.755 186.264 304.214C180.864 301.744 177.377 300.098 175.098 298.337C175.15 298.221 175.206 298.105 175.255 297.98C175.255 297.98 172.093 294.543 174.709 288.45C177.325 282.358 177.217 277.206 177.217 277.206L177.654 256.673L176.346 229.416L175.333 200.81L175.513 200.741C175.685 206 176.578 218.52 181.253 216.093C187.139 213.038 182.123 205.094 182.123 205.094L179.481 199.173L180.27 198.864L177.314 187.882C177.03 185.739 176.993 183.562 177.202 181.407C177.26 180.147 177.238 178.883 177.135 177.626C181.006 176.849 184.713 176.024 185.378 176.213C186.163 176.432 190.554 176.475 192.281 176.483C191.716 176.99 191.264 177.493 191.264 177.493L198.293 182.932C198.293 182.932 200.678 181.433 201.175 179.843C201.664 179.701 202.115 179.424 202.49 179.035C202.565 180.913 202.998 182.945 204.508 182.993C204.886 183.002 205.261 182.917 205.607 182.743L217.102 180.127L216.115 187.212L216.803 188.617C216.455 194.593 216.056 200.939 215.704 206.52L215.544 207.74L215.626 207.762C215.08 216.355 214.643 222.864 214.643 222.864C215.287 221.454 216.286 220.299 217.509 219.552L217.584 232.304C217.584 232.304 218.159 252.467 218.159 255.217C218.159 257.967 218.238 264.106 218.238 264.106C218.238 264.106 219.467 271.621 220.2 274.096C220.932 276.571 221.508 287.845 221.508 287.845C221.508 287.845 223.227 290.96 222.491 292.141C221.754 293.323 225.353 295.896 225.353 295.896C225.353 295.896 223.062 299.471 222.898 301.855C222.879 302.13 223.115 302.423 223.541 302.715C223.406 302.839 223.268 302.964 223.115 303.084C222.053 303.901 220.499 304.468 218.159 304.236C211.78 303.591 207.285 310.375 211.209 311.75C215.132 313.125 226.904 313.4 226.904 313.4C226.904 313.4 230.469 310.844 233.257 311.995C233.216 314.685 233.332 317.151 233.35 317.478L233.317 317.508C231.65 319.226 228.459 322.182 225.342 323.39C220.858 325.13 219.864 332.189 225.667 333.104C231.471 334.019 239.972 332.004 239.972 332.004C239.972 332.004 244.386 328.249 247.738 327.424C251.09 326.599 253.953 324.764 253.381 322.565C253.007 321.16 252.047 317.478 251.397 315.003C251.359 314.854 251.322 314.711 251.284 314.573C251.385 314.315 251.486 314.049 251.58 313.774C251.58 313.774 249.864 303.51 251.255 300.945C252.645 298.38 251.908 272.712 251.908 272.712C251.908 272.712 249.535 266.207 250.765 262.267C251.994 258.328 248.803 252.733 248.803 252.733C248.803 252.733 249.151 241.524 250.085 235.277C250.127 235.01 250.168 234.753 250.208 234.503C251.772 233.97 253.297 233.293 254.767 232.48C254.767 232.48 255.586 218.361 256.075 215.156C256.124 214.855 256.191 214.37 256.273 213.738L256.647 211.474L257.088 208.896L258.583 200.11L261.281 196.097L268.232 187.934C268.232 187.934 269.902 183.62 269.084 175.461ZM161.891 125.05L161.839 125.093C161.831 125.062 161.825 125.03 161.82 124.998C161.842 125.019 161.866 125.036 161.891 125.05ZM230.566 135.056L230.297 135.731L231.28 134.605L229.946 136.324L230.394 135.241L230.566 135.056ZM223.929 150.825C223.672 151.611 223.395 152.462 223.107 153.347L223.634 151.538L223.929 150.825Z" fill="url(#paint0_linear)"/>
<path d="M202.483 176.531C202.483 176.531 201.567 183.538 204.314 183.628C207.061 183.719 208.895 178.223 208.895 178.223L207.774 173.828L202.483 176.531Z" fill="#585B8A"/>
<path opacity="0.2" d="M202.483 176.531C202.483 176.531 201.567 183.538 204.314 183.628C207.061 183.719 208.895 178.223 208.895 178.223L207.774 173.828L202.483 176.531Z" fill="black"/>
<path d="M140.96 328.214C136.072 328.459 129.697 322.109 129.697 322.109L129.379 315.514C129.379 315.514 128.957 315.759 128.105 314.294C127.533 313.31 128.355 309.233 128.957 306.668C129.248 305.413 129.488 304.519 129.488 304.519L140.213 307.819L140.725 309.379L144.888 322.105C144.888 322.105 145.844 327.97 140.96 328.214Z" fill="black"/>
<path d="M190.24 309.533C190.24 309.533 177.815 315.029 173.797 310.754C169.78 306.479 166.787 307.699 166.787 307.699C166.787 307.699 159.776 307.823 158.393 307.209C157.579 306.852 158.02 303.798 158.528 301.366C158.872 299.686 159.245 298.298 159.245 298.298C159.245 298.298 171.458 293.533 173.371 296.463C173.946 297.324 174.633 298.078 175.408 298.698C177.62 300.536 181.077 302.204 186.544 304.769C194.063 308.309 190.24 309.533 190.24 309.533Z" fill="black"/>
<path d="M179.089 197.914L182.486 205.73C182.486 205.73 187.374 213.67 181.638 216.72C175.901 219.771 176.01 199.139 176.01 199.139L179.089 197.914Z" fill="#FFD6D6"/>
<path d="M164.855 130.141C164.855 130.141 168.573 132.096 170.804 140.277C173.035 148.457 176.01 162.382 176.01 162.382C176.01 162.382 178.028 178.133 177.706 182.043C177.502 184.196 177.538 186.371 177.815 188.513L180.681 199.504L174.945 201.824L166.129 162.992L164.855 130.141Z" fill="#DCE6F2"/>
<path opacity="0.05" d="M164.855 130.141C164.855 130.141 168.573 132.096 170.804 140.277C173.035 148.457 176.01 162.382 176.01 162.382C176.01 162.382 178.028 178.133 177.706 182.043C177.502 184.196 177.538 186.371 177.815 188.513L180.681 199.504L174.945 201.824L166.129 162.992L164.855 130.141Z" fill="black"/>
<path opacity="0.1" d="M140.213 307.823L140.725 309.383L140.097 310.762C137.653 311.982 131.599 311.007 131.599 311.007C131.599 311.007 130.478 309.37 128.946 306.676C129.237 305.422 129.476 304.528 129.476 304.528L140.213 307.823Z" fill="black"/>
<path opacity="0.1" d="M175.797 299.273C172.699 307.342 162.168 304.347 159.242 303.338C158.76 303.17 158.494 303.059 158.494 303.059C158.494 303.059 158.513 302.401 158.52 301.366C158.864 299.686 159.238 298.298 159.238 298.298C159.238 298.298 171.451 293.533 173.364 296.463C173.939 297.324 174.626 298.078 175.401 298.698C175.517 298.903 175.65 299.095 175.797 299.273Z" fill="black"/>
<path d="M175.262 289.017C172.714 295.119 175.797 298.543 175.797 298.543C172.699 306.607 162.168 303.617 159.242 302.603C158.76 302.44 158.494 302.328 158.494 302.328C158.494 302.328 158.707 293.898 157.964 289.868C157.22 285.838 157.325 268.867 157.751 266.792C158.177 264.716 158.386 260.682 158.386 260.682C158.386 260.682 158.068 255.922 158.599 253.601C158.759 252.975 158.769 252.31 158.63 251.677C158.491 251.044 158.206 250.465 157.807 250.001L157.751 249.936C157.751 249.936 155.415 259.097 154.563 260.678C153.711 262.259 153.397 270.203 153.289 271.668C153.18 273.133 148.827 285.348 148.827 285.348C148.827 285.348 147.13 290.964 146.812 292.549C146.495 294.135 145.217 298.659 145.217 298.659L140.097 310.019C137.653 311.239 131.599 310.264 131.599 310.264C131.599 310.264 130.433 308.545 128.837 305.744C127.242 302.942 126.502 293.048 126.502 293.048C126.502 293.048 132.343 292.923 130.855 286.452C129.368 279.982 132.13 274.972 132.025 272.772C131.92 270.573 133.299 263.372 134.043 262.272C134.787 261.172 134.678 256.532 134.465 253.967C134.252 251.402 134.361 242.366 134.361 242.366C134.361 242.366 134.574 238.336 135.635 236.506C136.696 234.675 136.274 229.421 136.274 229.421C136.274 229.421 138.288 228.2 136.909 216.355C135.53 204.509 139.152 189.124 139.152 189.124L139.275 186.975L139.469 183.495C139.469 183.495 169.847 181.295 172.291 183.981C172.93 184.726 173.455 185.59 173.842 186.537C174.678 188.604 175.269 190.79 175.599 193.038L176.873 230.039L178.147 257.271L177.721 277.786C177.721 277.786 177.815 282.908 175.262 289.017Z" fill="#006494"/>
<path opacity="0.1" d="M166.256 215.99L163.068 295.363L159.242 302.599C158.76 302.435 158.494 302.324 158.494 302.324C158.494 302.324 158.707 293.894 157.964 289.864C157.22 285.834 157.325 268.863 157.751 266.787C158.177 264.712 158.386 260.678 158.386 260.678C158.386 260.678 158.068 255.917 158.599 253.597C158.759 252.97 158.769 252.306 158.63 251.673C158.491 251.039 158.206 250.461 157.807 249.997L157.859 249.567L166.256 215.99Z" fill="black"/>
<path opacity="0.1" d="M131.928 301.228C131.928 301.228 140.213 297.443 141.487 298.65C142.761 299.858 131.719 301.701 131.719 301.701L131.928 301.228Z" fill="black"/>
<path opacity="0.1" d="M172.822 291.213C172.504 291.337 164.432 294.65 165.176 298.173C165.92 301.696 172.822 291.213 172.822 291.213Z" fill="black"/>
<path d="M147.597 110.545C147.597 110.545 150.303 118.055 148.871 121.905C147.44 125.754 164.324 132.345 164.324 132.345C164.324 132.345 159.387 117.69 164.167 109.445C168.947 101.2 147.597 110.545 147.597 110.545Z" fill="#FFD6D6"/>
<path d="M246.456 327.97C243.19 328.795 238.889 332.55 238.889 332.55C238.889 332.55 230.604 334.565 224.946 333.65C219.288 332.734 220.249 325.68 224.628 323.939C227.667 322.736 230.78 319.768 232.405 318.066C233.123 317.306 233.549 316.777 233.549 316.777L249.405 313.112C249.405 313.112 249.663 314.131 250.021 315.536C250.657 318.015 251.595 321.692 251.953 323.093C252.51 325.314 249.722 327.145 246.456 327.97Z" fill="black"/>
<path d="M242.394 313.864C242.394 313.864 235.701 314.689 232.913 312.859C230.125 311.028 226.142 313.959 226.142 313.959C226.142 313.959 214.669 313.684 210.846 312.309C207.023 310.934 211.403 304.145 217.618 304.798C219.882 305.035 221.414 304.463 222.45 303.647C223.531 302.795 224.285 301.496 224.553 300.021L238.007 300.936L239.875 306.418L242.394 313.864Z" fill="black"/>
<path opacity="0.1" d="M240.081 308.919C240.081 308.919 224.445 305.98 222.45 303.647C223.531 302.795 224.285 301.496 224.554 300.021L238.007 300.936L239.875 306.418L240.081 308.919Z" fill="black"/>
<path d="M216.9 206.069L217.061 232.901C217.061 232.901 217.618 253.051 217.618 255.801C217.618 258.551 217.696 264.682 217.696 264.682C217.696 264.682 218.892 272.192 219.609 274.667C220.327 277.142 220.884 288.416 220.884 288.416C220.884 288.416 222.558 291.531 221.84 292.712C221.123 293.894 224.628 296.468 224.628 296.468C224.628 296.468 222.386 300.042 222.24 302.423C222.094 304.803 240.081 308.184 240.081 308.184L233.074 225.575L227.494 204.879L216.9 206.069Z" fill="#575988"/>
<path opacity="0.1" d="M216.9 206.069L204.408 239.855C204.408 239.855 217.618 253.051 217.618 255.801C217.618 258.551 217.696 264.682 217.696 264.682C217.696 264.682 216.183 271.645 216.9 274.12C217.618 276.595 220.884 288.416 220.884 288.416C220.884 288.416 222.558 291.531 221.84 292.712C221.123 293.894 224.628 296.468 224.628 296.468C224.628 296.468 222.386 300.042 222.24 302.423C222.095 304.803 227.495 302.423 227.495 302.423L220.884 227.84L227.495 204.879L216.9 206.069Z" fill="#006494"/>
<path opacity="0.1" d="M250.021 315.557C244.816 329.826 232.435 318.814 232.435 318.814C232.435 318.814 232.435 318.539 232.405 318.066C233.123 317.306 233.549 316.777 233.549 316.777L249.405 313.112C249.405 313.112 249.663 314.152 250.021 315.557Z" fill="black"/>
<path d="M250.201 314.324C245.1 329.362 232.435 318.079 232.435 318.079C232.435 318.079 232.035 310.294 232.835 306.723C233.635 303.153 231.957 292.433 231.957 292.433C231.957 292.433 231 282.908 230.126 280.712C229.251 278.517 229.33 274.117 229.33 273.752C229.33 273.387 229.647 270.452 228.93 268.437C228.212 266.422 227.809 261.477 227.809 261.477C227.809 261.477 227.809 254.516 227.091 250.396L224.621 236.218L220.159 207.182L221.553 206.907L246.527 201.871C246.527 201.871 251.229 229.369 249.633 232.187C249.289 232.806 248.986 234.16 248.736 235.904C247.824 242.143 247.484 253.343 247.484 253.343C247.484 253.343 250.59 258.929 249.397 262.869C248.205 266.809 250.519 273.309 250.519 273.309C250.519 273.309 251.236 298.955 249.88 301.52C248.523 304.085 250.201 314.324 250.201 314.324Z" fill="#006494"/>
<path d="M247.809 126.846C247.809 126.846 225.185 145.162 230.282 136.002C233.029 131.069 232.525 124.788 231.448 120.044C230.904 117.632 230.153 115.287 229.206 113.045C229.206 113.045 248.429 103.645 245.881 112.07C245.283 114.033 245.029 116.112 245.133 118.188C245.286 121.309 246.215 124.314 247.809 126.846Z" fill="#D28690"/>
<path d="M207.076 168.793C207.076 168.793 197.516 165.618 195.924 168.733C194.332 171.847 196.403 178.683 199.288 179.783C202.173 180.883 208.795 176.058 208.795 176.058L207.076 168.793Z" fill="#D28690"/>
<path d="M218.018 163.392L214.034 167.607C214.034 167.607 207.102 168.337 205.11 167.787C205.11 167.787 206.945 181.893 204.314 183.633L220.406 179.878L218.018 163.392Z" fill="#585B8A"/>
<path opacity="0.1" d="M218.018 163.392L214.034 167.607C214.034 167.607 207.102 168.337 205.11 167.787C205.11 167.787 206.945 181.893 204.314 183.633L220.406 179.878L218.018 163.392Z" fill="#006494"/>
<path opacity="0.1" d="M166.873 102.85C166.873 106.496 165.613 109.993 163.37 112.572C161.127 115.15 158.086 116.599 154.914 116.599C148.778 113.209 142.956 110.45 142.956 102.85C142.892 101 143.154 99.1544 143.726 97.4238C144.298 95.6933 145.168 94.1133 146.283 92.7786C147.399 91.4439 148.738 90.3821 150.22 89.6568C151.701 88.9315 153.295 88.5576 154.905 88.5576C156.515 88.5576 158.109 88.9315 159.59 89.6568C161.072 90.3821 162.41 91.4439 163.526 92.7786C164.642 94.1133 165.512 95.6933 166.084 97.4238C166.656 99.1544 166.918 101 166.854 102.85H166.873Z" fill="black"/>
<path d="M166.873 102.48C166.874 105.714 165.883 108.844 164.073 111.319C162.264 113.794 159.752 115.455 156.981 116.009C154.211 116.563 151.359 115.974 148.929 114.347C146.498 112.719 144.646 110.157 143.699 107.113C142.751 104.069 142.769 100.737 143.749 97.7067C144.729 94.6759 146.608 92.1404 149.056 90.5473C151.503 88.9541 154.361 88.4057 157.126 88.9986C159.89 89.5916 162.384 91.2879 164.167 93.7884C165.913 96.2406 166.869 99.311 166.873 102.48Z" fill="#FFD6D6"/>
<path opacity="0.1" d="M173.842 186.55C172.659 187.395 171.421 188.133 170.139 188.759C170.139 188.759 164.085 187.749 163.21 188.939C162.336 190.129 154.615 190.589 154.615 190.589C154.615 190.589 142.825 189.949 141.072 188.209C140.53 187.704 139.927 187.293 139.282 186.988L139.477 183.508C139.477 183.508 169.855 181.308 172.299 183.994C172.935 184.74 173.457 185.604 173.842 186.55Z" fill="black"/>
<path d="M175.318 184.088C175.079 185.643 170.139 188.024 170.139 188.024C170.139 188.024 164.085 187.018 163.21 188.209C162.336 189.399 154.615 189.858 154.615 189.858C154.615 189.858 142.825 189.214 141.072 187.474C139.32 185.734 135.415 184.896 135.415 184.896C135.415 184.896 133.423 168.595 134.222 165.025C135.022 161.454 133.027 151.65 132.548 148.169C132.07 144.689 133.901 135.074 136.132 133.518C138.363 131.963 141.551 126.738 143.46 125.183C145.071 123.873 146.85 122.176 147.369 121.664L147.522 121.518C147.522 121.518 147.844 118.678 149.118 117.222C150.393 115.765 162.101 126.472 162.101 126.472C162.101 126.472 162.183 127.297 162.979 125.742C163.158 125.394 164.702 127.954 164.971 129.037C164.971 129.037 171.342 141.862 171.742 144.504C172.142 147.147 173.812 155.77 174.13 157.875C174.212 158.417 174.347 160.316 174.504 162.859C174.534 163.358 174.56 163.886 174.593 164.436C174.829 168.655 175.083 174.043 175.236 178.116C175.236 178.58 175.27 179.027 175.281 179.457C175.362 180.999 175.374 182.545 175.318 184.088Z" fill="#DCE6F2"/>
<path opacity="0.1" d="M134.865 151.022C134.865 151.022 139.245 157.158 140.68 157.158C142.115 157.158 134.865 151.022 134.865 151.022Z" fill="black"/>
<path opacity="0.1" d="M144.092 164.212C144.092 164.212 136.92 173.188 137.877 174.838C138.834 176.488 144.092 164.212 144.092 164.212Z" fill="black"/>
<path opacity="0.1" d="M138.834 182.073C138.834 182.073 147.055 171.723 147.429 168.152L138.834 182.073Z" fill="black"/>
<path opacity="0.1" d="M149.189 182.803C149.189 182.803 158.67 177.033 159.466 172.453C160.262 167.873 149.189 182.803 149.189 182.803Z" fill="black"/>
<path opacity="0.1" d="M161.219 127.121L159.903 130.781L162.093 131.971L164.245 138.889C164.245 138.889 170.18 152.535 169.941 159.632C169.702 166.73 171.017 177.398 171.017 177.398L174.44 176.668L172.826 155.791C172.574 152.559 171.87 149.395 170.74 146.421C168.005 139.22 162.915 125.926 162.594 125.926C162.157 125.926 162.463 126.111 162.463 126.111L161.219 127.121Z" fill="black"/>
<path d="M161.536 126.751L160.221 130.416L162.414 131.606L164.563 138.524C164.563 138.524 170.497 152.169 170.258 159.267C170.019 166.365 171.335 177.033 171.335 177.033L174.761 176.303L173.143 155.426C172.895 152.194 172.192 149.029 171.062 146.055C168.326 138.85 163.236 125.561 162.919 125.561C162.478 125.561 162.784 125.746 162.784 125.746L161.536 126.751Z" fill="#006494"/>
<path d="M200.33 180.578C198.664 180.432 194.665 178.107 193.077 177.141L192.404 176.711L192.486 169.617C192.879 169.352 193.286 169.115 193.705 168.908C195.827 167.843 200.181 166.395 202.363 171.057C205.308 177.308 202.442 180.741 200.33 180.578Z" fill="#FFD6D6"/>
<path opacity="0.1" d="M164.167 93.7885C163.996 93.9118 163.808 94.0005 163.61 94.0506C162.224 94.3986 160.647 93.0281 159.458 93.9088C158.734 94.4502 158.565 95.5716 158.468 96.5598C158.299 98.2784 158.129 99.9855 157.96 101.681C157.924 102.285 157.814 102.88 157.631 103.447C157.044 104.99 155.434 105.716 153.965 105.69C153.39 105.737 152.822 105.521 152.384 105.088C152.126 104.788 151.988 104.367 151.704 104.092C149.836 102.291 149.268 106.704 149.761 107.958C150.553 110.008 153.367 111.984 152.186 114.588C151.988 115.011 151.686 115.359 151.319 115.589C149.54 114.948 147.915 113.838 146.575 112.347C145.236 110.855 144.218 109.025 143.603 107C142.988 104.976 142.794 102.815 143.035 100.689C143.277 98.5629 143.947 96.5313 144.993 94.7564C146.039 92.9814 147.432 91.5124 149.06 90.4665C150.688 89.4207 152.506 88.827 154.369 88.733C156.232 88.6389 158.088 89.0471 159.789 89.9249C161.491 90.8027 162.99 92.1258 164.167 93.7885Z" fill="black"/>
<path d="M151.387 104.074C151.667 104.345 151.809 104.766 152.067 105.067C152.504 105.499 153.072 105.715 153.647 105.668C155.116 105.694 156.727 104.972 157.31 103.421C157.496 102.856 157.608 102.262 157.642 101.66L158.151 96.5381C158.248 95.55 158.412 94.4286 159.141 93.8872C160.329 93.0279 161.906 94.377 163.293 94.029C163.792 93.8829 164.225 93.5236 164.503 93.0241C164.78 92.5245 164.882 91.9221 164.787 91.3394C164.627 90.5187 164.081 89.87 163.801 89.088C163.631 88.4872 163.495 87.8744 163.394 87.2534C162.62 83.9193 159.216 82.046 156.256 82.6046C154.612 82.9182 153.083 83.8205 151.435 84.0955C150.254 84.2931 149.047 84.1642 147.855 84.3103C146.748 84.4417 145.671 84.8073 144.679 85.3887C144.418 85.5212 144.188 85.7212 144.006 85.973C143.837 86.3131 143.723 86.6859 143.67 87.0729C143.27 88.7915 141.984 90.059 141.054 91.5069C139.989 93.1729 139.374 95.1612 139.282 97.2256C139.246 97.7528 139.289 98.2834 139.409 98.7938C139.488 99.0946 139.611 99.3867 139.671 99.6961C139.854 100.637 139.436 101.578 139.23 102.515C138.975 103.71 139.067 104.968 139.492 106.098C140.927 109.892 145.654 111.159 146.637 115.142C147.51 115.623 148.452 115.914 149.417 116.001C150.381 116.023 151.42 115.546 151.869 114.562C153.046 111.984 150.236 109.982 149.443 107.937C148.946 106.678 149.503 102.27 151.387 104.074Z" fill="#353045"/>
<path opacity="0.1" d="M245.899 112.07C245.302 114.033 245.048 116.112 245.152 118.188C244.577 118.751 243.949 117.067 243.284 117.501C241.46 118.712 239.352 121.595 237.095 121.595C235.138 121.597 233.208 121.065 231.463 120.044C230.919 117.632 230.168 115.287 229.221 113.045C229.221 113.045 248.448 103.645 245.899 112.07Z" fill="black"/>
<path d="M249.509 106.575C249.509 109.401 248.78 112.164 247.415 114.514C246.049 116.864 244.108 118.696 241.837 119.777C239.565 120.859 237.066 121.142 234.655 120.59C232.244 120.039 230.03 118.678 228.291 116.68C226.553 114.681 225.369 112.135 224.89 109.363C224.41 106.591 224.656 103.717 225.597 101.106C226.538 98.495 228.131 96.2632 230.175 94.693C232.219 93.1228 234.622 92.2847 237.08 92.2847C238.712 92.2841 240.329 92.6533 241.837 93.3713C243.345 94.0892 244.716 95.1418 245.87 96.4689C247.024 97.796 247.94 99.3715 248.564 101.106C249.189 102.84 249.51 104.698 249.509 106.575Z" fill="#D28690"/>
<path d="M248.979 130.021C248.979 130.021 246.639 132.951 246.322 133.192C246.004 133.432 239.222 166.275 239.102 166.657C238.982 167.04 231.026 196.694 231.026 196.694L218.279 203.899L219.344 167.628L228.687 137.716C228.687 137.716 231.77 133.686 232.723 132.221C233.676 130.756 245.574 121.961 245.574 121.961L247.607 126.777L248.979 130.021Z" fill="#F0F3F7"/>
<path opacity="0.1" d="M247.293 127.512L232.637 139.576L232.401 132.951C233.358 131.486 245.253 122.695 245.253 122.695L247.293 127.512Z" fill="black"/>
<path d="M247.611 126.777L232.954 138.842L232.726 132.221C233.683 130.751 245.578 121.961 245.578 121.961L247.611 126.777Z" fill="#F0F3F7"/>
<path d="M232.237 129.273L232.726 132.221L229.449 136.049L232.065 129.316C232.065 129.316 226.459 133.806 224.778 134.996C223.096 136.187 221.414 140.217 221.351 141.317C221.287 142.416 218.642 158.992 218.642 158.992C218.642 158.992 216.65 165.128 217.21 166.868C217.771 168.608 214.183 223.47 214.183 223.47C214.663 222.405 215.341 221.474 216.169 220.744C216.997 220.014 217.955 219.503 218.974 219.247L217.696 186.825C217.696 186.825 219.251 165.257 219.329 164.982C219.408 164.707 222.954 152.204 222.954 152.204L232.237 129.273Z" fill="#006494"/>
<path opacity="0.1" d="M233.048 132.586L232.794 138.601C232.794 138.601 229.247 151.469 228.055 153.574C226.863 155.68 223.234 168.23 223.234 168.23L221.19 190.03L217.685 191.865L215.958 188.209L218.829 167.156C218.829 167.156 224.243 149.39 225.043 147.555L229.038 137.879L233.048 132.586Z" fill="black"/>
<path d="M232.726 132.221L232.476 138.236C232.476 138.236 228.929 151.104 227.734 153.209C226.538 155.314 222.917 167.865 222.917 167.865L220.884 189.661L217.378 191.491L215.626 187.83L218.496 166.778C218.496 166.778 223.911 149.007 224.707 147.177L228.731 137.514L232.726 132.221Z" fill="#006494"/>
<path d="M191.41 178.133L198.26 183.585C198.26 183.585 203.092 180.47 200.278 178.455C197.464 176.44 194.968 176.135 194.063 176.135C193.159 176.135 191.41 178.133 191.41 178.133Z" fill="#D28690"/>
<path d="M196.526 168.054C196.373 168.163 196.247 168.316 196.16 168.497C196.073 168.678 196.028 168.882 196.029 169.089C196.029 170.76 196.193 175.186 197.412 173.188C198.906 170.743 198.634 168.548 200.917 170.133C202.336 171.149 203.578 172.461 204.579 174L203.944 168.75C203.944 168.75 199.25 166.086 196.526 168.054Z" fill="#D28690"/>
<path opacity="0.1" d="M249.64 232.17C249.296 232.789 248.994 234.143 248.743 235.887C234.774 240.703 224.554 230.521 224.554 230.521C223.317 225.703 222.307 220.812 221.527 215.869C221.276 214.177 221.332 210.894 221.564 206.89L246.538 201.854C246.538 201.854 251.236 229.33 249.64 232.17Z" fill="black"/>
<path d="M263.979 150.197C263.344 152.582 263.583 157.432 263.583 157.432L257.847 188.574C257.847 188.574 255.059 212.57 254.58 215.775C254.102 218.98 253.306 233.085 253.306 233.085C237.054 242.246 224.531 229.79 224.531 229.79C223.295 224.971 222.284 220.078 221.504 215.135C220.704 209.695 223.059 187.903 224.172 178.223C224.505 175.358 224.729 173.553 224.729 173.553L228.911 155.692C228.911 155.692 234.049 140.625 235.963 136.229C237.876 131.834 245.559 121.961 245.559 121.961C246.512 121.265 248.037 123.722 249.169 125.961C250.025 127.653 250.664 129.226 250.664 129.226C250.664 129.226 260.223 133.986 261.655 136.53C263.086 139.074 262.85 144.315 263.011 144.59C263.172 144.865 264.618 147.817 263.979 150.197Z" fill="#006494"/>
<path opacity="0.1" d="M241.438 139.117C241.438 139.117 242.155 143.972 240.316 145.437C238.541 146.855 225.327 176.728 224.505 178.593C224.838 175.723 225.062 173.918 225.062 173.918L229.244 156.062C229.244 156.062 234.386 140.994 236.295 136.594C238.205 132.195 245.896 122.326 245.896 122.326C246.849 121.63 248.37 124.087 249.502 126.326C247.794 130.403 244.233 138.111 241.438 139.117Z" fill="black"/>
<path d="M241.12 138.751C241.12 138.751 241.834 143.606 239.999 145.071C238.164 146.537 225.013 176.359 224.18 178.223C224.513 175.358 224.737 173.553 224.737 173.553L228.918 155.692C228.918 155.692 234.057 140.625 235.97 136.229C237.884 131.834 245.567 121.961 245.567 121.961C246.52 121.265 248.044 123.722 249.177 125.961C247.476 130.034 243.911 137.746 241.12 138.751Z" fill="#006494"/>
<path d="M260.078 182.623L255.582 209.515V209.519L255.152 212.093V212.097L254.184 217.885L250.055 216.879L248.13 216.411L221.497 209.923L219.538 209.446L215.069 208.359L215.943 201.682L216.306 198.907L219.531 174.288L260.078 182.623Z" fill="#006494"/>
<path d="M235.223 204.604C235.223 204.604 224.628 208.999 226.938 214.22C229.247 219.44 244.065 210.189 244.065 210.189L235.223 204.604Z" fill="#D28690"/>
<path opacity="0.1" d="M242.79 242.061C242.79 242.426 243.19 247.101 244.782 248.746C246.374 250.392 242.79 242.061 242.79 242.061Z" fill="black"/>
<path opacity="0.1" d="M232.117 258.637C232.117 258.637 234.027 264.682 241.594 267.157C249.162 269.632 232.117 258.637 232.117 258.637Z" fill="black"/>
<path opacity="0.1" d="M249.509 106.575C249.51 109.087 248.934 111.555 247.841 113.73C246.747 115.904 245.174 117.709 243.28 118.962C242.566 118.502 241.932 117.895 241.411 117.17C240.869 116.414 240.447 115.383 240.772 114.48C241.034 113.754 241.725 113.295 241.893 112.543C241.973 112.083 241.952 111.608 241.833 111.159C241.695 110.45 241.564 109.741 241.43 109.037C241.314 108.435 241.108 107.726 240.589 107.58C240.07 107.434 239.636 107.933 239.229 108.302C238.231 109.209 236.318 109.823 235.118 109.08C233.918 108.336 234.255 105.849 234.06 104.504C234.058 104.387 234.033 104.272 233.988 104.168C233.943 104.063 233.878 103.971 233.799 103.898C233.624 103.832 233.438 103.817 233.257 103.855C232.61 103.855 232.091 103.189 231.904 102.476C231.772 101.748 231.699 101.007 231.687 100.263C231.616 99.52 231.381 98.7337 230.828 98.3513C230.386 98.1148 229.896 98.0227 229.412 98.0849L227.068 98.115C228.623 95.6989 230.8 93.9077 233.291 92.9961C235.782 92.0845 238.459 92.0989 240.942 93.0372C243.425 93.9755 245.588 95.79 247.123 98.2227C248.657 100.655 249.486 103.583 249.491 106.588L249.509 106.575Z" fill="black"/>
<path d="M239.561 108.302C239.969 107.933 240.417 107.443 240.922 107.585C241.426 107.726 241.643 108.444 241.759 109.037L242.162 111.155C242.282 111.605 242.304 112.081 242.226 112.543C242.035 113.299 241.348 113.754 241.082 114.481C240.757 115.383 241.183 116.414 241.721 117.166C242.703 118.526 244.06 119.458 245.567 119.808C245.96 119.917 246.369 119.927 246.766 119.838C247.656 119.602 248.261 118.661 248.74 117.78C251.21 113.355 253.336 108.504 253.77 103.271C253.889 102.204 253.846 101.121 253.643 100.07C253.44 99.2536 253.154 98.4675 252.791 97.7285C252.154 96.2186 251.346 94.8127 250.388 93.548C248.687 91.4427 246.34 90.1494 243.93 89.3846C241.219 88.5197 238.388 88.2644 235.593 88.6328C234.845 88.7316 234.128 88.8734 233.392 88.9292C232.467 88.9786 231.541 88.9614 230.619 88.8777L225.118 88.4996C224.804 89.2343 225.118 90.1065 225.492 90.7939C225.865 91.4813 226.329 92.1946 226.299 93.0109C226.269 93.8272 225.764 94.4717 225.376 95.1592C224.987 95.8466 224.692 96.736 225.081 97.4062C225.469 98.0765 226.261 98.1194 226.949 98.1109L229.722 98.0765C230.205 98.0194 230.692 98.116 231.131 98.3558C231.684 98.7381 231.919 99.5287 231.99 100.268C232.006 101.011 232.078 101.752 232.207 102.48C232.398 103.194 232.913 103.868 233.56 103.86C233.741 103.818 233.928 103.834 234.102 103.907C234.181 103.979 234.246 104.07 234.291 104.174C234.336 104.278 234.361 104.392 234.363 104.508C234.558 105.853 234.199 108.337 235.421 109.084C236.643 109.832 238.564 109.209 239.561 108.302Z" fill="#663D5C"/>
<path opacity="0.1" d="M255.358 136.526C253.984 136.358 252.601 136.732 251.437 137.587C250.272 138.442 249.395 139.727 248.949 141.23C247.454 146.124 244.962 154.953 245.586 158.442C246.464 163.388 247.499 171.633 247.499 171.633C247.499 171.633 252.039 174.64 249.741 177.673C247.443 180.707 246.793 185.003 246.793 185.003C246.793 185.003 243.844 186.468 243.209 189.583C242.574 192.698 238.269 196.999 238.269 196.999L231.818 204.419C231.818 204.419 242.491 216.879 244.644 217.515L251.255 208.63L259.061 196.724L265.833 188.561C265.833 188.561 267.425 184.264 266.629 176.101C265.833 167.938 262.724 160.165 262.724 160.165L262.963 157.415C262.963 157.415 263.695 137.716 255.358 136.526Z" fill="black"/>
<path d="M255.993 136.526C254.62 136.36 253.239 136.735 252.076 137.59C250.913 138.445 250.037 139.728 249.592 141.231C248.097 146.124 245.604 154.954 246.228 158.442C247.103 163.388 248.138 171.633 248.138 171.633C248.138 171.633 252.679 174.64 250.38 177.673C248.082 180.707 247.435 185.003 247.435 185.003C247.435 185.003 244.487 186.468 243.848 189.583C243.209 192.698 238.911 196.999 238.911 196.999L232.458 204.419C232.458 204.419 243.13 216.879 245.283 217.515L251.894 208.63L259.682 196.724L266.453 188.561C266.453 188.561 268.049 184.264 267.249 176.101C266.449 167.938 263.348 160.165 263.348 160.165L263.587 157.415C263.587 157.415 264.331 137.716 255.993 136.526Z" fill="#006494"/>
<path opacity="0.1" d="M249.323 164.397C249.323 164.397 256.094 173.918 258.964 171.813C261.834 169.708 249.323 164.397 249.323 164.397Z" fill="black"/>
<path opacity="0.1" d="M251.871 157.067C252.589 157.342 258.486 166.777 261.513 165.66C264.54 164.543 251.871 157.067 251.871 157.067Z" fill="black"/>
<path opacity="0.1" d="M253.545 173.274C253.545 173.274 253.945 178.679 258.803 177.944C263.662 177.21 253.545 173.274 253.545 173.274Z" fill="black"/>
<path opacity="0.1" d="M232.076 129.681L229.449 136.414L232.73 132.586L232.076 129.681Z" fill="black"/>
<path d="M232.076 129.316L229.449 136.049L232.73 132.221L232.076 129.316Z" fill="#F0F3F7"/>
<path opacity="0.3" d="M221.497 209.923L219.539 209.446L215.944 201.682L216.306 198.907L221.497 209.923Z" fill="black"/>
<path opacity="0.3" d="M255.582 209.519L255.152 212.093V212.097L250.055 216.879L248.13 216.411L255.582 209.519Z" fill="black"/>
<path opacity="0.1" d="M175.27 179.474C174.283 179.663 173.327 179.835 172.452 179.964C167.594 180.698 156.039 174.103 156.039 174.103C156.039 174.103 141.939 160.548 137.877 147.727C133.815 134.906 142.735 132.981 142.735 132.981C146.099 130.781 153.412 136.917 154.447 137.927C155.482 138.936 156.361 141.497 156.278 143.147C156.196 144.797 158.67 146.902 158.67 146.902C158.67 146.902 162.893 155.327 163.928 156.243C164.963 157.158 165.202 157.983 165.52 159.542C165.838 161.102 168.626 162.382 169.821 162.288C171.017 162.193 172.437 162.747 172.437 163.478C172.437 164.066 173.607 164.359 174.567 164.453C174.851 169.149 175.132 175.302 175.27 179.474Z" fill="black"/>
<path opacity="0.1" d="M175.225 178.133C174.478 178.271 173.76 178.395 173.087 178.498C168.229 179.233 156.678 172.638 156.678 172.638C156.678 172.638 142.578 159.083 138.516 146.262C134.454 133.441 143.374 131.516 143.374 131.516C146.738 129.316 154.047 135.452 155.082 136.461C156.118 137.471 156.996 140.032 156.917 141.682C156.839 143.332 159.305 145.437 159.305 145.437C159.305 145.437 163.528 153.862 164.563 154.777C165.598 155.693 165.838 156.518 166.159 158.077C166.48 159.637 169.264 160.913 170.46 160.823C171.656 160.732 173.076 161.282 173.076 162.013C173.076 162.442 173.741 162.73 174.481 162.872C174.511 163.37 174.537 163.899 174.571 164.449C174.818 168.672 175.072 174.06 175.225 178.133Z" fill="black"/>
<path opacity="0.1" d="M193.705 168.909L193.402 177.141H193.077L192.404 176.711L192.486 169.618C192.879 169.352 193.286 169.115 193.705 168.909Z" fill="black"/>
<path d="M142.735 132.246C142.735 132.246 133.815 134.171 137.877 146.992C141.939 159.813 156.039 173.373 156.039 173.373C156.039 173.373 167.59 179.963 172.452 179.233C177.314 178.503 184.717 176.578 185.674 176.853C186.63 177.128 193.084 177.128 193.084 177.128L193.402 168.535L185.928 168.075L182.105 167.16C182.105 167.16 180.748 165.871 179.952 166.06C179.156 166.249 177.486 164.96 177.486 164.96C177.486 164.96 176.208 163.77 175.244 163.77C174.28 163.77 172.456 163.495 172.456 162.765C172.456 162.034 171.021 161.476 169.84 161.574C168.659 161.673 165.838 160.384 165.509 158.807C165.18 157.231 164.952 156.427 163.917 155.512C162.882 154.597 158.659 146.167 158.659 146.167C158.659 146.167 156.189 144.062 156.267 142.416C156.346 140.771 155.471 138.201 154.436 137.192C153.401 136.182 146.076 130.051 142.735 132.246Z" fill="#DCE6F2"/>
<path opacity="0.1" d="M165.681 161.738C165.681 161.738 162.254 165.678 163.128 166.408L165.681 161.738Z" fill="black"/>
<path opacity="0.1" d="M169.343 164.853C169.343 164.853 164.881 168.793 166.077 169.068C167.273 169.343 169.343 164.853 169.343 164.853Z" fill="black"/>
<path opacity="0.1" d="M161.772 170.696C162.411 171.065 171.888 177.57 175.475 177.476L161.772 170.696Z" fill="black"/>
<path opacity="0.1" d="M162.414 127.211C162.414 127.211 160.74 133.531 160.101 133.531C159.6 133.531 151.192 125.703 147.683 122.412L147.836 122.266C147.836 122.266 148.154 119.426 149.428 117.969C150.703 116.513 162.414 127.211 162.414 127.211Z" fill="black"/>
<path d="M162.093 126.476C162.093 126.476 160.423 132.796 159.784 132.796C159.279 132.796 150.871 124.968 147.362 121.677L147.515 121.531C147.515 121.531 147.836 118.691 149.111 117.234C150.385 115.778 162.093 126.476 162.093 126.476Z" fill="#DCE6F2"/>
<g opacity="0.15">
<path opacity="0.15" d="M139.533 106.051C140.654 108.994 143.741 110.42 145.531 112.766C144.466 109.883 141.353 108.47 139.533 106.051Z" fill="black"/>
<path opacity="0.15" d="M150.957 112.831C150.512 113.814 149.462 114.291 148.505 114.27C147.655 114.2 146.822 113.955 146.046 113.548C146.328 114.025 146.542 114.55 146.682 115.103C147.554 115.585 148.497 115.877 149.462 115.963C150.43 115.988 151.469 115.512 151.914 114.523C152.627 112.955 151.884 111.615 151.013 110.347C151.175 110.737 151.255 111.165 151.245 111.597C151.235 112.028 151.136 112.451 150.957 112.831Z" fill="black"/>
<path opacity="0.15" d="M164.825 91.2965C164.664 90.4715 164.119 89.8228 163.838 89.0451C163.667 88.4434 163.531 87.829 163.431 87.2062C163.219 86.3255 162.825 85.5165 162.284 84.8474C162.359 85.0589 162.423 85.2756 162.474 85.4962C162.579 86.1217 162.719 86.7389 162.893 87.3437C163.173 88.1213 163.719 88.7701 163.879 89.5951C163.974 90.1778 163.872 90.7802 163.595 91.2797C163.317 91.7793 162.884 92.1386 162.385 92.2847C161.002 92.6327 159.425 91.2578 158.236 92.1429C157.508 92.6799 157.34 93.8013 157.242 94.7895C157.075 96.5081 156.906 98.2167 156.734 99.9153C156.7 100.518 156.59 101.111 156.405 101.677C155.819 103.224 154.208 103.95 152.739 103.924C152.165 103.968 151.599 103.752 151.162 103.322C150.95 102.976 150.722 102.644 150.478 102.326C148.61 100.521 148.042 104.934 148.535 106.192C148.782 106.759 149.088 107.288 149.447 107.769C149.036 106.351 149.611 102.27 151.435 104.018C151.678 104.336 151.905 104.668 152.115 105.015C152.554 105.444 153.121 105.66 153.696 105.617C155.165 105.642 156.775 104.916 157.362 103.37C157.547 102.803 157.657 102.208 157.691 101.604C157.86 99.8852 158.03 98.178 158.199 96.4823C158.296 95.4941 158.464 94.3728 159.189 93.8357C160.382 92.9506 161.959 94.3255 163.341 93.9732C163.837 93.8254 164.266 93.4671 164.541 92.9704C164.816 92.4738 164.918 91.8756 164.825 91.2965Z" fill="black"/>
</g>
<path opacity="0.1" d="M247.562 118.743C247.165 118.828 246.756 118.816 246.363 118.708C244.858 118.359 243.502 117.428 242.521 116.07C241.979 115.314 241.553 114.283 241.882 113.381C242.144 112.655 242.831 112.199 243.003 111.443C243.081 110.981 243.059 110.505 242.94 110.055L242.536 107.937C242.42 107.335 242.218 106.627 241.699 106.485C241.179 106.343 240.746 106.833 240.339 107.202C239.341 108.109 237.424 108.728 236.228 107.98C235.032 107.232 235.365 104.749 235.17 103.404C235.167 103.288 235.142 103.174 235.097 103.07C235.052 102.967 234.988 102.875 234.909 102.803C234.734 102.733 234.545 102.716 234.363 102.755C233.717 102.755 233.201 102.089 233.01 101.376C232.881 100.648 232.81 99.907 232.797 99.1635C232.723 98.4245 232.491 97.6339 231.934 97.2515C231.495 97.0139 231.008 96.9174 230.525 96.9723L227.752 97.0066C227.068 97.0066 226.258 96.9551 225.884 96.302C225.51 95.6489 225.787 94.7209 226.179 94.0549C226.571 93.389 227.068 92.7273 227.102 91.9067C227.136 91.086 226.672 90.3771 226.295 89.6897C226.078 89.3138 225.919 88.8982 225.824 88.4609L225.028 88.405C224.718 89.1354 225.028 90.0076 225.402 90.6994C225.775 91.3911 226.243 92.1 226.209 92.9121C226.175 93.7241 225.678 94.3772 225.286 95.0603C224.894 95.7435 224.606 96.6371 224.994 97.3074C225.383 97.9776 226.172 98.0249 226.863 98.0163L229.636 97.9776C230.119 97.9239 230.606 98.0219 231.045 98.2612C231.601 98.6436 231.837 99.4342 231.908 100.173C231.92 100.917 231.992 101.658 232.125 102.386C232.312 103.095 232.831 103.774 233.477 103.761C233.659 103.724 233.845 103.74 234.019 103.808C234.098 103.881 234.163 103.973 234.208 104.078C234.253 104.182 234.278 104.297 234.281 104.414C234.475 105.754 234.116 108.242 235.338 108.99C236.561 109.737 238.466 109.118 239.449 108.212C239.857 107.842 240.309 107.353 240.813 107.49C241.318 107.628 241.534 108.349 241.647 108.942L242.054 111.065C242.172 111.515 242.193 111.991 242.114 112.453C241.927 113.204 241.236 113.664 240.974 114.386C240.649 115.288 241.071 116.324 241.613 117.076C242.601 118.439 243.966 119.371 245.481 119.714C245.874 119.822 246.283 119.833 246.68 119.748C247.323 119.523 247.874 119.041 248.235 118.39C248.031 118.553 247.803 118.672 247.562 118.743Z" fill="black"/>
<path opacity="0.1" d="M76.1193 308.493C81.1077 308.493 85.1516 307.78 85.1516 306.899C85.1516 306.019 81.1077 305.305 76.1193 305.305C71.1308 305.305 67.0869 306.019 67.0869 306.899C67.0869 307.78 71.1308 308.493 76.1193 308.493Z" fill="#6C63FF"/>
<path opacity="0.1" d="M391.493 267.049C396.482 267.049 400.526 266.336 400.526 265.455C400.526 264.575 396.482 263.861 391.493 263.861C386.505 263.861 382.461 264.575 382.461 265.455C382.461 266.336 386.505 267.049 391.493 267.049Z" fill="#6C63FF"/>
<path opacity="0.1" d="M299.41 334.303C313.857 334.303 325.569 332.237 325.569 329.688C325.569 327.14 313.857 325.074 299.41 325.074C284.962 325.074 273.251 327.14 273.251 329.688C273.251 332.237 284.962 334.303 299.41 334.303Z" fill="#6C63FF"/>
<path opacity="0.1" d="M373.773 313.739C385.042 313.739 394.177 312.128 394.177 310.139C394.177 308.151 385.042 306.539 373.773 306.539C362.504 306.539 353.369 308.151 353.369 310.139C353.369 312.128 362.504 313.739 373.773 313.739Z" fill="#6C63FF"/>
<path opacity="0.1" d="M370.413 352.12C389.523 352.12 405.014 349.387 405.014 346.015C405.014 342.643 389.523 339.91 370.413 339.91C351.303 339.91 335.812 342.643 335.812 346.015C335.812 349.387 351.303 352.12 370.413 352.12Z" fill="#6C63FF"/>
<path opacity="0.1" d="M37.4599 356C51.9072 356 63.619 353.934 63.619 351.385C63.619 348.837 51.9072 346.771 37.4599 346.771C23.0126 346.771 11.3008 348.837 11.3008 351.385C11.3008 353.934 23.0126 356 37.4599 356Z" fill="#6C63FF"/>
<path d="M76.5303 256.132C76.5303 256.132 77.5542 257.67 76.0594 259.999C74.5646 262.327 73.3314 264.295 73.8172 265.73C73.8172 265.73 76.0594 261.434 77.9279 261.356C79.7964 261.279 78.552 258.727 76.5303 256.132Z" fill="#6C63FF"/>
<path opacity="0.1" d="M76.5303 256.132C76.6216 256.279 76.6922 256.441 76.7396 256.613C78.5333 259.036 79.4863 261.292 77.7635 261.339C76.1603 261.391 74.2358 264.691 73.7761 265.524C73.7902 265.588 73.8076 265.651 73.8284 265.713C73.8284 265.713 76.0707 261.417 77.9392 261.339C79.8077 261.262 78.552 258.727 76.5303 256.132Z" fill="black"/>
<path d="M78.4362 258.091C78.4362 258.633 78.3801 259.071 78.3166 259.071C78.2531 259.071 78.197 258.641 78.197 258.091C78.197 257.541 78.2643 257.808 78.3278 257.808C78.3914 257.808 78.4362 257.55 78.4362 258.091Z" fill="#FFD037"/>
<path d="M79.0865 258.74C78.6754 258.998 78.3129 259.169 78.283 259.088C78.2531 259.006 78.5596 258.761 78.9744 258.499C79.3892 258.237 79.2248 258.431 79.2547 258.499C79.2846 258.568 79.5013 258.478 79.0865 258.74Z" fill="#FFD037"/>
<path d="M71.1266 256.132C71.1266 256.132 70.1026 257.67 71.5974 259.999C73.0922 262.327 74.3292 264.295 73.8396 265.73C73.8396 265.73 71.5974 261.434 69.7476 261.356C67.8978 261.279 69.0936 258.727 71.1266 256.132Z" fill="#6C63FF"/>
<path opacity="0.1" d="M71.1266 256.132C71.0373 256.28 70.9668 256.442 70.9173 256.613C69.1236 259.036 68.1706 261.292 69.8934 261.339C71.4966 261.391 73.4211 264.691 73.8845 265.524C73.8692 265.588 73.8505 265.651 73.8285 265.713C73.8285 265.713 71.5863 261.417 69.7364 261.339C67.8866 261.262 69.0937 258.727 71.1266 256.132Z" fill="black"/>
<path d="M69.2245 258.091C69.2245 258.633 69.2768 259.071 69.3403 259.071C69.4039 259.071 69.4599 258.641 69.4599 258.091C69.4599 257.541 69.3927 257.808 69.3291 257.808C69.2656 257.808 69.2245 257.55 69.2245 258.091Z" fill="#FFD037"/>
<path d="M68.5705 258.74C68.9854 258.998 69.3441 259.169 69.3777 259.088C69.4114 259.006 69.0975 258.761 68.6827 258.499C68.2678 258.237 68.4323 258.431 68.4024 258.499C68.3725 258.568 68.1557 258.478 68.5705 258.74Z" fill="#FFD037"/>
<path opacity="0.1" d="M73.8285 277.494C79.7374 277.494 84.5276 276.65 84.5276 275.608C84.5276 274.566 79.7374 273.722 73.8285 273.722C67.9195 273.722 63.1294 274.566 63.1294 275.608C63.1294 276.65 67.9195 277.494 73.8285 277.494Z" fill="#6C63FF"/>
<path d="M79.3369 263.651L79.2845 264.132L79.2135 264.811L79.1836 265.095L79.1126 265.773L79.079 266.057L79.008 266.736L78.1896 274.47C78.1186 275.157 77.1395 275.694 75.9474 275.694H71.7096C70.5287 275.694 69.5496 275.157 69.4674 274.47L68.649 266.736L68.578 266.057L68.5481 265.773L68.4733 265.095L68.4434 264.811L68.3724 264.132L68.3201 263.651C68.279 263.26 68.8097 262.933 69.4786 262.933H78.1821C78.8473 262.933 79.378 263.26 79.3369 263.651Z" fill="#65617D"/>
<path d="M79.2845 264.132L79.2135 264.811H68.4434L68.3724 264.132H79.2845Z" fill="#9D9CB5"/>
<path d="M79.1837 265.094L79.1127 265.773H68.5481L68.4734 265.094H79.1837Z" fill="#9D9CB5"/>
<path d="M79.0826 266.057L79.0079 266.736H68.6489L68.5779 266.057H79.0826Z" fill="#006494"/>
<path d="M384.374 250.181C384.374 250.181 383.096 257.021 388.78 257.829L389.132 257.068C389.132 257.068 384.726 252.304 384.374 250.181Z" fill="#6C63FF"/>
<path d="M390.941 257.013L389.618 257.335L389.487 257.369C389.487 257.369 385.959 254.078 386.004 246.731C386.476 247.814 387.04 248.841 387.689 249.795C389.087 251.921 390.675 254.757 390.941 257.013Z" fill="#6C63FF"/>
<path d="M391.385 257.718C391.281 257.795 391.163 257.845 391.041 257.864C390.918 257.882 390.793 257.869 390.675 257.825C387.282 256.914 388.433 244.201 388.433 244.201C388.62 244.3 388.806 245.919 389.606 248.007C390.97 251.672 392.476 256.798 391.385 257.718Z" fill="#6C63FF"/>
<path d="M398.911 250.181C398.911 250.181 399.132 257.021 393.448 257.829L393.093 257.056C393.093 257.056 398.56 252.304 398.911 250.181Z" fill="#6C63FF"/>
<path d="M397.282 246.744C397.327 254.091 392.746 257.382 392.746 257.382L392.611 257.348L391.292 257.026C391.553 254.77 393.16 251.934 394.539 249.808C395.331 248.651 396.253 247.62 397.282 246.744Z" fill="#6C63FF"/>
<path d="M392.592 257.056C392.391 257.341 392.135 257.569 391.845 257.722C391.755 257.768 391.661 257.804 391.565 257.829C390.731 258.052 390.443 257.361 390.488 256.183C390.567 254.091 391.71 250.461 392.73 247.741C393.222 246.407 393.947 245.203 394.861 244.205C394.861 244.205 394.808 254.1 392.592 257.056Z" fill="#6C63FF"/>
<path d="M391.643 239.741C391.643 239.741 387.854 255.208 391.116 257.52C394.378 259.831 392.48 241.107 391.643 239.741Z" fill="#6C63FF"/>
<path opacity="0.1" d="M384.374 250.181C384.374 250.181 383.096 257.021 388.78 257.829L389.132 257.068C389.132 257.068 384.726 252.304 384.374 250.181Z" fill="black"/>
<path opacity="0.1" d="M390.941 257.013L389.618 257.335L389.487 257.369C389.487 257.369 385.959 254.078 386.004 246.731C386.476 247.814 387.04 248.841 387.689 249.795C389.087 251.921 390.675 254.757 390.941 257.013Z" fill="black"/>
<path opacity="0.1" d="M391.385 257.718C391.281 257.795 391.163 257.845 391.041 257.864C390.918 257.882 390.793 257.869 390.675 257.825C387.282 256.914 388.433 244.201 388.433 244.201C388.62 244.3 388.806 245.919 389.606 248.007C390.97 251.672 392.476 256.798 391.385 257.718Z" fill="black"/>
<path opacity="0.1" d="M398.911 250.181C398.911 250.181 399.132 257.021 393.448 257.829L393.093 257.056C393.093 257.056 398.56 252.304 398.911 250.181Z" fill="black"/>
<path opacity="0.1" d="M397.282 246.744C397.327 254.091 392.746 257.382 392.746 257.382L392.611 257.348L391.292 257.026C391.553 254.77 393.16 251.934 394.539 249.808C395.331 248.651 396.253 247.62 397.282 246.744Z" fill="black"/>
<path opacity="0.1" d="M392.592 257.056C392.391 257.341 392.135 257.569 391.845 257.722C391.755 257.768 391.661 257.804 391.565 257.829C390.731 258.052 390.443 257.361 390.488 256.183C390.567 254.091 391.71 250.461 392.73 247.741C393.222 246.407 393.947 245.203 394.861 244.205C394.861 244.205 394.808 254.1 392.592 257.056Z" fill="black"/>
<path opacity="0.1" d="M391.643 239.741C391.643 239.741 387.854 255.208 391.116 257.52C394.378 259.831 392.48 241.107 391.643 239.741Z" fill="black"/>
<path d="M384.374 250.181C384.374 250.181 383.627 257.021 389.307 257.829L389.659 257.068C389.659 257.068 384.726 252.304 384.374 250.181Z" fill="#6C63FF"/>
<path d="M391.467 257.013L390.145 257.335L390.014 257.369C390.014 257.369 385.959 254.078 385.993 246.744C385.993 246.744 387.032 248.033 388.205 249.808C389.614 251.921 391.202 254.757 391.467 257.013Z" fill="#6C63FF"/>
<path opacity="0.1" d="M391.468 257.013L390.145 257.335C388.893 256.072 388.396 252.772 388.216 249.795C389.614 251.921 391.202 254.757 391.468 257.013Z" fill="black"/>
<path d="M391.916 257.718C391.811 257.795 391.693 257.845 391.57 257.864C391.446 257.883 391.321 257.869 391.202 257.825C387.809 256.914 388.429 244.201 388.429 244.201C388.616 244.3 389.349 245.919 390.13 248.007C391.501 251.672 393.003 256.798 391.916 257.718Z" fill="#6C63FF"/>
<path d="M398.912 250.181C398.912 250.181 399.659 257.021 393.979 257.829L393.627 257.068C393.627 257.068 398.56 252.304 398.912 250.181Z" fill="#6C63FF"/>
<path d="M397.282 246.744C397.327 254.091 393.273 257.382 393.273 257.382L393.142 257.348L391.819 257.026C392.08 254.77 393.687 251.934 395.07 249.808C396.244 248.033 397.282 246.744 397.282 246.744Z" fill="#6C63FF"/>
<path opacity="0.1" d="M395.07 249.795C394.898 252.57 394.457 255.625 393.385 257.052C393.311 257.154 393.23 257.249 393.142 257.335L391.819 257.013C392.08 254.757 393.672 251.921 395.07 249.795Z" fill="black"/>
<path d="M393.119 257.056C392.919 257.342 392.663 257.571 392.372 257.722C392.283 257.768 392.19 257.804 392.095 257.829C391.258 258.052 390.974 257.361 391.015 256.183C391.098 254.091 392.241 250.461 393.258 247.741C394.005 245.786 394.681 244.304 394.861 244.205C394.861 244.201 395.335 254.1 393.119 257.056Z" fill="#6C63FF"/>
<path opacity="0.1" d="M391.916 257.717C391.722 257.72 391.534 257.651 391.378 257.52C389.782 256.377 389.748 252.089 390.129 248.007C391.501 251.672 393.003 256.798 391.916 257.717Z" fill="black"/>
<path opacity="0.1" d="M393.119 257.056C392.936 257.515 392.689 257.756 392.372 257.722C392.209 257.699 392.054 257.631 391.92 257.524C391.504 257.197 391.188 256.728 391.015 256.184C391.097 254.091 392.241 250.461 393.258 247.741C393.624 251.509 393.747 255.505 393.119 257.056Z" fill="black"/>
<path d="M391.643 239.741C391.643 239.741 388.384 255.208 391.643 257.52C394.902 259.831 392.48 241.107 391.643 239.741Z" fill="#006494"/>
<path d="M397.899 256.764H384.33V259.346H386.4L386.452 259.651L387.282 264.665H395.171L396 259.651L396.049 259.346H397.899V256.764Z" fill="#4B4770"/>
<path opacity="0.1" d="M397.899 256.764H384.33V259.346H386.4L386.452 259.651L387.282 264.665H395.171L396 259.651L396.049 259.346H397.899V256.764Z" fill="black"/>
<path d="M396.755 258.28L396.527 259.651L395.698 264.665H387.809L386.979 259.651L386.751 258.28H396.755Z" fill="#4B4770"/>
<path opacity="0.1" d="M396.755 258.28L396.527 259.651H386.979L386.751 258.28H396.755Z" fill="black"/>
<path d="M398.426 256.764H384.857V259.346H398.426V256.764Z" fill="#4B4770"/>
<path d="M52.0902 300.949C51.7325 301.516 51.4457 302.138 51.2382 302.796C51.1859 302.955 51.1336 303.14 51.0812 303.316C50.9864 303.265 50.8876 303.225 50.786 303.196C50.3504 303.07 49.8997 303.026 49.4519 303.067C49.4519 302.865 49.4743 302.637 49.4781 302.436C49.5341 300.171 49.3024 297.018 47.4227 298.354C45.6215 299.643 46.907 301.791 48.0692 303.166C48.1701 303.286 48.271 303.398 48.3682 303.505C47.3069 304.365 47.1051 306.397 46.9294 308.507C46.7538 310.616 45.1954 312.923 44.1603 314.234C44.0557 314.367 43.9622 314.487 43.8688 314.599C43.4504 314.215 42.966 313.937 42.4475 313.784C41.929 313.631 41.3881 313.605 40.8605 313.71C40.8194 313.525 40.7708 313.331 40.7222 313.13C39.8851 309.654 38.1474 303.634 35.9314 302.315L36.2229 301.886C37.1646 300.472 38.2259 298.367 36.6601 297.83C35.0943 297.293 34.9523 299.651 35.0382 301.422C35.0532 301.645 35.0681 301.856 35.0831 302.053C34.7701 302.07 34.4633 302.16 34.1818 302.318C33.9002 302.476 33.6499 302.699 33.4463 302.973L33.2034 302.642C31.9328 300.923 29.6046 298.186 28.8983 300.253C28.2406 302.178 30.2922 304.678 31.7347 306.126L31.8244 306.216C30.8565 310.732 35.0831 314.414 37.3589 316.025L37.6541 316.232C34.515 320.485 32.5755 328.459 32.5755 328.459L41.365 330.264C41.365 330.264 47.1947 324.481 46.4473 319.05H46.5071C52.3331 317.71 53.656 310.569 52.7479 306.328L52.8526 306.281C53.914 305.782 54.844 304.973 55.5507 303.935C57.18 301.336 53.7719 298.397 52.0902 300.949Z" fill="#6C63FF"/>
<path opacity="0.1" d="M52.0902 300.949C51.7325 301.516 51.4457 302.138 51.2382 302.796C51.1859 302.955 51.1336 303.14 51.0812 303.316C50.9864 303.265 50.8876 303.225 50.786 303.196C50.3504 303.07 49.8997 303.026 49.4519 303.067C49.4519 302.865 49.4743 302.637 49.4781 302.436C49.5341 300.171 49.3024 297.018 47.4227 298.354C45.6215 299.643 46.907 301.791 48.0692 303.166C48.1701 303.286 48.271 303.398 48.3682 303.505C47.3069 304.365 47.1051 306.397 46.9294 308.507C46.7538 310.616 45.1954 312.923 44.1603 314.234C44.0557 314.367 43.9622 314.487 43.8688 314.599C43.4504 314.215 42.966 313.937 42.4475 313.784C41.929 313.631 41.3881 313.605 40.8605 313.71C40.8194 313.525 40.7708 313.331 40.7222 313.13C39.8851 309.654 38.1474 303.634 35.9314 302.315L36.2229 301.886C37.1646 300.472 38.2259 298.367 36.6601 297.83C35.0943 297.293 34.9523 299.651 35.0382 301.422C35.0532 301.645 35.0681 301.856 35.0831 302.053C34.7701 302.07 34.4633 302.16 34.1818 302.318C33.9002 302.476 33.6499 302.699 33.4463 302.973L33.2034 302.642C31.9328 300.923 29.6046 298.186 28.8983 300.253C28.2406 302.178 30.2922 304.678 31.7347 306.126L31.8244 306.216C30.8565 310.732 35.0831 314.414 37.3589 316.025L37.6541 316.232C34.515 320.485 32.5755 328.459 32.5755 328.459L41.365 330.264C41.365 330.264 47.1947 324.481 46.4473 319.05H46.5071C52.3331 317.71 53.656 310.569 52.7479 306.328L52.8526 306.281C53.914 305.782 54.844 304.973 55.5507 303.935C57.18 301.336 53.7719 298.397 52.0902 300.949Z" fill="black"/>
<path d="M34.5936 303.888L33.5659 307.325C33.5659 307.325 32.9942 306.861 32.2729 306.13C30.8304 304.682 28.7788 302.182 29.4365 300.257C30.1428 298.19 32.471 300.919 33.7416 302.646C34.2535 303.333 34.5936 303.888 34.5936 303.888Z" fill="#6C63FF"/>
<path d="M36.7611 301.89C36.4489 302.363 36.1146 302.816 35.7596 303.248C35.6718 302.644 35.6107 302.036 35.5765 301.426C35.4905 299.656 35.6549 297.306 37.1983 297.834C38.7417 298.362 37.7028 300.476 36.7611 301.89Z" fill="#6C63FF"/>
<path d="M50.0348 302.436C50.0049 303.574 49.9078 304.485 49.9078 304.485C49.4557 304.078 49.0275 303.638 48.626 303.166C47.4637 301.778 46.1782 299.638 47.9795 298.354C49.8405 297.013 50.0722 300.171 50.0348 302.436Z" fill="#6C63FF"/>
<path d="M56.0889 303.926C55.3822 304.965 54.4522 305.773 53.3908 306.272C53.0961 306.419 52.7941 306.545 52.4864 306.65L51.2756 304.695C51.4028 304.049 51.5701 303.415 51.7764 302.796C51.9839 302.138 52.2707 301.516 52.6284 300.949C54.3026 298.397 57.7182 301.336 56.0889 303.926Z" fill="#6C63FF"/>
<path opacity="0.1" d="M33.7416 302.646C34.2536 303.333 34.5936 303.866 34.5936 303.866L33.566 307.303C33.566 307.303 32.9942 306.839 32.2729 306.109C32.4332 305.001 32.8314 303.957 33.4314 303.071C33.5323 302.93 33.6407 302.783 33.7416 302.646Z" fill="black"/>
<path opacity="0.1" d="M36.761 301.89C36.4489 302.363 36.1145 302.816 35.7595 303.247C35.6718 302.644 35.6107 302.036 35.5764 301.426C36.0035 301.436 36.4174 301.598 36.761 301.89Z" fill="black"/>
<path d="M41.8134 315.621L39.2573 316.91C39.2573 316.91 38.7005 316.601 37.8971 316.025C35.2101 314.126 29.8101 309.344 33.4126 303.707C37.0151 298.07 40.0533 308.18 41.2604 313.125C41.6229 314.629 41.8134 315.621 41.8134 315.621Z" fill="#6C63FF"/>
<path opacity="0.1" d="M48.6073 303.166C48.9791 302.725 49.4829 302.464 50.0162 302.435C49.9863 303.574 49.8891 304.485 49.8891 304.485C49.4371 304.078 49.0089 303.637 48.6073 303.166Z" fill="black"/>
<path opacity="0.1" d="M53.3983 306.272C53.1037 306.419 52.8017 306.545 52.494 306.65L51.2832 304.695C51.4103 304.049 51.5777 303.415 51.784 302.796C52.5575 303.321 53.133 304.627 53.3983 306.272Z" fill="black"/>
<path d="M47.0453 319.041C46.9071 319.076 46.7613 319.106 46.6156 319.132C38.0466 320.627 43.7904 315.312 43.7904 315.312C43.7904 315.312 44.1641 314.882 44.6985 314.234C45.7336 312.923 47.2882 310.629 47.4676 308.506C47.7367 305.314 48.0469 302.319 51.3242 303.196C54.5418 304.064 55.1584 317.173 47.0453 319.041Z" fill="#6C63FF"/>
<path d="M46.8846 343.57H30.5127V348.52H46.8846V343.57Z" fill="#D4DFEC"/>
<path d="M49.3026 327.484H27.9119V344.756H49.3026V327.484Z" fill="#D4DFEC"/>
<path opacity="0.1" d="M46.8846 343.57H30.5127V348.52H46.8846V343.57Z" fill="black"/>
<path opacity="0.1" d="M49.3026 327.484H27.9119V344.756H49.3026V327.484Z" fill="black"/>
<path d="M47.9609 343.57H31.589V348.52H47.9609V343.57Z" fill="#D4DFEC"/>
<path opacity="0.1" d="M41.2603 313.129C41.634 314.607 41.8134 315.621 41.8134 315.621L39.2572 316.91C39.2572 316.91 38.7004 316.601 37.897 316.025C38.8985 314.569 40.0271 313.469 41.2603 313.129Z" fill="black"/>
<path opacity="0.1" d="M47.0453 319.041C46.9071 319.076 46.7613 319.106 46.6156 319.132C38.0466 320.627 43.7904 315.312 43.7904 315.312C43.7904 315.312 44.1641 314.882 44.6985 314.234C46.2979 315.707 46.9594 317.366 47.0453 319.041Z" fill="black"/>
<path d="M33.1138 328.464C33.1138 328.464 37.9121 308.7 44.6425 314.797C51.3728 320.893 41.9032 330.264 41.9032 330.264L33.1138 328.464Z" fill="#6C63FF"/>
<path opacity="0.1" d="M35.5353 307.424C35.8325 307.424 36.0735 307.147 36.0735 306.805C36.0735 306.463 35.8325 306.186 35.5353 306.186C35.2381 306.186 34.9972 306.463 34.9972 306.805C34.9972 307.147 35.2381 307.424 35.5353 307.424Z" fill="black"/>
<path opacity="0.1" d="M35.4905 310.311C35.7877 310.311 36.0287 310.034 36.0287 309.692C36.0287 309.35 35.7877 309.073 35.4905 309.073C35.1933 309.073 34.9524 309.35 34.9524 309.692C34.9524 310.034 35.1933 310.311 35.4905 310.311Z" fill="black"/>
<path opacity="0.1" d="M51.0999 307.991C51.3971 307.991 51.638 307.714 51.638 307.372C51.638 307.03 51.3971 306.753 51.0999 306.753C50.8027 306.753 50.5618 307.03 50.5618 307.372C50.5618 307.714 50.8027 307.991 51.0999 307.991Z" fill="black"/>
<path opacity="0.1" d="M38.5435 322.792C38.8407 322.792 39.0816 322.515 39.0816 322.174C39.0816 321.832 38.8407 321.555 38.5435 321.555C38.2463 321.555 38.0054 321.832 38.0054 322.174C38.0054 322.515 38.2463 322.792 38.5435 322.792Z" fill="black"/>
<path opacity="0.1" d="M49.9788 312.786C50.276 312.786 50.5169 312.509 50.5169 312.167C50.5169 311.825 50.276 311.548 49.9788 311.548C49.6816 311.548 49.4407 311.825 49.4407 312.167C49.4407 312.509 49.6816 312.786 49.9788 312.786Z" fill="black"/>
<path opacity="0.1" d="M44.4183 319.183C44.7155 319.183 44.9564 318.906 44.9564 318.564C44.9564 318.223 44.7155 317.946 44.4183 317.946C44.1211 317.946 43.8801 318.223 43.8801 318.564C43.8801 318.906 44.1211 319.183 44.4183 319.183Z" fill="black"/>
<path opacity="0.1" d="M37.3738 308.661C37.671 308.661 37.9119 308.384 37.9119 308.043C37.9119 307.701 37.671 307.424 37.3738 307.424C37.0766 307.424 36.8357 307.701 36.8357 308.043C36.8357 308.384 37.0766 308.661 37.3738 308.661Z" fill="black"/>
<path opacity="0.1" d="M49.6202 309.847C49.9174 309.847 50.1583 309.57 50.1583 309.228C50.1583 308.887 49.9174 308.61 49.6202 308.61C49.323 308.61 49.082 308.887 49.082 309.228C49.082 309.57 49.323 309.847 49.6202 309.847Z" fill="black"/>
<path opacity="0.1" d="M47.7815 314.642C48.0787 314.642 48.3197 314.365 48.3197 314.023C48.3197 313.682 48.0787 313.405 47.7815 313.405C47.4843 313.405 47.2434 313.682 47.2434 314.023C47.2434 314.365 47.4843 314.642 47.7815 314.642Z" fill="black"/>
<path opacity="0.1" d="M42.1311 322.328C42.4283 322.328 42.6693 322.051 42.6693 321.71C42.6693 321.368 42.4283 321.091 42.1311 321.091C41.8339 321.091 41.593 321.368 41.593 321.71C41.593 322.051 41.8339 322.328 42.1311 322.328Z" fill="black"/>
<path opacity="0.1" d="M40.9651 319.286C41.2623 319.286 41.5033 319.009 41.5033 318.668C41.5033 318.326 41.2623 318.049 40.9651 318.049C40.6679 318.049 40.427 318.326 40.427 318.668C40.427 319.009 40.6679 319.286 40.9651 319.286Z" fill="black"/>
<path opacity="0.1" d="M38.1811 312.425C38.4783 312.425 38.7192 312.148 38.7192 311.806C38.7192 311.464 38.4783 311.188 38.1811 311.188C37.8839 311.188 37.6429 311.464 37.6429 311.806C37.6429 312.148 37.8839 312.425 38.1811 312.425Z" fill="black"/>
<path opacity="0.1" d="M47.9609 343.57H31.589V345.379H47.9609V343.57Z" fill="black"/>
<path d="M50.3786 327.484H28.9879V344.756H50.3786V327.484Z" fill="#D4DFEC"/>
<path opacity="0.1" d="M42.8487 325.112C43.1459 325.112 43.3868 324.835 43.3868 324.494C43.3868 324.152 43.1459 323.875 42.8487 323.875C42.5515 323.875 42.3105 324.152 42.3105 324.494C42.3105 324.835 42.5515 325.112 42.8487 325.112Z" fill="black"/>
<path opacity="0.1" d="M39.6198 325.886C39.917 325.886 40.1579 325.609 40.1579 325.267C40.1579 324.925 39.917 324.648 39.6198 324.648C39.3226 324.648 39.0817 324.925 39.0817 325.267C39.0817 325.609 39.3226 325.886 39.6198 325.886Z" fill="black"/>
<path opacity="0.1" d="M18.685 26.8359C20.8439 26.8359 22.594 24.8238 22.594 22.3418C22.594 19.8598 20.8439 17.8477 18.685 17.8477C16.5262 17.8477 14.7761 19.8598 14.7761 22.3418C14.7761 24.8238 16.5262 26.8359 18.685 26.8359Z" fill="#6C63FF"/>
<path opacity="0.1" d="M394.095 169.751C396.984 169.751 399.326 167.058 399.326 163.736C399.326 160.414 396.984 157.72 394.095 157.72C391.205 157.72 388.863 160.414 388.863 163.736C388.863 167.058 391.205 169.751 394.095 169.751Z" fill="#6C63FF"/>
<path opacity="0.1" d="M404.181 155.237C406.29 155.237 408 153.271 408 150.846C408 148.421 406.29 146.455 404.181 146.455C402.071 146.455 400.361 148.421 400.361 150.846C400.361 153.271 402.071 155.237 404.181 155.237Z" fill="#6C63FF"/>
<path opacity="0.1" d="M25.4116 12.0302C28.3011 12.0302 30.6435 9.33716 30.6435 6.01511C30.6435 2.69306 28.3011 0 25.4116 0C22.5222 0 20.1798 2.69306 20.1798 6.01511C20.1798 9.33716 22.5222 12.0302 25.4116 12.0302Z" fill="#6C63FF"/>
<path opacity="0.1" d="M5.23182 39.5278C8.12128 39.5278 10.4636 36.8347 10.4636 33.5127C10.4636 30.1906 8.12128 27.4976 5.23182 27.4976C2.34237 27.4976 0 30.1906 0 33.5127C0 36.8347 2.34237 39.5278 5.23182 39.5278Z" fill="#6C63FF"/>
<defs>
<linearGradient id="paint0_linear" x1="196.989" y1="333.345" x2="196.989" y2="81.784" gradientUnits="userSpaceOnUse">
<stop stop-color="#808080" stop-opacity="0.25"/>
<stop offset="0.54" stop-color="#808080" stop-opacity="0.12"/>
<stop offset="1" stop-color="#808080" stop-opacity="0.1"/>
</linearGradient>
</defs>
</svg>
