<svg width="416" height="364" viewBox="0 0 416 364" fill="none" xmlns="http://www.w3.org/2000/svg">
<g clip-path="url(#clip0)" filter="url(#filter0_d)">
<path opacity="0.1" d="M73.64 52.3486C71.4567 55.3644 70.6161 59.6048 69.6759 63.5912C62.1062 95.7182 43.453 121.559 22.2102 140.018C13.2143 147.836 2.2622 158.321 4.23031 172.34C5.29006 179.868 9.93942 185.41 13.3936 191.541C20.6405 204.38 22.9911 221.832 19.5369 237.201C15.6087 254.689 4.62871 271.006 8.02708 288.689C10.1227 299.573 17.2382 307.319 24.0787 313.977C34.7506 324.356 45.7624 334.08 57.1143 343.147C64.7237 349.224 72.8193 355.138 81.6877 355.909C89.4964 356.589 97.1457 353.21 104.56 349.877C111.038 346.961 117.679 343.927 122.91 338.086C126.325 334.271 129.046 329.351 132.839 326.231C141.747 318.902 153.189 323.546 163.404 326.684C187.507 334.049 213.304 331.36 236.24 319.092C271.423 300.271 298.239 260.748 332.653 239.541C347.45 230.421 363.546 224.761 377.247 213.015C384.966 206.327 391.599 198.156 396.848 188.87C407.206 170.68 412.808 147.487 411.19 124.784C409.573 102.081 400.509 80.2034 386.274 67.3871C371.035 53.6683 351.789 51.1059 334.45 42.8701C316.554 34.3531 300.626 19.7227 282.901 10.6025C268.549 3.23451 252.93 -0.381705 237.19 0.0193147C221.451 0.420334 205.989 4.82841 191.942 12.92C172.639 24.0311 153.081 49.954 131.584 51.9223C116.269 53.2828 85.6 35.8316 73.64 52.3486Z" fill="#6C63FF"/>
<path d="M349.865 157.406C349.865 157.406 344.065 134.98 350.953 118.476C353.883 111.574 354.766 103.776 353.471 96.2541C352.831 92.6883 351.905 89.1967 350.706 85.8232" stroke="#535461" stroke-width="2" stroke-miterlimit="10"/>
<path d="M355.013 75.3969C355.013 78.1452 350.63 86.1134 350.63 86.1134C350.63 86.1134 346.248 78.1452 346.248 75.3969C346.203 74.7126 346.283 74.0253 346.483 73.3778C346.682 72.7303 346.997 72.1366 347.407 71.6339C347.817 71.1311 348.314 70.7301 348.867 70.4558C349.419 70.1816 350.015 70.04 350.618 70.04C351.221 70.04 351.817 70.1816 352.37 70.4558C352.922 70.7301 353.419 71.1311 353.829 71.6339C354.24 72.1366 354.554 72.7303 354.754 73.3778C354.953 74.0253 355.033 74.7126 354.989 75.3969H355.013Z" fill="#6C63FF"/>
<path d="M362.22 90.6168C360.909 92.9252 353.419 96.9116 353.419 96.9116C353.419 96.9116 353.554 87.5193 354.865 85.2109C355.532 84.2019 356.51 83.5182 357.602 83.2977C358.694 83.0771 359.819 83.3361 360.75 84.0225C361.681 84.7088 362.348 85.7714 362.618 86.996C362.888 88.2206 362.74 89.5161 362.204 90.6213L362.22 90.6168Z" fill="#6C63FF"/>
<path d="M361.905 116.635C359.749 117.873 351.546 117.016 351.546 117.016C351.546 117.016 355.829 108.984 357.985 107.746C359.007 107.263 360.151 107.238 361.189 107.676C362.226 108.114 363.08 108.982 363.578 110.107C364.076 111.232 364.182 112.529 363.875 113.739C363.568 114.949 362.869 115.982 361.921 116.63L361.905 116.635Z" fill="#6C63FF"/>
<path d="M357.773 136.277C355.833 137.909 347.602 138.648 347.602 138.648C347.602 138.648 350.63 129.909 352.574 128.272C353.51 127.625 354.624 127.4 355.698 127.641C356.773 127.882 357.728 128.572 358.378 129.576C359.027 130.579 359.323 131.823 359.208 133.062C359.092 134.301 358.574 135.446 357.753 136.272L357.773 136.277Z" fill="#6C63FF"/>
<path d="M344.256 97.4423C345.989 99.3561 354.056 101.343 354.056 101.343C354.056 101.343 352.064 92.2223 350.347 90.304C349.946 89.7927 349.458 89.3809 348.911 89.0941C348.364 88.8074 347.772 88.6519 347.17 88.6374C346.568 88.6228 345.97 88.7495 345.413 89.0096C344.857 89.2696 344.353 89.6575 343.933 90.1489C343.514 90.6403 343.188 91.2248 342.976 91.866C342.764 92.5071 342.67 93.1911 342.7 93.8754C342.73 94.5597 342.884 95.2295 343.152 95.8432C343.419 96.4569 343.795 97.0012 344.256 97.4423Z" fill="#6C63FF"/>
<path d="M339.678 120.463C341.833 121.701 350.036 120.844 350.036 120.844C350.036 120.844 345.754 112.812 343.598 111.574C342.576 111.091 341.432 111.066 340.394 111.504C339.357 111.942 338.503 112.81 338.005 113.935C337.507 115.059 337.401 116.357 337.708 117.567C338.015 118.777 338.713 119.81 339.662 120.458L339.678 120.463Z" fill="#6C63FF"/>
<path d="M337.925 143.533C339.865 145.166 348.096 145.905 348.096 145.905C348.096 145.905 345.068 137.166 343.124 135.528C342.669 135.069 342.134 134.724 341.554 134.513C340.975 134.302 340.363 134.231 339.758 134.304C339.153 134.377 338.568 134.593 338.041 134.938C337.513 135.282 337.054 135.748 336.693 136.305C336.332 136.863 336.077 137.5 335.944 138.176C335.811 138.852 335.804 139.551 335.921 140.231C336.039 140.91 336.28 141.554 336.628 142.122C336.977 142.69 337.425 143.169 337.945 143.528L337.925 143.533Z" fill="#6C63FF"/>
<path opacity="0.1" d="M355.013 75.3969C355.013 78.1452 350.63 86.1134 350.63 86.1134C350.63 86.1134 346.248 78.1452 346.248 75.3969C346.203 74.7126 346.283 74.0253 346.483 73.3778C346.682 72.7303 346.997 72.1366 347.407 71.6339C347.817 71.1311 348.314 70.7301 348.867 70.4558C349.419 70.1816 350.015 70.04 350.618 70.04C351.221 70.04 351.817 70.1816 352.37 70.4558C352.922 70.7301 353.419 71.1311 353.829 71.6339C354.24 72.1366 354.554 72.7303 354.754 73.3778C354.953 74.0253 355.033 74.7126 354.989 75.3969H355.013Z" fill="#6C63FF"/>
<path opacity="0.1" d="M362.22 90.6168C360.909 92.9252 353.419 96.9116 353.419 96.9116C353.419 96.9116 353.554 87.5193 354.865 85.2109C355.532 84.2019 356.51 83.5182 357.602 83.2977C358.694 83.0771 359.819 83.3361 360.75 84.0225C361.681 84.7088 362.348 85.7714 362.618 86.996C362.888 88.2206 362.74 89.5161 362.204 90.6213L362.22 90.6168Z" fill="#6C63FF"/>
<path opacity="0.1" d="M361.905 116.635C359.749 117.873 351.546 117.016 351.546 117.016C351.546 117.016 355.829 108.984 357.985 107.746C359.007 107.263 360.151 107.238 361.189 107.676C362.226 108.114 363.08 108.982 363.578 110.107C364.076 111.232 364.182 112.529 363.875 113.739C363.568 114.949 362.869 115.982 361.921 116.63L361.905 116.635Z" fill="#6C63FF"/>
<path opacity="0.1" d="M357.773 136.277C355.833 137.909 347.602 138.648 347.602 138.648C347.602 138.648 350.63 129.909 352.574 128.272C353.51 127.625 354.624 127.4 355.698 127.641C356.773 127.882 357.728 128.572 358.378 129.576C359.027 130.579 359.323 131.823 359.208 133.062C359.092 134.301 358.574 135.446 357.753 136.272L357.773 136.277Z" fill="#6C63FF"/>
<path opacity="0.1" d="M344.256 97.4423C345.989 99.3561 354.056 101.343 354.056 101.343C354.056 101.343 352.064 92.2223 350.347 90.304C349.946 89.7927 349.458 89.3809 348.911 89.0941C348.364 88.8074 347.772 88.6519 347.17 88.6374C346.568 88.6228 345.97 88.7495 345.413 89.0096C344.857 89.2696 344.353 89.6575 343.933 90.1489C343.514 90.6403 343.188 91.2248 342.976 91.866C342.764 92.5071 342.67 93.1911 342.7 93.8754C342.73 94.5597 342.884 95.2295 343.152 95.8432C343.419 96.4569 343.795 97.0012 344.256 97.4423Z" fill="#6C63FF"/>
<path opacity="0.1" d="M339.678 120.463C341.833 121.701 350.036 120.844 350.036 120.844C350.036 120.844 345.754 112.812 343.598 111.574C342.576 111.091 341.432 111.066 340.394 111.504C339.357 111.942 338.503 112.81 338.005 113.935C337.507 115.059 337.401 116.357 337.708 117.567C338.015 118.777 338.713 119.81 339.662 120.458L339.678 120.463Z" fill="#6C63FF"/>
<path opacity="0.1" d="M337.925 143.533C339.865 145.166 348.096 145.905 348.096 145.905C348.096 145.905 345.068 137.166 343.124 135.528C342.669 135.069 342.134 134.724 341.554 134.513C340.975 134.302 340.363 134.231 339.758 134.304C339.153 134.377 338.568 134.593 338.041 134.938C337.513 135.282 337.054 135.748 336.693 136.305C336.332 136.863 336.077 137.5 335.944 138.176C335.811 138.852 335.804 139.551 335.921 140.231C336.039 140.91 336.28 141.554 336.628 142.122C336.977 142.69 337.425 143.169 337.945 143.528L337.925 143.533Z" fill="#6C63FF"/>
<path d="M374.168 193.234C374.168 193.234 368.367 170.807 375.255 154.304C378.185 147.402 379.069 139.604 377.773 132.082C377.133 128.516 376.208 125.024 375.008 121.651" stroke="#535461" stroke-width="2" stroke-miterlimit="10"/>
<path d="M379.315 111.225C379.315 113.973 374.933 121.941 374.933 121.941C374.933 121.941 370.55 113.973 370.55 111.225C370.506 110.54 370.586 109.853 370.785 109.205C370.985 108.558 371.299 107.964 371.71 107.461C372.12 106.959 372.617 106.558 373.169 106.283C373.722 106.009 374.318 105.868 374.921 105.868C375.523 105.868 376.12 106.009 376.672 106.283C377.225 106.558 377.722 106.959 378.132 107.461C378.542 107.964 378.857 108.558 379.056 109.205C379.256 109.853 379.336 110.54 379.291 111.225H379.315Z" fill="#6C63FF"/>
<path d="M386.522 126.444C385.212 128.753 377.738 132.735 377.738 132.735C377.738 132.735 377.873 123.342 379.184 121.034C379.474 120.435 379.87 119.91 380.347 119.492C380.824 119.075 381.371 118.773 381.954 118.607C382.537 118.44 383.144 118.412 383.738 118.524C384.331 118.636 384.898 118.886 385.402 119.259C385.907 119.631 386.339 120.117 386.672 120.688C387.004 121.258 387.23 121.9 387.335 122.574C387.44 123.248 387.422 123.94 387.282 124.606C387.143 125.271 386.884 125.897 386.522 126.444Z" fill="#6C63FF"/>
<path d="M386.207 152.463C384.052 153.701 375.849 152.844 375.849 152.844C375.849 152.844 380.132 144.812 382.287 143.574C382.804 143.221 383.379 142.993 383.977 142.904C384.574 142.815 385.181 142.868 385.76 143.058C386.339 143.249 386.878 143.573 387.341 144.011C387.805 144.45 388.185 144.992 388.456 145.604C388.727 146.217 388.885 146.886 388.919 147.571C388.952 148.256 388.862 148.942 388.652 149.585C388.443 150.228 388.119 150.816 387.701 151.31C387.283 151.804 386.78 152.195 386.223 152.458L386.207 152.463Z" fill="#6C63FF"/>
<path d="M382.076 172.104C380.136 173.737 371.905 174.476 371.905 174.476C371.905 174.476 374.933 165.737 376.877 164.1C377.812 163.453 378.927 163.228 380.001 163.469C381.075 163.71 382.031 164.4 382.681 165.404C383.33 166.407 383.626 167.65 383.511 168.89C383.395 170.129 382.876 171.274 382.056 172.1L382.076 172.104Z" fill="#6C63FF"/>
<path d="M368.558 133.27C370.291 135.184 378.359 137.17 378.359 137.17C378.359 137.17 376.367 128.05 374.65 126.131C373.802 125.319 372.715 124.903 371.608 124.967C370.502 125.03 369.457 125.568 368.685 126.473C367.913 127.378 367.471 128.582 367.447 129.843C367.424 131.104 367.821 132.329 368.558 133.27Z" fill="#6C63FF"/>
<path d="M363.981 156.29C366.136 157.528 374.339 156.671 374.339 156.671C374.339 156.671 370.056 148.639 367.901 147.401C366.879 146.918 365.734 146.893 364.697 147.331C363.659 147.769 362.806 148.638 362.308 149.762C361.809 150.887 361.703 152.184 362.011 153.394C362.318 154.604 363.016 155.637 363.965 156.286L363.981 156.29Z" fill="#6C63FF"/>
<path d="M362.228 179.361C364.168 180.993 372.399 181.732 372.399 181.732C372.399 181.732 369.371 172.993 367.427 171.356C366.971 170.897 366.436 170.551 365.857 170.341C365.277 170.13 364.666 170.059 364.061 170.132C363.456 170.205 362.871 170.421 362.343 170.765C361.815 171.11 361.356 171.576 360.995 172.133C360.634 172.691 360.379 173.328 360.247 174.003C360.114 174.679 360.106 175.379 360.224 176.059C360.342 176.738 360.582 177.382 360.931 177.95C361.279 178.517 361.728 178.996 362.247 179.356L362.228 179.361Z" fill="#6C63FF"/>
<path opacity="0.1" d="M379.315 111.225C379.315 113.973 374.933 121.941 374.933 121.941C374.933 121.941 370.55 113.973 370.55 111.225C370.506 110.54 370.586 109.853 370.785 109.205C370.985 108.558 371.299 107.964 371.71 107.461C372.12 106.959 372.617 106.558 373.169 106.283C373.722 106.009 374.318 105.868 374.921 105.868C375.523 105.868 376.12 106.009 376.672 106.283C377.225 106.558 377.722 106.959 378.132 107.461C378.542 107.964 378.857 108.558 379.056 109.205C379.256 109.853 379.336 110.54 379.291 111.225H379.315Z" fill="#6C63FF"/>
<path opacity="0.1" d="M386.522 126.444C385.212 128.753 377.738 132.735 377.738 132.735C377.738 132.735 377.873 123.342 379.184 121.034C379.474 120.435 379.87 119.91 380.347 119.492C380.824 119.075 381.371 118.773 381.954 118.607C382.537 118.44 383.144 118.412 383.738 118.524C384.331 118.636 384.898 118.886 385.402 119.259C385.907 119.631 386.339 120.117 386.672 120.688C387.004 121.258 387.23 121.9 387.335 122.574C387.44 123.248 387.422 123.94 387.282 124.606C387.143 125.271 386.884 125.897 386.522 126.444Z" fill="#6C63FF"/>
<path opacity="0.1" d="M386.207 152.463C384.052 153.701 375.849 152.844 375.849 152.844C375.849 152.844 380.132 144.812 382.287 143.574C382.804 143.221 383.379 142.993 383.977 142.904C384.574 142.815 385.181 142.868 385.76 143.058C386.339 143.249 386.878 143.573 387.341 144.011C387.805 144.45 388.185 144.992 388.456 145.604C388.727 146.217 388.885 146.886 388.919 147.571C388.952 148.256 388.862 148.942 388.652 149.585C388.443 150.228 388.119 150.816 387.701 151.31C387.283 151.804 386.78 152.195 386.223 152.458L386.207 152.463Z" fill="#6C63FF"/>
<path opacity="0.1" d="M382.076 172.104C380.136 173.737 371.905 174.476 371.905 174.476C371.905 174.476 374.933 165.737 376.877 164.1C377.812 163.453 378.927 163.228 380.001 163.469C381.075 163.71 382.031 164.4 382.681 165.404C383.33 166.407 383.626 167.65 383.511 168.89C383.395 170.129 382.876 171.274 382.056 172.1L382.076 172.104Z" fill="#6C63FF"/>
<path opacity="0.1" d="M368.558 133.27C370.291 135.184 378.359 137.17 378.359 137.17C378.359 137.17 376.367 128.05 374.65 126.131C373.802 125.319 372.715 124.903 371.608 124.967C370.502 125.03 369.457 125.568 368.685 126.473C367.913 127.378 367.471 128.582 367.447 129.843C367.424 131.104 367.821 132.329 368.558 133.27Z" fill="#6C63FF"/>
<path opacity="0.1" d="M363.981 156.29C366.136 157.528 374.339 156.671 374.339 156.671C374.339 156.671 370.056 148.639 367.901 147.401C366.879 146.918 365.734 146.893 364.697 147.331C363.659 147.769 362.806 148.638 362.308 149.762C361.809 150.887 361.703 152.184 362.011 153.394C362.318 154.604 363.016 155.637 363.965 156.286L363.981 156.29Z" fill="#6C63FF"/>
<path opacity="0.1" d="M362.228 179.361C364.168 180.993 372.399 181.732 372.399 181.732C372.399 181.732 369.371 172.993 367.427 171.356C366.971 170.897 366.436 170.551 365.857 170.341C365.277 170.13 364.666 170.059 364.061 170.132C363.456 170.205 362.871 170.421 362.343 170.765C361.815 171.11 361.356 171.576 360.995 172.133C360.634 172.691 360.379 173.328 360.247 174.003C360.114 174.679 360.106 175.379 360.224 176.059C360.342 176.738 360.582 177.382 360.931 177.95C361.279 178.517 361.728 178.996 362.247 179.356L362.228 179.361Z" fill="#6C63FF"/>
<path opacity="0.1" d="M219.115 268.213C327.328 256.2 413.675 230.388 411.976 210.56C410.277 190.731 321.176 184.396 212.963 196.409C104.75 208.422 18.4031 234.234 20.1018 254.063C21.8005 273.891 110.902 280.226 219.115 268.213Z" fill="#6C63FF"/>
<path d="M394.924 213.719C402.291 196.531 400.769 168.553 399.984 159.057C399.813 156.98 399.677 155.787 399.677 155.787C399.677 155.787 393.183 154.621 395.578 145.674C396.749 141.293 392.59 138.871 388.048 137.542C384.801 136.658 381.487 136.125 378.152 135.95L315.248 131.528C306.622 115.946 289.651 118.449 289.651 118.449C289.651 118.449 274.511 116.658 263.778 116.472C262.149 114.838 260.364 113.419 258.456 112.24C257.319 111.463 256.108 110.834 254.846 110.367C253.312 109.864 251.696 109.776 250.127 110.11C248.558 110.445 247.08 111.193 245.81 112.295C245.192 112.802 244.688 113.468 244.34 114.24C244.206 114.592 244.106 114.958 244.041 115.333C243.88 115.974 243.747 116.623 243.643 117.279C243.55 117.595 243.415 117.893 243.245 118.163C242.814 118.857 242.073 119.379 241.978 120.218C241.975 120.266 241.975 120.315 241.978 120.363C241.899 120.523 241.846 120.698 241.822 120.88C241.794 121.253 241.864 121.628 242.026 121.955C242.049 122.009 242.077 122.059 242.105 122.109C241.576 122.982 241.143 123.926 240.818 124.921C240.671 125.012 240.529 125.114 240.392 125.225L240.273 125.324V125.601L240.205 125.66L240.057 130.127L240.141 130.2C240.262 132.284 240.814 134.305 241.753 136.099C242.692 137.893 243.991 139.409 245.543 140.522C245.595 140.807 245.643 141.098 245.691 141.401C245.91 142.866 246.008 144.351 245.986 145.837H245.918C244.045 144.93 240.842 146.263 238.089 147.819H202.424C209.38 137.633 217.89 129.733 217.89 129.733V120.78C211.811 120.435 158.401 149.642 146.692 156.091L146.174 156.377L85.9952 158.499C75.0949 158.422 65.5651 160.245 57.3102 163.216C43.5158 168.148 31.1198 177.163 21.3902 189.338C14.2827 198.218 11.1672 205.556 11.1672 205.556L11.2349 206.172L11.1672 206.331L11.2628 206.426L12.8843 220.993L13.9998 231.016C6.24694 236.721 16.2907 239.007 16.2907 239.007C25.8523 248.34 41.2346 247.955 41.2346 247.955C44.9916 253.791 55.9277 253.011 55.9277 253.011H113.334C114.228 247.012 115.425 241.076 116.919 235.234C119.369 255.32 133.294 270.708 150.098 270.708C151.345 270.707 152.59 270.62 153.827 270.449C155.064 270.62 156.31 270.707 157.556 270.708C174.556 270.708 188.604 254.957 190.815 234.535H193.624C193.099 239.098 192.188 243.592 190.903 247.955C242.5 230.839 338.519 222.671 338.519 222.671C338.917 218.363 339.355 214.2 339.829 210.204C343.785 221.383 352.754 229.188 363.192 229.188C364.14 229.187 365.087 229.12 366.028 228.989C366.969 229.12 367.917 229.187 368.865 229.188C381.259 229.188 391.574 218.181 393.901 203.587C394.209 206.163 394.384 208.757 394.426 211.356C393.984 213.832 393.598 215.415 393.546 215.637C393.857 214.99 394.151 214.328 394.43 213.651C394.43 213.914 394.43 214.186 394.43 214.458C394.335 214.912 394.267 215.166 394.247 215.252L394.422 214.88C394.422 215.079 394.422 215.274 394.422 215.474C394.383 215.492 394.594 214.839 394.924 213.719Z" fill="url(#paint0_linear)"/>
<path d="M388.905 151.959H270.619V206.277H388.905V151.959Z" fill="#6F7D95"/>
<path d="M240.544 126.522L257.344 169.365L290.615 167.07L291.957 149.474L292.965 128.816L245.922 124.989L240.544 126.522Z" fill="#4B5C7A"/>
<path d="M240.544 126.521C240.544 126.521 246.918 119.637 254.659 118.104C262.4 116.571 288.264 119.633 288.264 119.633L291.961 126.889L291.268 130.345L240.544 126.521Z" fill="#1B98E0"/>
<path d="M303.885 148.517H184.592V188.299H303.885V148.517Z" fill="#4B5C7A"/>
<path d="M274.535 175.583C277.687 163.587 271.404 155.705 271.404 155.705L260.989 147.433C260.981 147.461 260.97 147.488 260.958 147.515C259.603 145.708 258.634 143.569 258.125 141.265C258.093 141.12 258.065 140.97 258.033 140.812C258.985 140.007 259.819 139.034 260.503 137.932C262.201 136.748 262.958 134.843 263.244 132.943C264.336 131.099 265.206 129.096 265.83 126.989C265.933 126.648 266.021 126.301 266.093 125.95C266.294 125.296 266.383 124.605 266.356 123.914C266.271 123.144 266.046 122.402 265.695 121.737C263.942 118.109 260.786 115.583 257.587 113.524C256.469 112.759 255.278 112.141 254.037 111.682C252.529 111.188 250.94 111.101 249.398 111.43C247.855 111.76 246.401 112.495 245.153 113.578C244.544 114.076 244.049 114.732 243.707 115.492C243.575 115.837 243.476 116.198 243.412 116.567C243.257 117.197 243.131 117.836 243.033 118.481C242.947 118.789 242.82 119.081 242.659 119.347C242.233 120.027 241.508 120.54 241.412 121.37C241.41 121.418 241.41 121.466 241.412 121.515C241.335 121.672 241.284 121.844 241.261 122.023C241.231 122.39 241.301 122.758 241.46 123.079C241.484 123.134 241.512 123.184 241.539 123.233C241.018 124.092 240.592 125.022 240.273 126C240.127 126.09 239.986 126.19 239.85 126.299L239.735 126.394V126.667L239.667 126.726L239.52 131.12L239.599 131.193C239.717 133.242 240.26 135.231 241.183 136.996C242.106 138.761 243.383 140.252 244.91 141.347C244.962 141.628 245.01 141.914 245.053 142.213C245.294 143.795 245.39 145.402 245.34 147.007C245.325 146.868 245.325 146.728 245.34 146.589C242.46 145.106 236.177 149.206 233.647 151.02C233.264 151.227 232.906 151.491 232.583 151.805L232.54 151.841C230.799 153.447 227.36 157.909 224.631 169.379C220.846 185.383 221.241 189.011 218.484 192.721C215.727 196.431 212.99 222.567 212.99 222.567L218.54 224.267L219.249 221.673C225.846 228.521 244.32 231.818 244.32 231.818L244.886 229.818C247.719 230.979 252.456 229.215 252.456 229.215C259.38 226.431 261.974 219.365 266.997 210.045C272.021 200.726 274.535 175.583 274.535 175.583ZM246.607 223.805L259.396 178.648C260.555 185.66 255.44 196.703 254.986 203.923C254.703 208.567 249.954 217.796 246.607 223.805Z" fill="url(#paint1_linear)"/>
<path d="M262.607 128.068C262.607 128.068 264.834 137.723 258.225 139.406C251.615 141.088 255.97 135.066 255.97 135.066L262.344 127.995L262.607 128.068Z" fill="#472727"/>
<path d="M234.974 151.079C234.974 151.079 230.057 153.347 226.444 168.621C222.83 183.896 223.189 187.342 220.588 190.893C217.986 194.444 215.321 219.361 215.321 219.361L220.524 220.957L225.054 204.304L237.512 160.313L234.974 151.079Z" fill="#DDE0E4"/>
<path opacity="0.05" d="M228.423 159.5C228.423 159.5 234.697 149.5 228.197 162.5C224.584 177.774 223.189 187.342 220.588 190.893C217.986 194.444 215.321 219.361 215.321 219.361L220.524 220.957L225.054 204.304L228.423 159.5Z" fill="#006494"/>
<path d="M262.272 149.356C262.272 149.356 241.691 161.265 244.703 153.497C246.193 149.66 246.137 145.683 245.703 142.612C245.455 140.804 245.02 139.035 244.408 137.342C244.408 137.342 258.4 124.744 257.579 135.03C257.383 137.243 257.517 139.479 257.978 141.642C259.189 147.098 262.272 149.356 262.272 149.356Z" fill="#DB8B8B"/>
<path opacity="0.1" d="M257.978 141.66C256.654 142.87 255.098 143.706 253.436 144.1C251.774 144.494 250.054 144.435 248.416 143.927C247.458 143.634 246.54 143.193 245.687 142.617C245.439 140.808 245.004 139.039 244.392 137.347C244.392 137.347 258.384 124.748 257.563 135.034C257.371 137.253 257.511 139.494 257.978 141.66Z" fill="black"/>
<path d="M261.783 134.666C263.33 128.126 259.927 121.397 254.182 119.636C248.437 117.875 242.526 121.749 240.979 128.289C239.432 134.829 242.835 141.558 248.58 143.319C254.325 145.08 260.236 141.206 261.783 134.666Z" fill="#DB8B8B"/>
<path opacity="0.1" d="M245.97 125.497C245.674 125.702 245.345 125.837 245.003 125.895C244.66 125.952 244.311 125.929 243.976 125.829C243.641 125.729 243.327 125.552 243.054 125.31C242.78 125.069 242.552 124.766 242.384 124.422C242.236 124.114 242.173 123.764 242.201 123.415C242.293 122.626 242.978 122.136 243.396 121.483C244.046 120.426 243.922 118.98 244.392 117.805C244.716 117.088 245.182 116.466 245.755 115.991C246.919 114.955 248.282 114.247 249.733 113.925C251.183 113.604 252.68 113.678 254.101 114.141C255.264 114.572 256.379 115.155 257.424 115.877C260.42 117.823 263.372 120.204 264.994 123.664C265.322 124.299 265.531 125.005 265.607 125.737C265.625 126.527 265.503 127.314 265.248 128.05C264.649 130.082 263.815 132.015 262.766 133.796C262.416 133.3 261.976 132.897 261.476 132.612C261.223 132.476 260.94 132.434 260.665 132.492C260.39 132.55 260.139 132.705 259.946 132.934C259.599 133.438 259.388 134.399 258.862 134.172C258.519 134.027 258.523 133.487 258.539 133.07C258.611 131.256 257.743 129.546 256.575 128.322C255.408 127.097 253.962 126.29 252.535 125.497C251.512 124.925 250.145 123.614 249.022 123.383C247.627 123.088 246.97 124.794 245.97 125.497Z" fill="black"/>
<path d="M246.117 124.875C245.822 125.081 245.493 125.216 245.15 125.273C244.807 125.33 244.458 125.308 244.123 125.208C243.788 125.107 243.475 124.931 243.201 124.689C242.928 124.447 242.7 124.145 242.531 123.8C242.384 123.493 242.32 123.142 242.348 122.794C242.44 122.004 243.125 121.515 243.543 120.862C244.193 119.805 244.069 118.358 244.539 117.184C244.863 116.466 245.33 115.845 245.902 115.37C247.066 114.333 248.43 113.626 249.88 113.304C251.331 112.982 252.828 113.056 254.249 113.519C255.411 113.951 256.526 114.534 257.571 115.256C260.567 117.202 263.519 119.583 265.141 123.043C265.469 123.678 265.678 124.384 265.754 125.116C265.772 125.906 265.65 126.693 265.396 127.428C264.797 129.461 263.962 131.393 262.914 133.175C262.563 132.679 262.123 132.275 261.623 131.991C261.371 131.855 261.087 131.813 260.812 131.871C260.538 131.929 260.286 132.083 260.093 132.313C259.746 132.816 259.535 133.778 259.009 133.551C258.667 133.406 258.671 132.866 258.687 132.449C258.758 130.635 257.89 128.925 256.723 127.701C255.555 126.476 254.109 125.669 252.683 124.875C251.659 124.304 250.292 122.993 249.169 122.762C247.774 122.463 247.117 124.172 246.117 124.875Z" fill="#472727"/>
<path d="M252.502 152.356C252.502 152.356 261.394 151 261.394 148.9L271.139 156.732C271.139 156.732 277.003 164.211 274.003 175.657C274.003 175.657 271.561 199.644 266.812 208.546C262.063 217.449 259.334 228.982 252.828 231.676C252.828 231.676 246.573 227.086 244.51 227.14C244.51 227.14 255.103 209.667 255.557 202.787C256.012 195.907 260.852 185.358 259.792 178.682L245.45 229.431C245.45 229.431 222.343 225.349 220 216.619C220 216.619 221.992 213.213 221.622 209.762C221.251 206.311 223.5 172.5 223.5 172.5L232.5 152.356C232.5 152.356 242 148.206 246.721 148.206C246.705 148.179 246.083 151.558 252.502 152.356Z" fill="#1B98E0"/>
<g opacity="0.1">
<path opacity="0.1" d="M254.862 129.928C252.759 126.662 248.747 129.342 248.089 129.81L247.057 129.692C246.157 128.576 243.396 125.61 240.802 127.791L240.691 127.887L240.535 132.073L240.647 132.172C241.396 132.831 242.246 133.326 243.153 133.633C243.727 133.825 244.334 133.859 244.922 133.733C245.357 133.618 245.765 133.396 246.117 133.083C246.469 132.77 246.756 132.372 246.958 131.918L247.496 131.959L247.894 131.873C247.974 132.355 248.143 132.813 248.39 133.215C248.638 133.617 248.957 133.954 249.328 134.204C251.109 135.352 253.711 134.204 253.818 134.181L253.954 134.123L254.91 130.073L254.862 129.928ZM253.511 133.61C252.982 133.814 250.982 134.485 249.639 133.61C249.305 133.372 249.023 133.049 248.816 132.667C248.609 132.284 248.481 131.853 248.444 131.406L248.396 131.075L247.523 131.279L246.647 131.243L246.563 131.433C246.403 131.845 246.163 132.21 245.859 132.499C245.556 132.789 245.199 132.995 244.814 133.102C243.312 133.469 241.575 132.145 241.121 131.769L241.253 128.231C243.508 126.503 245.994 129.306 246.711 130.222L246.786 130.318L248.241 130.481L248.328 130.413C248.368 130.386 251.982 127.624 254.041 129.846C254.144 129.954 254.238 130.07 254.324 130.195L253.511 133.61Z" fill="black"/>
<path opacity="0.1" d="M261.388 132.032L254.615 131.392L254.057 131.27L254.308 130.2C254.222 130.075 254.128 129.958 254.025 129.85L254.846 129.941L260.388 130.558L261.388 132.032Z" fill="black"/>
</g>
<path d="M254.934 129.637C252.83 126.372 248.818 129.052 248.161 129.519L247.129 129.401C246.229 128.286 243.468 125.32 240.874 127.501L240.763 127.596L240.607 131.782L240.719 131.882C241.468 132.54 242.318 133.036 243.225 133.342C243.799 133.535 244.405 133.569 244.994 133.442C245.429 133.328 245.837 133.106 246.189 132.793C246.54 132.479 246.827 132.082 247.029 131.628L247.567 131.669L247.966 131.583C248.045 132.065 248.215 132.522 248.462 132.924C248.709 133.326 249.029 133.664 249.4 133.914C251.181 135.061 253.782 133.914 253.89 133.891L254.025 133.832L254.982 129.782L254.934 129.637ZM253.583 133.32C253.053 133.524 251.053 134.195 249.711 133.32C249.376 133.081 249.095 132.758 248.888 132.376C248.68 131.994 248.553 131.563 248.516 131.116L248.468 130.785L247.595 130.989L246.731 130.925L246.647 131.116C246.49 131.53 246.251 131.898 245.949 132.19C245.647 132.483 245.29 132.692 244.906 132.803C243.404 133.17 241.667 131.846 241.213 131.469L241.344 127.932C243.599 126.204 246.085 129.007 246.802 129.923L246.878 130.018L248.332 130.181L248.42 130.113C248.46 130.086 252.073 127.324 254.133 129.547C254.235 129.654 254.33 129.771 254.416 129.896L253.583 133.32Z" fill="#472727"/>
<path d="M261.452 131.741L254.703 131.102L254.145 130.98L254.396 129.909C254.31 129.785 254.215 129.668 254.113 129.56L254.934 129.651L260.476 130.268L261.452 131.741Z" fill="#472727"/>
<path d="M215.169 179.501H96.8835V233.819H215.169V179.501Z" fill="#6F7D95"/>
<path d="M151.019 269.392C169.248 269.392 184.026 250.982 184.026 228.272C184.026 205.562 169.248 187.152 151.019 187.152C132.789 187.152 118.011 205.562 118.011 228.272C118.011 250.982 132.789 269.392 151.019 269.392Z" fill="#4B5C7A"/>
<path opacity="0.05" d="M151.019 269.392C169.248 269.392 184.026 250.982 184.026 228.272C184.026 205.562 169.248 187.152 151.019 187.152C132.789 187.152 118.011 205.562 118.011 228.272C118.011 250.982 132.789 269.392 151.019 269.392Z" fill="black"/>
<path d="M158.353 269.392C176.583 269.392 191.361 250.982 191.361 228.272C191.361 205.562 176.583 187.152 158.353 187.152C140.123 187.152 125.345 205.562 125.345 228.272C125.345 250.982 140.123 269.392 158.353 269.392Z" fill="#4B5C7A"/>
<path opacity="0.05" d="M157.62 245.179C165.722 245.179 172.289 237.703 172.289 228.481C172.289 219.258 165.722 211.782 157.62 211.782C149.518 211.782 142.951 219.258 142.951 228.481C142.951 237.703 149.518 245.179 157.62 245.179Z" fill="black"/>
<path d="M157.62 233.492C160.051 233.492 162.022 231.249 162.022 228.481C162.022 225.713 160.051 223.469 157.62 223.469C155.189 223.469 153.218 225.713 153.218 228.481C153.218 231.249 155.189 233.492 157.62 233.492Z" stroke="#6F7D95" stroke-width="2" stroke-miterlimit="10"/>
<path d="M157.62 220.966C158.227 220.966 158.72 220.406 158.72 219.714C158.72 219.023 158.227 218.463 157.62 218.463C157.013 218.463 156.52 219.023 156.52 219.714C156.52 220.406 157.013 220.966 157.62 220.966Z" fill="#6F7D95"/>
<path d="M164.344 223.09C164.809 222.646 164.87 221.856 164.479 221.327C164.089 220.797 163.395 220.728 162.93 221.172C162.465 221.617 162.404 222.406 162.795 222.936C163.185 223.465 163.879 223.535 164.344 223.09Z" fill="#6F7D95"/>
<path d="M166.969 229.151C167.075 228.471 166.676 227.822 166.077 227.701C165.479 227.581 164.909 228.036 164.804 228.717C164.698 229.398 165.098 230.047 165.696 230.167C166.294 230.287 166.864 229.832 166.969 229.151Z" fill="#6F7D95"/>
<path d="M163.293 236.351C163.819 236.005 163.999 235.24 163.695 234.641C163.392 234.042 162.719 233.837 162.193 234.183C161.667 234.529 161.487 235.294 161.791 235.893C162.094 236.492 162.767 236.697 163.293 236.351Z" fill="#6F7D95"/>
<path d="M157.503 237.029C157.711 236.379 157.417 235.661 156.846 235.424C156.275 235.188 155.644 235.523 155.437 236.172C155.229 236.822 155.523 237.54 156.094 237.777C156.665 238.013 157.296 237.678 157.503 237.029Z" fill="#6F7D95"/>
<path d="M151.914 233.163C152.484 232.926 152.779 232.208 152.571 231.559C152.363 230.909 151.732 230.574 151.162 230.81C150.591 231.047 150.297 231.765 150.504 232.415C150.712 233.064 151.343 233.399 151.914 233.163Z" fill="#6F7D95"/>
<path d="M152.427 225.343C152.73 224.744 152.55 223.979 152.024 223.633C151.498 223.287 150.826 223.493 150.522 224.091C150.219 224.69 150.399 225.455 150.925 225.801C151.451 226.147 152.123 225.942 152.427 225.343Z" fill="#6F7D95"/>
<path d="M395.526 196.494C394.399 205.356 391.263 215.057 391.263 215.057C391.284 214.452 391.298 213.855 391.303 213.265C391.303 212.504 391.303 211.751 391.303 210.998C390.905 186.572 379.211 171.501 371.67 164.286C369.71 162.384 367.601 160.69 365.371 159.225H385.869C385.869 159.225 393.932 177.968 395.614 187.148C396.1 189.723 395.964 193.048 395.526 196.494Z" fill="#FF4D52"/>
<path opacity="0.05" d="M395.526 196.494C394.399 205.356 391.263 215.057 391.263 215.057C391.284 214.452 391.298 213.855 391.303 213.265C391.303 212.504 391.303 211.751 391.303 210.998C390.905 186.572 379.211 171.501 371.67 164.286C369.71 162.384 367.601 160.69 365.371 159.225H385.869C385.869 159.225 393.932 177.968 395.614 187.148C396.1 189.723 395.964 193.048 395.526 196.494Z" fill="black"/>
<path d="M360.578 228.562C374.443 228.562 385.682 214.56 385.682 197.288C385.682 180.016 374.443 166.014 360.578 166.014C346.714 166.014 335.475 180.016 335.475 197.288C335.475 214.56 346.714 228.562 360.578 228.562Z" fill="#4B5C7A"/>
<path opacity="0.05" d="M360.578 228.562C374.443 228.562 385.682 214.56 385.682 197.288C385.682 180.016 374.443 166.014 360.578 166.014C346.714 166.014 335.475 180.016 335.475 197.288C335.475 214.56 346.714 228.562 360.578 228.562Z" fill="black"/>
<path d="M368.5 229C383.688 229 396 214.225 396 196C396 177.775 383.688 163 368.5 163C353.312 163 341 177.775 341 196C341 214.225 353.312 229 368.5 229Z" fill="#4B5C7A"/>
<path opacity="0.05" d="M365.598 210.145C371.759 210.145 376.753 204.46 376.753 197.447C376.753 190.434 371.759 184.748 365.598 184.748C359.437 184.748 354.443 190.434 354.443 197.447C354.443 204.46 359.437 210.145 365.598 210.145Z" fill="black"/>
<path d="M365.598 201.256C367.446 201.256 368.945 199.551 368.945 197.447C368.945 195.343 367.446 193.637 365.598 193.637C363.75 193.637 362.252 195.343 362.252 197.447C362.252 199.551 363.75 201.256 365.598 201.256Z" stroke="#6F7D95" stroke-width="2" stroke-miterlimit="10"/>
<path d="M365.598 191.732C366.06 191.732 366.435 191.306 366.435 190.78C366.435 190.254 366.06 189.828 365.598 189.828C365.136 189.828 364.761 190.254 364.761 190.78C364.761 191.306 365.136 191.732 365.598 191.732Z" fill="#6F7D95"/>
<path d="M370.715 193.347C371.069 193.009 371.115 192.408 370.818 192.005C370.521 191.603 369.993 191.55 369.639 191.888C369.285 192.226 369.239 192.827 369.536 193.23C369.833 193.633 370.361 193.685 370.715 193.347Z" fill="#6F7D95"/>
<path d="M372.708 197.961C372.789 197.443 372.485 196.949 372.03 196.857C371.575 196.766 371.141 197.112 371.06 197.63C370.98 198.148 371.284 198.642 371.739 198.733C372.194 198.825 372.628 198.479 372.708 197.961Z" fill="#6F7D95"/>
<path d="M369.916 203.435C370.316 203.172 370.453 202.59 370.222 202.134C369.991 201.679 369.479 201.523 369.079 201.786C368.679 202.049 368.542 202.631 368.773 203.087C369.004 203.542 369.516 203.698 369.916 203.435Z" fill="#6F7D95"/>
<path d="M365.511 203.949C365.669 203.455 365.446 202.908 365.011 202.729C364.577 202.549 364.097 202.803 363.939 203.298C363.781 203.792 364.005 204.338 364.439 204.518C364.873 204.698 365.353 204.443 365.511 203.949Z" fill="#6F7D95"/>
<path d="M361.259 201.005C361.693 200.825 361.917 200.279 361.759 199.784C361.601 199.29 361.121 199.035 360.686 199.215C360.252 199.395 360.028 199.942 360.186 200.436C360.344 200.93 360.825 201.185 361.259 201.005Z" fill="#6F7D95"/>
<path d="M361.654 195.059C361.885 194.604 361.748 194.021 361.347 193.759C360.947 193.496 360.436 193.652 360.205 194.107C359.974 194.563 360.111 195.145 360.511 195.408C360.911 195.671 361.423 195.515 361.654 195.059Z" fill="#6F7D95"/>
<path d="M17.4143 232.481L14.3784 205.32H50.3343L68.8162 224.064L59.7445 248.163C59.7445 248.163 23.1433 241.279 17.4143 232.481Z" fill="#FF4D52"/>
<path opacity="0.05" d="M68.828 224.063L59.7564 248.163C59.7564 248.163 23.1432 241.279 17.4142 232.481L17.2827 231.297L14.4939 206.181L14.466 205.932L14.3983 205.324H50.3541L68.828 224.063Z" fill="black"/>
<path d="M217.695 121.932V130.73C217.695 130.73 199.114 147.964 194.691 164.222C193.919 166.862 193.628 169.654 193.835 172.426C195.516 190.404 145.453 157.887 145.453 157.887L147.68 156.653C159.19 150.336 211.715 121.587 217.695 121.932Z" fill="#1B98E0"/>
<path d="M260.037 164.394C260.037 164.394 277.44 154.662 280.232 147.46C280.607 146.494 280.961 145.519 281.376 144.571C283.101 140.621 286.726 131.356 284.902 126.907C282.551 121.17 290.615 127.673 290.615 127.673L285.91 154.825L274.483 162.082L259.699 164.394" fill="#FF4D52"/>
<path opacity="0.05" d="M260.263 164C260.263 164 273.772 155.208 275.94 148.703C276.231 147.83 276.506 146.949 276.828 146.093C278.167 142.525 280.981 134.155 279.565 130.137C277.74 124.954 284 130.829 284 130.829L280.347 155.356L271.477 161.911L260 164" fill="black"/>
<path opacity="0.05" d="M68.8281 224.064L59.7565 248.163C59.7565 248.163 23.1433 241.279 17.4143 232.481L17.2828 231.297C17.4302 231.184 17.5856 231.066 17.749 230.952C17.749 230.952 28.8365 240.898 54.0434 243.197C54.0434 243.197 69.1827 229.424 44.6332 214.127C44.6332 214.127 23.2788 214.889 14.4821 206.186L14.3864 206.095L14.4542 205.937C14.5126 205.807 14.6069 205.604 14.737 205.329H50.3423L68.8281 224.064Z" fill="black"/>
<path opacity="0.05" d="M193.835 172.422C195.516 190.404 145.453 157.887 145.453 157.887L147.68 156.653C149.154 158.44 155.038 164.467 166.803 163.814C174.373 163.392 185.867 163.778 194.711 164.218C193.933 166.856 193.634 169.648 193.835 172.422Z" fill="black"/>
<path opacity="0.05" d="M215.173 179.501V233.819H193.197C194.648 221.184 193.811 202.767 179.716 192.209C174.458 188.297 168.354 186.114 162.076 185.901C155.798 185.689 149.591 187.454 144.138 191.002C134.899 197.007 124.569 209.216 118.003 233.819H96.8877V179.501H215.173Z" fill="black"/>
<path opacity="0.05" d="M395.526 196.494C394.697 202.49 393.367 208.313 391.307 213.275C391.041 213.943 390.752 214.594 390.438 215.229C390.49 215.007 390.869 213.456 391.307 211.016C393.442 199.134 397.096 166.254 372.618 164.377C372.299 164.354 371.984 164.331 371.67 164.318C369.711 162.405 367.602 160.7 365.371 159.225H385.869C385.869 159.225 393.932 177.968 395.614 187.148C396.1 189.723 395.964 193.048 395.526 196.494Z" fill="#006494"/>
<path d="M390.647 215.357C390.966 214.046 402.32 166.772 372.826 164.509C342.918 162.214 339.221 187.842 335.862 222.654C335.862 222.654 241.441 230.686 190.693 247.52C190.693 247.52 202.876 209.516 179.936 192.328C174.679 188.416 168.574 186.233 162.296 186.02C156.018 185.808 149.811 187.573 144.358 191.121C133.044 198.477 120.084 215.158 114.415 252.491H57.953C57.953 252.491 47.1961 253.257 43.5029 247.502C43.5029 247.502 26.6715 241.568 17.2811 232.389C17.2811 232.389 9.2174 205.237 17.2811 199.5C17.2811 199.5 24.3399 213.058 49.5429 215.357C49.5429 215.357 68.7258 229.144 44.1762 213.847C44.1762 213.847 22.6625 214.613 13.9335 205.815C13.9335 205.815 16.9972 198.6 23.9892 189.87C33.5525 177.895 45.7379 169.026 59.2996 164.169C68.4377 160.953 77.9624 159.389 87.5264 159.534L146.836 157.43C146.836 157.43 152.565 165.847 166.326 165.081C180.087 164.314 206.987 166.228 206.987 166.228H207.254L262.6 163.375C264.19 163.12 266.499 157.929 268.043 157.43C284.543 138.913 280.543 143.413 284.543 124L374.838 137.348C378.119 137.52 381.377 138.044 384.571 138.913C389.041 140.219 393.129 142.604 391.978 146.913C389.627 155.711 396.009 156.858 396.009 156.858C396.009 156.858 396.145 158.033 396.312 160.074C397.109 169.697 398.675 198.632 390.647 215.357Z" fill="#006494"/>
<path opacity="0.05" d="M124.947 172.807C124.947 172.807 88.6525 173.188 64.7882 197.297H78.2303C78.2303 197.297 115.867 186.204 124.939 177.406L124.947 172.807Z" fill="black"/>
<path d="M124.608 172.422C124.608 172.422 97.8643 168.391 73.9999 192.5L77.8918 196.912C77.8918 196.912 115.529 185.819 124.6 177.02L124.608 172.422Z" fill="#FFEC9F"/>
<path opacity="0.05" d="M60.0912 164.054V174.336L29.5178 190.404L24.7847 189.755C34.3469 177.781 46.5309 168.912 60.0912 164.054Z" fill="black"/>
<path d="M59.7524 163.674V173.955L29.175 190.018L24.442 189.37C34.0058 177.396 46.1912 168.529 59.7524 163.674Z" fill="#1B98E0"/>
<path opacity="0.05" d="M103.103 210.295C103.103 210.295 86.6366 221.769 84.9553 247.029H94.3656C94.3656 247.029 98.0628 219.487 108.816 210.295H103.103Z" fill="black"/>
<path opacity="0.05" d="M297.674 211.061L212.317 222.535C212.317 222.535 206.671 181.628 207.715 165.714L263.061 162.862C264.649 162.611 266.22 162.236 267.762 161.741V165.537L309.431 154.063C309.431 154.063 316.491 165.918 297.674 211.061Z" fill="black"/>
<path d="M288.264 119.633C288.264 119.633 306.412 116.957 314.475 134.553L288.523 133.415L288.264 119.633Z" fill="#006494"/>
<path opacity="0.05" d="M313.216 140.721C312.503 143.265 313.041 146.063 317.172 148C320.61 149.614 324.642 147.746 325.817 143.732C326.503 141.392 326.033 138.744 322.327 136.589C318.622 134.435 314.463 136.277 313.216 140.721Z" fill="black"/>
<path d="M15.0277 211.052C15.0277 211.052 36.5653 223.751 52.0233 218.943" stroke="#006494" stroke-miterlimit="10"/>
<path d="M16 218C16 218 29.9018 224.229 58 222.782" stroke="#006494" stroke-miterlimit="10"/>
<path d="M16.43 223.664C16.43 223.664 30.2347 237.301 58.6009 232.979" stroke="#006494" stroke-miterlimit="10"/>
<path opacity="0.05" d="M313.435 132.499C313.435 132.499 302.208 143.533 291.961 148.521C291.961 148.521 307.523 151.673 313.435 132.499Z" fill="black"/>
<path opacity="0.1" d="M194 184.091C194 184.091 247.274 189.819 267.434 184.463C267.434 184.463 268.509 185.274 262.091 182L194 184.091Z" fill="black"/>
<path opacity="0.05" d="M396.773 159.574C393.454 157.093 388.192 151.946 388.909 146.218C389.267 143.347 387.482 140.662 385.032 138.408C389.502 139.714 393.59 142.1 392.438 146.408C390.088 155.206 396.47 156.354 396.47 156.354C396.47 156.354 396.602 157.533 396.773 159.574Z" fill="black"/>
<path d="M129.011 199.501C129.043 197.986 129.011 196.413 128.911 194.966C128.911 194.689 128.871 194.422 128.847 194.159C129.596 194.803 130.043 195.292 130.043 195.292L129.385 155.909L125.76 135.279C125.76 120.648 118.84 116.526 118.84 116.526C118.84 116.526 115.214 114.648 114.226 112.027C113.238 109.406 104.481 103.864 104.477 103.864C104.408 102.909 104.381 101.951 104.397 100.993C104.397 100.744 104.397 100.485 104.417 100.227C106.613 98.5697 108.205 96.0621 108.899 93.1695C109.593 90.2769 109.341 87.196 108.19 84.4988C108.676 84.4988 109.071 84.2675 109.254 83.4467C109.836 80.848 109.274 76.9342 107.951 74.8571C107.668 74.4227 107.35 74.0202 106.999 73.6553C106.589 73.1864 106.156 72.7429 105.704 72.3265C104.573 71.2562 103.314 70.1315 101.911 70.2222C101.116 70.3407 100.351 70.6498 99.6684 71.1292C96.1652 73.2275 92.6712 75.3439 89.1865 77.4784C87.8996 78.2721 86.573 79.1065 85.6726 80.5306C84.7722 81.9546 84.4096 83.7777 84.1586 85.5691C83.9476 86.7828 83.8979 88.0257 84.0112 89.2562C84.1166 90.3759 84.5668 91.417 85.2821 92.195C85.4264 92.3934 85.5909 92.5715 85.7722 92.7256C86.4813 93.3152 87.3937 93.4603 88.1347 93.9365C88.6949 95.7881 89.6329 97.462 90.8717 98.8208C90.8717 99.0521 90.8438 99.2743 90.8279 99.5283C90.7841 100.177 90.7163 100.889 90.6287 101.61C90.6287 101.61 88.1945 101.537 84.569 107.161C80.9435 112.785 73.0352 113.537 73.0352 113.537C73.0352 113.537 70.0711 112.036 66.7763 128.916C63.4816 145.796 62.4935 157.034 64.1389 158.921C64.8376 159.607 65.6251 160.167 66.4736 160.58C69.2666 162.185 72.2719 163.258 75.3699 163.755C75.4093 163.89 75.4762 164.013 75.5651 164.113L75.8002 167.383C75.9994 174.286 76.2304 188.131 75.0034 191.202C73.354 195.329 75.334 197.955 75.334 197.955L75.7324 197.923C75.806 198.066 75.8886 198.202 75.9794 198.331L77.573 198.209C77.4575 205.918 77.1468 216.612 76.326 218.961C75.0073 222.712 76.326 243.342 76.326 243.342L74.0193 280.476C74.0193 280.476 72.7564 299.859 73.9396 302.104C73.2942 306.136 72.1349 313.819 72.3739 315.732C72.7046 318.358 80.2822 322.109 80.2822 322.109C80.2822 322.109 89.1785 324.376 93.4613 323.61C95.7004 323.215 96.5888 321.492 96.5968 319.982C99.5011 320.512 103.282 321.02 105.652 320.603C109.935 319.855 109.278 314.227 106.971 314.603C104.664 314.98 102.027 309.701 100.067 307.075C99.0708 305.751 98.2422 303.383 97.6764 301.356C98.0931 301.284 98.4756 301.052 98.7601 300.698C99.7481 298.821 101.398 281.569 101.398 281.569L105.68 251.565C105.68 251.565 107.987 236.934 109.963 233.56C111.457 231.011 113.326 211.991 114.15 202.83H114.222H114.246L114.334 202.508L115.573 197.955C116.234 199.283 117.899 199.941 119.84 200.222C119.632 201.184 119.461 201.968 119.361 202.417C118.867 204.685 126.071 208.417 127.808 206.544C128.537 205.76 128.915 202.916 129.003 199.805H129.063L129.011 199.501ZM85.7204 301.787C85.6088 302.517 85.4973 303.279 85.3857 304.054C85.1347 303.147 84.9355 302.331 84.8001 301.728C85.1268 301.741 85.4335 301.76 85.7204 301.787Z" fill="url(#paint2_linear)"/>
<path d="M96.768 293.968C96.768 293.968 98.0389 300.472 99.9552 302.998C101.872 305.524 104.397 310.581 106.616 310.222C108.836 309.864 109.473 315.279 105.346 316C101.218 316.721 92.6525 314.553 92.6525 314.553C92.6525 314.553 85.3538 310.925 85.039 308.413C84.7243 305.9 86.9434 292.88 86.9434 292.88L96.768 293.968Z" fill="#53526B"/>
<path opacity="0.05" d="M96.768 293.968C96.768 293.968 98.0389 300.472 99.9552 302.998C101.872 305.524 104.397 310.581 106.616 310.222C108.836 309.864 109.473 315.279 105.346 316C101.218 316.721 92.6525 314.553 92.6525 314.553C92.6525 314.553 85.3538 310.925 85.039 308.413C84.7243 305.9 86.9434 292.88 86.9434 292.88L96.768 293.968Z" fill="black"/>
<path d="M85.0271 296.857C85.0271 296.857 86.298 303.36 88.2143 305.887C90.1306 308.413 92.6565 313.469 94.8756 313.111C97.0947 312.753 97.7321 318.168 93.6047 318.889C89.4772 319.61 80.9116 317.447 80.9116 317.447C80.9116 317.447 73.6129 313.819 73.2981 311.306C72.9834 308.794 75.2025 295.773 75.2025 295.773L85.0271 296.857Z" fill="#53526B"/>
<path d="M113.903 197.891C113.903 197.891 111.366 228.952 109.461 232.204C107.557 235.456 105.338 249.542 105.338 249.542L101.214 278.435C101.214 278.435 99.6207 295.052 98.6765 296.857C97.7323 298.662 85.9555 297.887 85.9555 297.887L93.2622 202.227L113.903 197.891Z" fill="#5F5D7E"/>
<path opacity="0.05" d="M113.903 197.891C113.903 197.891 111.366 228.952 109.461 232.204C107.557 235.456 105.338 249.542 105.338 249.542L101.214 278.435C101.214 278.435 99.6207 295.052 98.6765 296.857C97.7323 298.662 85.9555 297.887 85.9555 297.887L93.2622 202.227L113.903 197.891Z" fill="black"/>
<path d="M118.979 183.084L118.15 186.082L113.668 202.277L113.581 202.585H113.557C112.955 202.739 100.254 206.064 97.513 207.084C97.3651 207.136 97.2201 207.198 97.0787 207.27C95.8078 207.991 94.2222 233.996 94.2222 233.996C94.2222 233.996 93.27 258.558 92.6286 260.363C91.9872 262.168 89.4414 299.365 87.8677 298.286C86.294 297.206 74.8598 298.286 74.8598 298.286C73.5889 296.839 74.8598 277.338 74.8598 277.338L77.0789 241.578C77.0789 241.578 75.808 221.714 77.0789 218.1C78.3498 214.485 78.3498 190.29 78.3498 190.29L104.338 185.71L106.848 185.256L118.979 183.084Z" fill="#5F5D7E"/>
<path opacity="0.02" d="M118.15 186.082L113.668 202.277L113.561 202.594C112.959 202.748 100.258 206.073 97.5171 207.093H97.2422L104.338 185.71L104.541 185.093L106.848 185.261L118.15 186.082Z" fill="black"/>
<path opacity="0.1" d="M88.5172 110.848C88.5172 110.848 100.258 125.297 107.557 113.374L114.537 118.794L113.266 127.102L117.389 189.95C117.389 189.95 106.601 189.587 98.9872 192.476C96.8667 193.332 94.5755 193.481 92.3833 192.905C90.191 192.329 88.189 191.052 86.6128 189.225L87.8837 133.964L85.0272 116.989L88.5172 110.848Z" fill="black"/>
<path d="M88.517 109.764C88.517 109.764 100.258 124.213 107.557 112.29L114.537 117.71L113.266 126.018L117.393 188.884C117.393 188.884 106.605 188.522 98.991 191.41C96.8706 192.267 94.5794 192.415 92.3871 191.839C90.1949 191.263 88.1928 189.986 86.6167 188.159L87.8876 132.898L85.031 115.923L88.517 109.764Z" fill="#53526B"/>
<path d="M111.951 174.109V176.381H112.593V174.866H114.923V176.381H115.565V174.113L111.951 174.109Z" fill="#006494"/>
<path d="M112.525 173.374H114.987C115.148 173.33 115.296 173.237 115.414 173.104C115.532 172.971 115.616 172.804 115.656 172.621H111.859C111.9 172.804 111.984 172.971 112.102 173.104C112.22 173.236 112.368 173.33 112.529 173.374" fill="#006494"/>
<path d="M110.015 176.381C110.154 176.319 110.279 176.22 110.377 176.091C110.474 175.962 110.543 175.808 110.577 175.642H107.704V172.621H107.059V176.381H110.011" fill="#006494"/>
<path d="M102.278 173.361H104.553C104.715 173.314 104.864 173.222 104.986 173.093C105.109 172.964 105.201 172.802 105.254 172.621H101.629V174.825H104.585V175.605H102.266C102.089 175.659 101.924 175.754 101.782 175.886C101.64 176.017 101.524 176.181 101.441 176.367H105.214V174.1H102.262V173.356" fill="#006494"/>
<path d="M96.6645 173.37H99.1267C99.288 173.326 99.4356 173.232 99.5536 173.099C99.6716 172.967 99.7554 172.8 99.796 172.617H95.9992C96.0402 172.8 96.1241 172.966 96.242 173.099C96.36 173.232 96.5074 173.325 96.6685 173.37" fill="#006494"/>
<path d="M96.6645 174.852H99.1267C99.2882 174.809 99.436 174.716 99.5541 174.583C99.6722 174.45 99.7558 174.283 99.796 174.1H95.9992C96.0402 174.282 96.1241 174.449 96.242 174.582C96.36 174.714 96.5074 174.808 96.6685 174.852" fill="#006494"/>
<path d="M96.6645 176.381H99.1267C99.288 176.337 99.4356 176.243 99.5536 176.111C99.6716 175.978 99.7554 175.811 99.796 175.628H95.9992C96.0402 175.811 96.1241 175.978 96.242 176.11C96.36 176.243 96.5074 176.336 96.6685 176.381" fill="#006494"/>
<path d="M90.2621 172.626C90.3042 172.807 90.3881 172.972 90.5051 173.104C90.6221 173.235 90.768 173.329 90.9275 173.374H91.9633L92.0151 173.397V176.372H92.6605V173.397L92.7203 173.374H93.7561C93.9151 173.327 94.0604 173.233 94.1772 173.102C94.294 172.971 94.3783 172.806 94.4215 172.626H90.2621Z" fill="#006494"/>
<path d="M102.959 165.188L106.19 144.494C109.27 144.494 110.242 144.88 110.385 146.449C110.385 146.449 112.453 145.574 113.493 143.792C110.919 142.477 108.154 141.715 105.338 141.547L102.947 144.853L100.557 141.547C97.7398 141.715 94.9747 142.476 92.4014 143.792C93.4412 145.574 95.5089 146.449 95.5089 146.449C95.6484 144.88 96.6205 144.494 99.6802 144.49L102.939 165.188" fill="#006494"/>
<path d="M102.959 140.59C106.707 140.537 110.423 141.385 113.863 143.079C114.117 142.593 114.334 142.083 114.513 141.556C107.103 138.139 98.8155 138.139 91.4055 141.556C91.5958 142.08 91.8168 142.589 92.0668 143.079C95.5071 141.385 99.2229 140.537 102.971 140.59" fill="#006494"/>
<path d="M112.951 184.526C112.951 184.526 112.951 193.918 114.856 197.891C116.76 201.864 127.863 199.705 127.863 199.705L125.644 186.34L112.951 184.526Z" fill="#D39999"/>
<path d="M126.656 206.199C124.983 208.014 118.047 204.385 118.525 202.227C118.859 200.698 120.031 195.229 120.696 192.127L121.158 189.945C121.158 189.945 125.222 188.499 126.656 189.945C127.178 190.472 127.544 192.544 127.716 195.048C128.011 199.397 127.72 205.052 126.656 206.199Z" fill="#FDC2CC"/>
<path d="M111.362 116.263L100.258 126.014C100.258 126.014 83.7602 124.93 87.8837 115.9C89.6792 111.929 90.7626 107.591 91.0709 103.138C91.205 101.496 91.205 99.8423 91.0709 98.1996C91.0709 98.1996 106.302 82.3265 104.397 100.367C104.247 101.752 104.16 103.145 104.135 104.54C103.923 118.082 111.362 116.263 111.362 116.263Z" fill="#FDC2CC"/>
<path opacity="0.1" d="M104.382 100.372C104.231 101.757 104.144 103.149 104.119 104.544C102.409 105.833 100.404 106.518 98.3537 106.512C95.5131 106.512 93.4215 103.365 91.533 101.274C91.7442 98.2765 91.0589 98.204 91.0589 98.204C91.0589 98.204 106.286 82.3083 104.382 100.372Z" fill="black"/>
<path d="M98.3537 105.787C104.136 105.787 108.824 100.451 108.824 93.8686C108.824 87.2862 104.136 81.9502 98.3537 81.9502C92.5713 81.9502 87.8837 87.2862 87.8837 93.8686C87.8837 100.451 92.5713 105.787 98.3537 105.787Z" fill="#FDC2CC"/>
<path opacity="0.1" d="M90.8997 105.247C90.8997 105.247 89.1547 105.428 85.6647 110.843C82.1746 116.258 74.5373 116.984 74.5373 116.984C74.5373 116.984 71.6807 115.537 68.5094 131.791C65.3382 148.045 64.386 158.88 65.9716 160.685C67.5573 162.49 73.9038 165.02 77.0751 165.02C77.0751 165.02 78.0273 187.773 76.4416 191.746C74.856 195.719 76.7604 198.249 76.7604 198.249L90.7044 197.165C90.7044 197.165 95.4654 190.304 96.4175 178.385C97.3697 166.467 100.541 132.512 98.9554 128.54C97.3697 124.567 90.3897 114.453 90.7044 113.37C91.0192 112.286 90.8997 105.247 90.8997 105.247Z" fill="black"/>
<path d="M90.8717 105.138C90.8717 105.138 88.5251 105.066 85.0351 110.485C81.5451 115.905 73.9316 116.626 73.9316 116.626C73.9316 116.626 71.0751 115.179 67.9038 131.433C64.7325 147.687 63.7803 158.521 65.3739 160.313C66.9675 162.104 73.3061 164.648 76.4774 164.648C76.4774 164.648 77.4296 187.401 75.8439 191.374C74.2583 195.347 76.1627 197.877 76.1627 197.877L90.1067 196.794C90.1067 196.794 94.8677 189.932 95.8198 178.014C96.772 166.095 99.9433 132.14 98.3577 128.168C96.772 124.195 89.792 114.082 90.1067 112.998C90.4215 111.914 90.8717 105.138 90.8717 105.138Z" fill="#1B98E0"/>
<path d="M82.5052 151.66C82.5052 151.66 98.3815 130.934 96.1505 145.156C94.5569 155.27 88.537 160.689 85.6805 161.773C82.8239 162.857 82.5052 151.66 82.5052 151.66Z" fill="#FDC2CC"/>
<path opacity="0.1" d="M127.716 195.048C126.198 193.728 123.333 191.673 120.696 192.127L121.158 189.945C121.158 189.945 125.222 188.499 126.656 189.945C127.182 190.472 127.545 192.544 127.716 195.048Z" fill="black"/>
<path opacity="0.1" d="M104.222 107.415C104.222 107.415 112.314 113.374 113.266 115.905C114.218 118.435 117.708 120.24 117.708 120.24C117.708 120.24 124.369 124.213 124.369 138.299L127.859 158.163L111.987 183.442C111.987 183.442 110.083 158.159 109.13 152.018C108.178 145.878 106.911 134.331 106.911 134.331C106.911 134.331 102.15 127.469 102.788 125.664C103.425 123.859 104.222 107.415 104.222 107.415Z" fill="black"/>
<path d="M104.194 107.306C104.194 107.306 112.632 112.653 113.58 115.179C114.529 117.705 118.027 119.497 118.027 119.497C118.027 119.497 124.688 123.469 124.688 137.556L128.178 157.42L128.811 195.342C128.811 195.342 123.098 189.202 118.975 192.091C114.851 194.98 112.314 182.698 112.314 182.698C112.314 182.698 110.409 157.415 109.457 151.274C108.505 145.134 107.238 133.587 107.238 133.587C107.238 133.587 102.477 126.753 103.114 124.939C103.752 123.125 104.194 107.306 104.194 107.306Z" fill="#1B98E0"/>
<path opacity="0.1" d="M107.545 79.3742C107.008 78.5962 106.387 77.8984 105.696 77.2971C104.605 76.263 103.397 75.1837 102.043 75.2744C101.277 75.3905 100.541 75.6904 99.8835 76.1542C96.5104 78.1769 93.1465 80.2207 89.792 82.2857C88.5529 83.0476 87.2741 83.8549 86.4095 85.2245C85.545 86.5941 85.1944 88.3538 84.9514 90.0771C84.748 91.2445 84.6997 92.4399 84.808 93.6236C84.9067 94.784 85.4017 95.854 86.1864 96.6032C87.0908 97.3515 88.3298 97.356 89.0868 98.3356C89.525 98.9025 89.7163 99.6962 90.027 100.385C90.3378 101.075 90.8756 101.746 91.4892 101.624C92.1027 101.501 92.4732 100.762 92.5609 100.014C92.5999 99.2552 92.5611 98.4942 92.4453 97.746C92.3258 96.3855 92.4772 94.9433 93.1704 93.932C93.6485 93.2426 94.3338 92.8254 94.7959 92.1179C95.9035 90.4127 95.3975 87.5828 96.6126 85.9819C96.9655 85.5634 97.4095 85.259 97.8994 85.0996C98.3894 84.9403 98.9077 84.9317 99.4014 85.0748C100.385 85.3107 101.286 85.9184 102.19 86.4354C103.412 87.137 104.692 87.6991 106.011 88.1134C107.118 88.4581 108.401 89.2835 108.78 87.6055C109.358 85.1429 108.8 81.3742 107.545 79.3742Z" fill="black"/>
<path d="M107.226 79.0114C106.689 78.2335 106.068 77.5356 105.377 76.9343C104.286 75.9003 103.079 74.8209 101.724 74.9116C100.958 75.0277 100.222 75.3276 99.5648 75.7914C96.1943 77.8141 93.3935 75.9003 89.4732 81.9229C88.6366 83.2109 86.9553 83.4921 86.0908 84.8617C85.2262 86.2313 84.8757 87.991 84.6326 89.7143C84.4292 90.8816 84.3809 92.0771 84.4892 93.2608C84.588 94.4212 85.083 95.4912 85.8677 96.2404C86.7721 96.9887 88.0111 96.9932 88.768 97.9728C89.2063 98.5397 89.3975 99.3334 89.7083 100.023C90.019 100.712 90.5569 101.383 91.1704 101.261C91.784 101.138 92.1545 100.399 92.2421 99.6508C92.2812 98.8924 92.2424 98.1314 92.1266 97.3832C92.0071 96.0227 92.1585 94.5805 92.8517 93.5692C93.3298 92.8798 94.015 92.4626 94.4771 91.7551C95.5847 90.0499 95.0787 87.22 96.2939 85.6191C96.6467 85.2006 97.0907 84.8962 97.5807 84.7368C98.0706 84.5775 98.5889 84.5689 99.0827 84.7121C100.067 84.9479 100.967 85.5556 101.871 86.0726C103.093 86.7742 104.373 87.3363 105.692 87.7506C106.8 88.0953 108.083 88.9207 108.461 87.2427C109.043 84.7801 108.501 81.0114 107.226 79.0114Z" fill="#865A61"/>
<path d="M78.6805 132.517C78.6805 132.517 78.3618 145.882 76.7761 147.687C75.1905 149.492 77.7283 151.66 77.7283 151.66L84.0749 149.846C84.0749 149.846 82.4812 161.764 89.1505 160.322C89.1505 160.322 84.7083 165.016 80.2661 165.742C75.8239 166.467 76.1307 164.662 76.1307 164.662L69.4694 155.633L78.6805 132.517Z" fill="#D39999"/>
<path opacity="0.1" d="M78.6288 134.141C78.6288 134.141 74.3978 146.422 77.573 151.478L84.5531 149.664C84.5531 149.664 78.2065 151.832 79.1587 147.497C80.1109 143.161 78.6288 134.141 78.6288 134.141Z" fill="black"/>
<path opacity="0.1" d="M76.3021 164.481C76.3021 164.481 85.5052 165.202 88.043 163.034C84.7032 165.946 80.7564 167.821 76.5889 168.476L76.3021 164.481Z" fill="black"/>
<path opacity="0.1" d="M115.971 141.365C115.971 141.365 120.732 157.982 120.413 160.508C120.094 163.034 119.461 190.848 119.461 190.848L118.509 190.485L118.827 160.145L115.971 141.365Z" fill="black"/>
<path d="M316.415 188.354C316.415 188.354 323.387 203.932 317.706 212.454C312.025 220.975 318.224 244.2 318.224 244.2" stroke="#6C63FF" stroke-miterlimit="10"/>
<path d="M318.479 183.506C318.479 186.508 316.543 188.948 316.543 188.948C316.543 188.948 314.607 186.512 314.607 183.506C314.607 180.499 316.543 178.063 316.543 178.063C316.543 178.063 318.479 180.503 318.479 183.506Z" fill="#6C63FF"/>
<path d="M320.029 188.354C320.029 188.354 313.057 203.932 318.738 212.454C324.419 220.975 318.22 244.2 318.22 244.2" stroke="#6C63FF" stroke-miterlimit="10"/>
<path d="M317.961 183.506C317.961 186.508 319.897 188.948 319.897 188.948C319.897 188.948 321.834 186.512 321.834 183.506C321.834 180.499 319.897 178.063 319.897 178.063C319.897 178.063 317.961 180.503 317.961 183.506Z" fill="#6C63FF"/>
<path opacity="0.1" d="M317.961 183.506C317.961 186.508 319.897 188.948 319.897 188.948C319.897 188.948 321.834 186.512 321.834 183.506C321.834 180.499 319.897 178.063 319.897 178.063C319.897 178.063 317.961 180.503 317.961 183.506Z" fill="black"/>
<path d="M322.869 188.354C322.869 188.354 329.841 203.932 324.16 212.454C318.479 220.975 324.678 244.2 324.678 244.2" stroke="#6C63FF" stroke-miterlimit="10"/>
<path d="M324.933 183.506C324.933 186.508 322.997 188.948 322.997 188.948C322.997 188.948 321.061 186.512 321.061 183.506C321.061 180.499 322.997 178.063 322.997 178.063C322.997 178.063 324.933 180.503 324.933 183.506Z" fill="#6C63FF"/>
<path d="M323.85 195.986C322.021 198.15 319.14 198.376 319.14 198.376C319.14 198.376 319.228 195.093 321.057 192.934C322.885 190.775 325.766 190.544 325.766 190.544C325.766 190.544 325.678 193.823 323.85 195.986Z" fill="#6C63FF"/>
<path d="M324.029 206.735C322.2 208.898 319.32 209.125 319.32 209.125C319.32 209.125 319.407 205.841 321.236 203.683C323.065 201.524 325.929 201.288 325.929 201.288C325.929 201.288 325.857 204.567 324.029 206.735Z" fill="#6C63FF"/>
<path d="M314.112 212.644C315.842 214.912 315.782 218.195 315.782 218.195C315.782 218.195 312.917 217.801 311.188 215.533C309.459 213.265 309.519 209.982 309.519 209.982C309.519 209.982 312.383 210.376 314.112 212.644Z" fill="#6C63FF"/>
<path d="M315.718 189.728C317.917 191.388 318.63 194.571 318.63 194.571C318.63 194.571 315.774 195.061 313.579 193.419C311.383 191.778 310.666 188.576 310.666 188.576C310.666 188.576 313.519 188.068 315.718 189.728Z" fill="#6C63FF"/>
<path opacity="0.1" d="M315.718 189.728C317.917 191.388 318.63 194.571 318.63 194.571C318.63 194.571 315.774 195.061 313.579 193.419C311.383 191.778 310.666 188.576 310.666 188.576C310.666 188.576 313.519 188.068 315.718 189.728Z" fill="black"/>
<path d="M326.483 188.354C326.483 188.354 319.511 203.932 325.192 212.454C330.873 220.975 324.674 244.2 324.674 244.2" stroke="#6C63FF" stroke-miterlimit="10"/>
<path d="M324.419 183.506C324.419 186.508 326.355 188.948 326.355 188.948C326.355 188.948 328.292 186.512 328.292 183.506C328.292 180.499 326.355 178.063 326.355 178.063C326.355 178.063 324.419 180.503 324.419 183.506Z" fill="#6C63FF"/>
<path opacity="0.1" d="M324.419 183.506C324.419 186.508 326.355 188.948 326.355 188.948C326.355 188.948 328.292 186.512 328.292 183.506C328.292 180.499 326.355 178.063 326.355 178.063C326.355 178.063 324.419 180.503 324.419 183.506Z" fill="black"/>
<path d="M324.977 196.218C323.124 198.358 322.985 201.66 322.985 201.66C322.985 201.66 325.865 201.474 327.718 199.333C329.57 197.193 329.71 193.891 329.71 193.891C329.71 193.891 326.826 194.077 324.977 196.218Z" fill="#6C63FF"/>
<path opacity="0.1" d="M324.977 196.218C323.124 198.358 322.985 201.66 322.985 201.66C322.985 201.66 325.865 201.474 327.718 199.333C329.57 197.193 329.71 193.891 329.71 193.891C329.71 193.891 326.826 194.077 324.977 196.218Z" fill="black"/>
<path d="M328.606 211.107C326.754 213.247 326.614 216.549 326.614 216.549C326.614 216.549 329.495 216.363 331.347 214.222C333.2 212.082 333.339 208.78 333.339 208.78C333.339 208.78 330.459 208.957 328.606 211.107Z" fill="#6C63FF"/>
<path d="M323.264 207.828C323.264 207.828 327.459 200.299 333.351 200.118" stroke="#6C63FF" stroke-miterlimit="10"/>
<path d="M319.997 203.279C319.997 203.279 315.802 195.75 309.909 195.569" stroke="#006494" stroke-miterlimit="10"/>
<path d="M319.451 214.027C319.451 214.027 323.646 206.499 329.539 206.317" stroke="#6C63FF" stroke-miterlimit="10"/>
<path d="M333.156 201.315C333.757 201.315 334.244 200.761 334.244 200.077C334.244 199.393 333.757 198.839 333.156 198.839C332.556 198.839 332.069 199.393 332.069 200.077C332.069 200.761 332.556 201.315 333.156 201.315Z" fill="#6C63FF"/>
<path d="M310.009 196.871C310.61 196.871 311.097 196.316 311.097 195.633C311.097 194.949 310.61 194.395 310.009 194.395C309.408 194.395 308.921 194.949 308.921 195.633C308.921 196.316 309.408 196.871 310.009 196.871Z" fill="#6C63FF"/>
<path d="M322.539 216.508C322.539 216.508 318.344 208.98 312.451 208.798" stroke="#6C63FF" stroke-miterlimit="10"/>
<path d="M312.551 210.1C313.151 210.1 313.638 209.545 313.638 208.862C313.638 208.178 313.151 207.624 312.551 207.624C311.95 207.624 311.463 208.178 311.463 208.862C311.463 209.545 311.95 210.1 312.551 210.1Z" fill="#6C63FF"/>
<path d="M329.618 207.619C330.219 207.619 330.706 207.065 330.706 206.381C330.706 205.697 330.219 205.143 329.618 205.143C329.018 205.143 328.531 205.697 328.531 206.381C328.531 207.065 329.018 207.619 329.618 207.619Z" fill="#6C63FF"/>
<path d="M345.734 235.143C345.734 235.143 335.622 232.839 332.925 229.769C330.228 226.698 318.093 221.342 316.746 225.166C315.399 228.989 298.543 242.063 309.993 244.363C321.443 246.662 336.961 247.433 340.331 245.896C343.702 244.358 345.734 235.143 345.734 235.143Z" fill="#A8A8A8"/>
<path opacity="0.2" d="M309.993 242.939C321.455 245.243 336.961 246.009 340.331 244.472C342.897 243.301 344.682 237.669 345.387 235.075L345.726 235.156C345.726 235.156 343.702 244.367 340.331 245.9C336.961 247.433 321.455 246.667 309.993 244.367C306.686 243.701 305.738 242.14 306.097 240.168C306.387 241.451 307.539 242.444 309.993 242.939Z" fill="black"/>
<path d="M49.1471 273.537C49.1471 273.537 52.4857 278.526 47.6052 286.009C42.7248 293.492 38.701 299.846 40.3304 304.531C40.3304 304.531 47.6929 290.594 53.6849 290.399C59.6768 290.204 55.7366 281.918 49.1471 273.537Z" fill="#6C63FF"/>
<path opacity="0.1" d="M49.1469 273.537C49.4378 274.018 49.6672 274.543 49.8282 275.097C55.6767 282.916 58.7882 290.213 53.1708 290.399C47.9358 290.571 41.6569 301.224 40.151 303.918C40.2007 304.126 40.2605 304.33 40.3303 304.531C40.3303 304.531 47.6927 290.594 53.6847 290.399C59.6767 290.204 55.7365 281.918 49.1469 273.537Z" fill="black"/>
<path d="M55.3541 279.868C55.3541 281.619 55.1827 283.043 54.9557 283.043C54.7286 283.043 54.5573 281.624 54.5573 279.868C54.5573 278.113 54.7724 278.961 54.9835 278.961C55.1947 278.961 55.3541 278.122 55.3541 279.868Z" fill="#FFD037"/>
<path d="M57.4816 281.959C56.131 282.798 54.9557 283.32 54.8561 283.089C54.7565 282.857 55.7645 282.023 57.115 281.188C58.4656 280.354 57.9318 280.962 58.0353 281.188C58.1389 281.415 58.8322 281.12 57.4816 281.959Z" fill="#FFD037"/>
<path d="M31.5096 273.537C31.5096 273.537 28.171 278.526 33.0514 286.009C37.9319 293.492 41.9557 299.846 40.3263 304.526C40.3263 304.526 32.9638 290.59 26.9718 290.395C20.9799 290.2 24.9201 281.918 31.5096 273.537Z" fill="#6C63FF"/>
<path opacity="0.1" d="M31.5096 273.537C31.2187 274.018 30.9893 274.543 30.8284 275.097C24.9798 282.916 21.8683 290.213 27.4858 290.399C32.7208 290.571 38.9996 301.224 40.5056 303.918C40.4559 304.126 40.396 304.33 40.3263 304.531C40.3263 304.531 32.9638 290.594 26.9718 290.399C20.9799 290.204 24.9201 281.918 31.5096 273.537Z" fill="black"/>
<path d="M25.3025 279.868C25.3025 281.619 25.4738 283.043 25.7009 283.043C25.928 283.043 26.0993 281.624 26.0993 279.868C26.0993 278.113 25.8841 278.961 25.673 278.961C25.4618 278.961 25.3025 278.122 25.3025 279.868Z" fill="#FFD037"/>
<path d="M23.1751 281.959C24.5257 282.798 25.701 283.32 25.8006 283.089C25.9002 282.857 24.8922 282.023 23.5416 281.188C22.1911 280.354 22.7249 280.962 22.6213 281.188C22.5177 281.415 21.8245 281.12 23.1751 281.959Z" fill="#FFD037"/>
<path d="M26.3663 303.873C26.3663 303.873 35.7008 303.546 38.5136 301.265C41.3263 298.984 52.8561 296.277 53.5692 299.905C54.2823 303.533 67.5969 318.095 57.0592 318.19C46.5215 318.286 32.5734 316.322 29.7646 314.376C26.9559 312.431 26.3663 303.873 26.3663 303.873Z" fill="#A8A8A8"/>
<path opacity="0.2" d="M57.2504 316.934C46.7127 317.029 32.7646 315.066 29.9559 313.12C27.8164 311.637 26.9639 306.318 26.681 303.864H26.3702C26.3702 303.864 26.9599 312.435 29.7686 314.381C32.5774 316.327 46.5254 318.295 57.0632 318.195C60.107 318.168 61.1548 316.934 61.099 315.111C60.6727 316.227 59.5133 316.912 57.2504 316.934Z" fill="black"/>
</g>
<defs>
<filter id="filter0_d" x="0" y="0" width="416" height="364" filterUnits="userSpaceOnUse" color-interpolation-filters="sRGB">
<feFlood flood-opacity="0" result="BackgroundImageFix"/>
<feColorMatrix in="SourceAlpha" type="matrix" values="0 0 0 0 0 0 0 0 0 0 0 0 0 0 0 0 0 0 127 0"/>
<feOffset dy="4"/>
<feGaussianBlur stdDeviation="2"/>
<feColorMatrix type="matrix" values="0 0 0 0 0 0 0 0 0 0 0 0 0 0 0 0 0 0 0.25 0"/>
<feBlend mode="normal" in2="BackgroundImageFix" result="effect1_dropShadow"/>
<feBlend mode="normal" in="SourceGraphic" in2="effect1_dropShadow" result="shape"/>
</filter>
<linearGradient id="paint0_linear" x1="205.867" y1="270.726" x2="205.867" y2="109.918" gradientUnits="userSpaceOnUse">
<stop stop-color="#808080" stop-opacity="0.25"/>
<stop offset="0.54" stop-color="#808080" stop-opacity="0.12"/>
<stop offset="1" stop-color="#808080" stop-opacity="0.1"/>
</linearGradient>
<linearGradient id="paint1_linear" x1="27515.7" y1="79114.8" x2="36730.7" y2="49050" gradientUnits="userSpaceOnUse">
<stop stop-color="#808080" stop-opacity="0.25"/>
<stop offset="0.54" stop-color="#808080" stop-opacity="0.12"/>
<stop offset="1" stop-color="#808080" stop-opacity="0.1"/>
</linearGradient>
<linearGradient id="paint2_linear" x1="21445.9" y1="196659" x2="21445.9" y2="54920.9" gradientUnits="userSpaceOnUse">
<stop stop-color="#808080" stop-opacity="0.25"/>
<stop offset="0.54" stop-color="#808080" stop-opacity="0.12"/>
<stop offset="1" stop-color="#808080" stop-opacity="0.1"/>
</linearGradient>
<clipPath id="clip0">
<rect width="408" height="356" fill="white" transform="translate(4)"/>
</clipPath>
</defs>
</svg>
